<svg width="24" height="24" viewBox="0 0 24 24" xmlns="http://www.w3.org/2000/svg">
<path d="M5.02964 1.21875C4.83529 1.21875 4.62651 2.29575 4.41023 3.23128L5.919 7.96425L4.08843 4.69584C3.951 5.36812 3.83465 6.03741 3.76022 6.70073L5.78409 9.43102L3.68231 7.70489C3.66192 8.22427 3.67528 8.73877 3.73284 9.24694L5.86636 10.9624L3.94964 10.3397C4.06954 10.7627 4.22808 11.187 4.40958 11.6076L6.32297 12.8706L4.91367 12.6684C5.56195 13.9319 6.31162 15.1162 6.72759 16.0672C6.84782 16.3076 7.10367 16.8525 7.23975 17.3875C7.42209 18.1232 7.02745 19.0722 6.24267 19.1839C6.81853 18.514 6.86353 18.082 6.75923 17.6588C6.13851 17.6498 5.86336 18.4049 5.86336 18.4049C5.86336 18.4049 5.27615 19.5052 6.60009 21.1878C7.92403 22.8704 9.74897 22.7803 9.74897 22.7803C9.74897 22.7803 9.64382 20.2001 9.7004 19.0322C9.75759 17.8526 10.092 15.7623 10.092 15.7623C10.092 15.7623 9.15459 15.7666 8.10248 15.0217C6.78215 14.0869 7.2817 13.4925 6.9464 12.6274C6.27061 10.8836 6.72703 8.16759 6.72703 8.16759C6.72703 8.16759 6.21806 6.17119 5.89031 4.75406C5.61858 3.57966 5.17486 1.21875 5.02964 1.21875ZM18.9703 1.21875C18.825 1.21875 18.3813 3.57966 18.1096 4.75406C17.7818 6.17119 17.2728 8.16759 17.2728 8.16759C17.2728 8.16759 17.7293 10.8836 17.0535 12.6274C16.7182 13.4925 17.2177 14.0869 15.8974 15.0217C14.8453 15.7666 13.9079 15.7623 13.9079 15.7623C13.9079 15.7623 14.2423 17.8526 14.2995 19.0322C14.3561 20.2001 14.2509 22.7804 14.2509 22.7804C14.2509 22.7804 16.0759 22.8704 17.3998 21.1878C18.7237 19.5052 18.1365 18.4048 18.1365 18.4048C18.1365 18.4048 17.8614 17.6498 17.2407 17.6588C17.1364 18.082 17.1814 18.5141 17.7573 19.184C16.9725 19.0723 16.5778 18.1232 16.7602 17.3875C16.8962 16.8525 17.1521 16.3077 17.2723 16.0672C17.6883 15.1162 18.438 13.9319 19.0863 12.6684L17.6769 12.8706L19.5903 11.6076C19.7718 11.187 19.9304 10.7627 20.0503 10.3397L18.1335 10.9624L20.2671 9.24694C20.3246 8.73881 20.338 8.22427 20.3176 7.70489L18.2158 9.43102L20.2397 6.70073C20.1652 6.03745 20.0489 5.36812 19.9115 4.69584L18.0809 7.96425L19.5897 3.23137C19.3734 2.29584 19.1646 1.21875 18.9703 1.21875ZM11.9999 1.24045C11.091 1.24045 8.99517 3.36867 7.85873 4.7902C7.52981 5.20172 7.11834 6.18816 7.11834 6.18816L7.54931 7.93608C7.54931 7.93608 7.49522 8.33227 7.42725 9.3653C7.37611 10.143 7.37784 10.9029 7.37784 10.9029L9.84708 10.1111C10.0347 9.05428 10.3864 7.6695 10.7961 6.49186C11.1246 5.54775 11.9999 3.74616 11.9999 3.74616C11.9999 3.74616 12.8999 5.46436 13.222 6.37617C13.6492 7.58559 13.9629 9.07064 14.1527 10.1111L16.622 10.9029C16.622 10.9029 16.6237 10.143 16.5726 9.3653C16.5046 8.33227 16.4505 7.93608 16.4505 7.93608L16.8815 6.18811C16.8815 6.18811 16.596 5.28009 16.3173 4.90612C15.1878 3.39047 12.9087 1.24045 11.9999 1.24045V1.24045ZM12 4.85405C12 4.85405 11.4975 6.17498 11.2795 7.23047C11.078 8.20631 10.7218 10.354 10.7218 10.354C10.7218 10.354 11.2835 10.9131 10.9881 11.2097C10.6927 11.5064 10.1892 10.9423 10.1892 10.9423L7.54383 11.7452L7.70025 12.3647L10.1892 13.2954C10.1892 13.2954 10.6887 12.7274 10.9881 13.0281C11.2875 13.3287 10.7218 14.1511 10.7218 14.1511C10.7218 14.1511 10.9036 14.904 11.0028 15.2782C11.1645 15.8887 11.515 17.1021 11.515 17.1021L11.9999 17.2365L12.4848 17.1021C12.4848 17.1021 12.8036 15.9675 12.9558 15.3983C13.0667 14.9835 13.278 14.1511 13.278 14.1511C13.278 14.1511 12.7123 13.3287 13.0117 13.028C13.3111 12.7274 13.8106 13.2954 13.8106 13.2954L16.2996 12.3647L16.456 11.7452L13.8106 10.9423C13.8106 10.9423 13.3071 11.5064 13.0117 11.2097C12.7163 10.9131 13.278 10.354 13.278 10.354C13.278 10.354 12.9243 8.37042 12.7204 7.26914C12.5212 6.19317 12 4.854 12 4.854V4.85405ZM12 11.2463C12.2353 11.2463 12.426 11.6294 12.426 12.102C12.426 12.5745 12.2353 12.9577 12 12.9577C11.7646 12.9577 11.5739 12.5745 11.5739 12.102C11.5739 11.6294 11.7646 11.2463 12 11.2463V11.2463Z" fill="black"/>
</svg>
