<svg width="24" height="24" viewBox="0 0 24 24" xmlns="http://www.w3.org/2000/svg">
<g clip-path="url(#clip0_1854_6)">
<path d="M21.1034 0.620605C19.6473 0.620605 18.4419 1.70185 18.24 3.10336H16.5517V4.75854C16.5517 4.98695 16.3668 5.17233 16.1379 5.17233C15.9091 5.17233 15.7241 4.98695 15.7241 4.75854V3.10336H14.8966V5.58612C14.8966 5.81454 14.7116 5.99992 14.4828 5.99992C14.2539 5.99992 14.069 5.81454 14.069 5.58612V3.10336H5.76C5.55807 1.70185 4.35269 0.620605 2.89655 0.620605C1.29972 0.620605 0 1.91992 0 3.51716V20.4827C0 22.0799 1.29972 23.3792 2.89655 23.3792H7.03448V20.8965C7.03448 20.6681 7.21945 20.4827 7.44828 20.4827C7.6771 20.4827 7.86207 20.6681 7.86207 20.8965V23.3792H8.68966V22.1378C8.68966 21.9094 8.87462 21.7241 9.10345 21.7241C9.33228 21.7241 9.51724 21.9094 9.51724 22.1378V23.3792H21.1034C22.7003 23.3792 24 22.0799 24 20.4827V3.51716C24 1.91992 22.7003 0.620605 21.1034 0.620605ZM4.96552 18.4572C4.43959 17.9201 3.70634 17.5861 2.89655 17.5861C2.08676 17.5861 1.35352 17.9201 0.827586 18.4572V3.51716C0.827586 2.37633 1.75572 1.44819 2.89655 1.44819C4.03738 1.44819 4.96552 2.37633 4.96552 3.51716V18.4572ZM7.74083 10.4304L7.15572 9.8453L8.10455 8.89647L7.15572 7.94764L7.74083 7.36254L8.68966 8.31136L9.63848 7.36254L10.2236 7.94764L9.27476 8.89647L10.2236 9.8453L9.63848 10.4304L8.68966 9.48157L7.74083 10.4304V10.4304ZM8.84607 12.3976C8.66979 12.3976 8.50717 12.2846 8.45131 12.1079C8.33503 11.738 8.27586 11.3536 8.27586 10.9654C8.27586 10.737 8.46083 10.5516 8.68966 10.5516C8.91848 10.5516 9.10345 10.737 9.10345 10.9654C9.10345 11.2692 9.14938 11.57 9.24083 11.8596C9.30952 12.0777 9.18828 12.3098 8.97021 12.3785C8.92883 12.3914 8.88703 12.3976 8.84607 12.3976V12.3976ZM10.8886 14.2791C10.8108 14.4086 10.6738 14.4802 10.5335 14.4802C10.4611 14.4802 10.3874 14.4612 10.3208 14.421C9.87972 14.1562 9.49531 13.8268 9.17917 13.442C9.03393 13.2653 9.05959 13.0046 9.23628 12.8594C9.41421 12.7141 9.67448 12.7402 9.81848 12.9165C10.0746 13.2281 10.3866 13.4954 10.7466 13.7114C10.9428 13.8289 11.0065 14.0834 10.8886 14.2791ZM14.2407 14.9701C14.1848 15.1468 14.0222 15.2598 13.8459 15.2598C13.8046 15.2598 13.7632 15.2536 13.7218 15.2407C13.4321 15.1497 13.1313 15.1034 12.8276 15.1034C12.449 15.1034 12.072 15.0607 11.7066 14.9772C11.484 14.9263 11.345 14.7041 11.3959 14.4814C11.4472 14.2584 11.6681 14.1177 11.8916 14.1707C12.1961 14.2406 12.5106 14.2758 12.8276 14.2758C13.2157 14.2758 13.6001 14.335 13.9701 14.4512C14.1881 14.5199 14.3094 14.7521 14.2407 14.9701V14.9701ZM15.5739 16.7465C15.3583 16.387 15.0906 16.0745 14.779 15.8184C14.6023 15.6732 14.5771 15.4125 14.7219 15.2358C14.8672 15.0599 15.1274 15.0338 15.3041 15.1791C15.6898 15.4961 16.0192 15.8801 16.2832 16.3207C16.4007 16.5169 16.3374 16.771 16.1412 16.8885C16.0746 16.9286 16.001 16.9476 15.9286 16.9476C15.7883 16.9476 15.6513 16.8761 15.5739 16.7465V16.7465ZM16.5517 19.2413C16.3229 19.2413 16.1379 19.0559 16.1379 18.8275C16.1379 18.5097 16.1028 18.1952 16.0328 17.8919C15.9815 17.6689 16.1206 17.4471 16.3436 17.3958C16.5662 17.3453 16.788 17.4835 16.8393 17.7061C16.9229 18.0703 16.9655 18.4476 16.9655 18.8275C16.9655 19.0559 16.7806 19.2413 16.5517 19.2413ZM23.1724 18.4572C22.6465 17.9201 21.9132 17.5861 21.1034 17.5861C20.2937 17.5861 19.5604 17.9201 19.0345 18.4572V3.51716C19.0345 2.37633 19.9626 1.44819 21.1034 1.44819C22.2443 1.44819 23.1724 2.37633 23.1724 3.51716V18.4572Z" fill="black"/>
</g>
<defs>
<clipPath id="clip0_1854_6">
<rect width="24" height="24" fill="white"/>
</clipPath>
</defs>
</svg>
