<svg width="24" height="24" viewBox="0 0 24 24" xmlns="http://www.w3.org/2000/svg">
<path d="M3.11904 0.843732C3.10371 0.843403 3.08833 0.843497 3.0731 0.844013C2.8826 0.850388 2.69318 0.920607 2.53919 1.05659C2.18726 1.36747 2.15398 1.90475 2.46485 2.25668C2.67082 2.48984 2.97607 2.58223 3.26107 2.52818L5.97223 5.59733L3.61099 7.68317L4.7448 8.96661C5.19902 7.96498 5.78801 7.11579 6.49919 6.40489L6.8231 8.1012C7.99929 7.80636 9.15907 7.60606 10.309 7.49778L9.18813 6.22887L7.37594 5.64373C8.1783 5.03904 9.09785 4.56701 10.1238 4.21526L8.98985 2.93159L6.62876 5.01734L3.91376 1.94375C3.99766 1.67023 3.94268 1.36109 3.73938 1.13093C3.57541 0.94531 3.34844 0.848278 3.11899 0.843685L3.11904 0.843732ZM21.1376 0.843732C20.9082 0.848419 20.6813 0.945357 20.5174 1.13093C20.3141 1.36109 20.2589 1.67028 20.3429 1.94389L17.6279 5.01739L15.2668 2.93159L14.133 4.21526C15.1588 4.56701 16.0783 5.039 16.8808 5.64364L15.0686 6.22887L13.9785 7.46281C15.1368 7.55014 16.2926 7.73028 17.4528 8L17.7574 6.40484C18.4686 7.11575 19.0577 7.96494 19.5119 8.96656L20.6456 7.68312L18.2844 5.59728L20.9956 2.52814C21.2806 2.58218 21.5859 2.48979 21.7918 2.25664C22.1026 1.9047 22.0693 1.36742 21.7175 1.05654C21.5635 0.920607 21.3741 0.850294 21.1836 0.843966C21.1683 0.843497 21.153 0.843357 21.1376 0.843685V0.843732ZM12.399 8.27389C10.5446 8.26929 8.67396 8.51886 6.7443 9.02834C6.6484 13.2681 8.36074 18.8416 12.2976 21.2114C16.1083 18.9084 18.0352 13.2472 17.9485 9.02792C16.0852 8.53592 14.2496 8.27848 12.3989 8.27389H12.399ZM6.90635 15.4692L2.83451 20.0788L2.26263 23.0738L5.16419 22.1366L8.37466 18.5022C7.77185 17.5596 7.28501 16.532 6.90635 15.4692V15.4692ZM17.6034 15.7556C17.196 16.798 16.6857 17.801 16.0703 18.7154L19.0924 22.1366L21.9939 23.0738L21.422 20.0788L17.6033 15.7555L17.6034 15.7556Z" fill="black"/>
</svg>
