<svg xmlns="http://www.w3.org/2000/svg" viewBox="0 0 24 24"><path d="M3.119.844h-.046a.85.85 0 1 0 .188 1.684l2.711 3.07-2.361 2.085 1.134 1.284a8.606 8.606 0 0 1 1.754-2.562L6.823 8.1a23.292 23.292 0 0 1 3.486-.603l-1.12-1.27-1.813-.584c.802-.605 1.722-1.077 2.748-1.429L8.99 2.932 6.629 5.017 3.914 1.944a.849.849 0 0 0-.795-1.1Zm18.019 0a.848.848 0 0 0-.795 1.1l-2.715 3.073-2.361-2.085-1.134 1.283c1.026.352 1.945.824 2.748 1.429l-1.812.585-1.09 1.234c1.158.087 2.314.267 3.474.537l.304-1.595c.712.71 1.3 1.56 1.755 2.562l1.134-1.284-2.362-2.086 2.712-3.069a.849.849 0 1 0 .142-1.684Zm-8.739 7.43c-1.854-.005-3.725.245-5.655.754-.096 4.24 1.617 9.814 5.554 12.183 3.81-2.303 5.737-7.964 5.65-12.183-1.863-.492-3.698-.75-5.55-.754h.001Zm-5.493 7.195-4.071 4.61-.572 2.995 2.901-.937 3.21-3.635a14.942 14.942 0 0 1-1.468-3.033Zm10.697.287a15.251 15.251 0 0 1-1.533 2.96l3.022 3.42 2.902.938-.572-2.995-3.819-4.324Z"/></svg>
