<svg xmlns="http://www.w3.org/2000/svg" viewBox="0 0 24 24"><path d="M5.03 1.219c-.195 0-.403 1.077-.62 2.012L5.92 7.964l-1.83-3.268A22.666 22.666 0 0 0 3.76 6.7l2.024 2.73-2.102-1.726c-.02.52-.007 1.034.05 1.542l2.134 1.715-1.916-.622c.12.423.278.847.46 1.268l1.913 1.263-1.41-.203c.649 1.264 1.399 2.448 1.815 3.4.12.24.376.784.512 1.32.182.735-.213 1.684-.997 1.796.576-.67.62-1.102.516-1.525-.62-.01-.896.746-.896.746s-.587 1.1.737 2.783C7.924 22.87 9.75 22.78 9.75 22.78s-.105-2.58-.049-3.748c.058-1.18.392-3.27.392-3.27s-.937.005-1.99-.74c-1.32-.935-.82-1.53-1.156-2.395-.675-1.743-.219-4.46-.219-4.46s-.509-1.996-.837-3.413C5.62 3.58 5.175 1.22 5.03 1.22Zm13.94 0c-.145 0-.589 2.36-.86 3.535-.328 1.417-.837 3.414-.837 3.414s.456 2.716-.22 4.46c-.335.864.165 1.459-1.156 2.394-1.052.745-1.99.74-1.99.74s.335 2.09.393 3.27c.056 1.168-.05 3.748-.05 3.748s1.826.09 3.15-1.592c1.324-1.683.737-2.783.737-2.783s-.276-.755-.896-.746c-.105.423-.06.855.516 1.525-.785-.112-1.18-1.06-.997-1.797.136-.535.392-1.08.512-1.32.416-.95 1.166-2.135 1.814-3.399l-1.41.203 1.914-1.263c.182-.421.34-.845.46-1.268l-1.916.622 2.133-1.715c.058-.508.071-1.023.05-1.542L18.217 9.43l2.024-2.73a22.705 22.705 0 0 0-.328-2.005L18.08 7.964l1.509-4.733c-.217-.935-.425-2.012-.62-2.012ZM12 1.24c-.909 0-3.005 2.129-4.141 3.55-.33.412-.74 1.398-.74 1.398l.43 1.748s-.054.396-.122 1.43c-.05.777-.05 1.537-.05 1.537l2.47-.792c.188-1.057.54-2.442.95-3.62C11.124 5.549 12 3.747 12 3.747s.9 1.718 1.222 2.63c.427 1.21.74 2.695.93 3.735l2.47.792s.002-.76-.05-1.538c-.067-1.033-.121-1.429-.121-1.429l.43-1.748s-.285-.908-.564-1.282C15.187 3.39 12.91 1.24 12 1.24Zm0 3.614s-.502 1.321-.72 2.376c-.202.976-.558 3.124-.558 3.124s.562.56.266.856c-.295.296-.799-.268-.799-.268l-2.645.803.156.62 2.49.93s.499-.568.798-.267c.3.3-.266 1.123-.266 1.123s.182.753.28 1.127c.162.61.513 1.824.513 1.824l.485.134.485-.134s.319-1.135.47-1.704c.112-.415.323-1.247.323-1.247s-.566-.822-.266-1.123c.3-.3.799.267.799.267l2.489-.93.156-.62-2.645-.803s-.504.564-.8.268c-.295-.297.267-.856.267-.856s-.354-1.984-.558-3.085C12.521 6.193 12 4.854 12 4.854Zm0 6.392c.235 0 .426.383.426.856s-.19.856-.426.856c-.235 0-.426-.383-.426-.856s.19-.856.426-.856Z"/></svg>
