<svg width="24" height="24" xmlns="http://www.w3.org/2000/svg"><g clip-path="url(#d10__a)"><path d="M10.533 22.55a539.425 539.425 0 0 0-3.908-3.73 980.987 980.987 0 0 1-5.582-5.32c-.086-.088-.15-.166-.142-.173.04-.04 4.539-1.326 4.729-1.352.171-.023.353.022.826.205.58.225 3.798 1.551 4.392 1.81l.515.225.009 4.365c.008 4.09.001 4.725-.047 4.721-.01 0-.367-.338-.792-.75Zm2.076-2.605c0-1.818.008-3.865.019-4.55l.018-1.243.533-.212a308.72 308.72 0 0 0 1.892-.767 602.85 602.85 0 0 1 2.256-.916l.895-.361.422.12c.232.066 1.347.388 2.479.716l2.057.597-.08.062c-.097.077-.165.142-8.316 7.865-1.5 1.42-1.868 1.76-2.125 1.957-.048.037-.05-.123-.05-3.268Zm-1.045-6.991c-.384-.138-1.956-.783-3.007-1.234-.378-.162-.88-.369-1.116-.46-.503-.192-.698-.285-.72-.344-.024-.061.016-.15.45-.971.801-1.523 3.758-7.256 4.43-8.59.159-.315.306-.597.329-.627.037-.05.046-.043.142.115.16.264.472.861 1.975 3.776.772 1.496 1.754 3.396 2.183 4.223.806 1.552.953 1.857.98 2.02.014.087.006.099-.095.15-.202.104-3.666 1.532-4.328 1.785-.424.163-.782.283-.835.281-.025 0-.2-.056-.388-.124Zm-9.95-1.158c0-.057.337-.438 3.035-3.432C8.529 4.06 9.14 3.39 9.165 3.413c.014.014-.352.75-.75 1.507-.162.307-.768 1.473-1.347 2.59-1.419 2.743-1.554 2.99-1.742 3.187-.11.116-.2.145-2.166.695l-1.496.42c-.028.008-.05 0-.05-.016Zm20.372-.052c-1.585-.441-3.303-.985-3.406-1.078-.107-.095-.306-.473-2.32-4.386-.406-.788-.89-1.722-1.076-2.076-.363-.69-.442-.86-.405-.86.031 0 .367.367 1.224 1.332.377.425 1.06 1.186 1.516 1.69a981.45 981.45 0 0 1 2.076 2.305c.685.763 1.42 1.574 1.632 1.803.857.921 1.174 1.279 1.174 1.323 0 .04-.148.021-.415-.053Z" fill="#000"/></g><defs><clipPath id="d10__a"><path fill="#fff" d="M0 0h24v24H0z"/></clipPath></defs></svg>
