<svg xmlns="http://www.w3.org/2000/svg" viewBox="0 0 24 24"><path d="M15.053 22.535a313.2 313.2 0 0 0-2.456-2.31 617.708 617.708 0 0 1-3.507-3.297.421.421 0 0 1-.09-.108c.025-.024 2.852-.82 2.972-.837.108-.014.222.014.52.127.364.14 2.386.961 2.759 1.122l.324.139.005 2.704c.005 2.533.001 2.927-.03 2.925-.006-.001-.23-.21-.497-.465Zm1.304-1.614c0-1.126.006-2.394.012-2.818l.012-.77.335-.132c.183-.072.719-.286 1.189-.475.47-.19 1.107-.445 1.417-.568l.563-.223.265.074c.145.041.846.24 1.557.444l1.293.37-.05.038c-.061.048-.104.088-5.226 4.872-.942.88-1.174 1.09-1.335 1.212-.03.023-.032-.076-.032-2.024Zm-.656-4.33a58.705 58.705 0 0 1-1.89-.765 26.11 26.11 0 0 0-.701-.285c-.316-.119-.439-.177-.453-.213-.015-.038.011-.093.283-.602.504-.943 2.362-4.495 2.784-5.32.1-.196.193-.37.207-.39.023-.03.029-.026.089.072.1.164.297.533 1.241 2.339.485.927 1.102 2.104 1.372 2.616.506.962.599 1.15.616 1.251.009.054.004.062-.06.094-.127.063-2.304.948-2.72 1.105-.266.101-.49.176-.524.175a2.456 2.456 0 0 1-.244-.078Zm-6.252-.718c0-.035.211-.272 1.907-2.126 2.438-2.667 2.822-3.082 2.837-3.067.01.009-.221.464-.471.933-.102.19-.482.913-.846 1.606-.892 1.698-.977 1.851-1.095 1.973-.069.072-.126.09-1.36.431l-.94.26c-.018.005-.032 0-.032-.01Zm12.8-.032c-.995-.273-2.075-.61-2.14-.668-.067-.06-.192-.293-1.458-2.717-.254-.488-.558-1.067-.676-1.286-.227-.427-.277-.532-.254-.532.02 0 .231.227.769.825.237.263.666.734.953 1.047.287.312.874.955 1.304 1.427.43.473.892.975 1.026 1.117.538.57.738.792.738.82 0 .024-.094.013-.261-.033ZM7.053 14.535a313.2 313.2 0 0 0-2.456-2.31A613.158 613.158 0 0 1 1.09 8.928.422.422 0 0 1 1 8.821c.025-.025 2.852-.822 2.972-.838.108-.014.222.014.52.127.364.14 2.386.961 2.759 1.121l.324.14.005 2.704c.005 2.533.001 2.927-.03 2.925-.006-.001-.23-.21-.497-.465Zm1.304-1.614c0-1.126.006-2.394.012-2.818l.012-.77.335-.132c.184-.072.719-.286 1.189-.475.47-.19 1.107-.445 1.417-.568l.563-.223.265.074c.145.041.846.24 1.557.444l1.293.37-.05.038c-.061.048-.104.088-5.226 4.872-.942.88-1.174 1.09-1.335 1.212-.03.023-.032-.076-.032-2.024Zm-.656-4.33a59.013 59.013 0 0 1-1.89-.765 24.55 24.55 0 0 0-.701-.284c-.316-.12-.439-.178-.453-.214-.015-.038.011-.093.283-.602a661.65 661.65 0 0 0 2.784-5.32c.1-.196.193-.37.207-.39.023-.03.029-.026.089.072.1.164.297.533 1.241 2.339.485.927 1.102 2.104 1.372 2.616.506.962.599 1.15.616 1.251.008.054.004.062-.06.094-.127.063-2.304.948-2.72 1.105-.266.101-.49.176-.524.174-.016 0-.126-.035-.244-.077Zm-6.252-.718c0-.036.211-.272 1.907-2.126C5.794 3.08 6.178 2.665 6.193 2.68c.01.009-.221.464-.471.933-.102.19-.483.913-.846 1.606-.892 1.698-.977 1.851-1.095 1.973-.069.072-.126.09-1.36.431l-.94.26c-.018.005-.032 0-.032-.01Zm12.8-.032c-.995-.274-2.075-.61-2.14-.668-.067-.06-.192-.293-1.458-2.717a224.05 224.05 0 0 0-.676-1.286c-.227-.427-.278-.532-.254-.532.02 0 .231.227.769.825.237.263.666.734.953 1.047.287.312.874.955 1.304 1.427.43.473.892.975 1.026 1.117.538.57.738.792.738.82 0 .025-.094.013-.261-.033Z"/></svg>
