<svg width="24" height="24" xmlns="http://www.w3.org/2000/svg"><g clip-path="url(#d12__a)"><path d="M8.32 23.285a91.511 91.511 0 0 1-.301-1l-.77-2.579c-.74-2.48-.98-3.331-.96-3.409.034-.134.298-.306 2.897-1.893.52-.317 1.335-.81 1.81-1.095.991-.595.905-.57 1.297-.373.341.171 2.625 1.552 4.463 2.699.746.465.9.57.924.633.009.023-.037.223-.101.444-.223.766-1.946 6.54-1.953 6.547-.005.004-1.648.018-3.652.03-2.426.016-3.648.015-3.655-.004Zm-1.63-.741c-.161-.12-.74-.473-1.639-.999l-.858-.501-.31-.525a98.592 98.592 0 0 1-1.196-2.074A84.95 84.95 0 0 0 2 17.252l-1.106-1.9L.3 14.33l.007-1.478.007-1.477.59.622 1.52 1.608c2.216 2.346 2.283 2.42 2.44 2.728.167.322.24.543.665 1.988.622 2.12 1.023 3.465 1.152 3.862a2.9 2.9 0 0 1 .114.405c-.005.015-.052-.005-.105-.044Zm10.52-.225c.023-.072.386-1.272.806-2.668a134.5 134.5 0 0 1 .88-2.852c.193-.529.296-.699.668-1.104.741-.808 2.471-2.64 3.623-3.836l.467-.484.007 1.442.007 1.443-.23.399a1170.254 1170.254 0 0 0-2.451 4.252c-.803 1.402-1.04 1.775-1.293 2.04-.216.224-.387.343-1.175.814-.655.392-1.207.684-1.293.684-.054 0-.055-.004-.015-.13ZM5.453 15.023a61.53 61.53 0 0 1-1.16-1.227 526.592 526.592 0 0 0-2.184-2.328C.468 9.73.493 9.758.493 9.69c0-.064.37-.74.905-1.654.957-1.635 2.918-4.914 2.956-4.944.059-.046.239-.043.494.009.698.142 5.72 1.357 6.402 1.549l.103.029-.007 3.47-.007 3.471-.575.357c-3.307 2.049-5.117 3.148-5.18 3.148a.704.704 0 0 1-.132-.103Zm12.744.037a14.15 14.15 0 0 1-.645-.387 849.2 849.2 0 0 0-4.227-2.6c-.267-.162-.505-.325-.529-.362-.088-.134-.127-.381-.153-.96-.023-.524-.04-6.101-.018-6.101.005 0 .928-.223 2.05-.495 3.544-.86 4.527-1.089 4.77-1.114l.15-.015L20.76 5.01c.641 1.091 1.52 2.582 1.951 3.313l.786 1.33-.304.33c-2.885 3.133-4.777 5.118-4.877 5.115a.457.457 0 0 1-.12-.038ZM11.86 3.48a82.22 82.22 0 0 0-.37-.082c-.173-.038-.97-.227-1.769-.42-.8-.194-1.873-.452-2.386-.574a65.212 65.212 0 0 1-1.164-.285l-.232-.063.122-.083c.206-.14.605-.355 1.523-.824L8.464.7h7.05l.738.386c1.576.825 1.915 1.04 1.637 1.04-.132 0-1.409.3-4.048.948-1.592.392-1.828.44-1.98.405Z" fill="#000"/></g><defs><clipPath id="d12__a"><path fill="#fff" d="M0 0h24v24H0z"/></clipPath></defs></svg>
