<svg xmlns="http://www.w3.org/2000/svg" viewBox="0 0 24 24"><path fill="currentColor" d="m10.171 22.65-3.1-1.802c-2.613-1.514-2.543-1.472-2.492-1.482.052-.01.401.048 3.208.534 1.182.205 2.441.422 2.797.482a9.8 9.8 0 0 1 .71.135l.062.027v1.168c0 1.113-.016 1.59-.052 1.588a58.7 58.7 0 0 1-1.133-.65Zm2.52.593c-.038-.061-.062-.642-.067-1.623a95.508 95.508 0 0 1-.003-1.066c.003-.05.025-.062.148-.077.553-.07 2.514-.404 4.623-.787 1.439-.26 2.038-.363 2.071-.352.03.01-.218.16-1.106.663a589.08 589.08 0 0 0-5.33 3.09c-.164.1-.303.183-.308.183-.005 0-.018-.014-.028-.03Zm-2.081-4.087c-.018-.017-1.48-.277-3.733-.665-1.106-.19-2.365-.409-2.797-.485-.984-.173-1.653-.272-1.838-.272-.243 0-.24.013-.078-.409.561-1.454 2.717-6.856 2.937-7.358.094-.217.186-.39.202-.384.053.016.342.517 1.984 3.43.344.61.712 1.254.819 1.43.107.177.235.404.286.504.05.1.423.759.83 1.464 1.34 2.328 1.555 2.708 1.555 2.732 0 .023-.145.035-.167.013Zm2.62-.03c0-.023.091-.206.203-.407 1.006-1.815 5.014-8.795 5.209-9.073l.056-.08.08.177c.045.097.227.549.405 1.004.178.454.492 1.242.697 1.75.945 2.345 2.01 5.07 1.991 5.099-.045.073-.732.205-3.666.702-2.385.405-4.619.795-4.823.842-.147.034-.152.034-.152-.014Zm-1.386-.641c-.237-.372-2.095-3.613-3.465-6.043-.27-.478-.585-1.03-.702-1.227a12.03 12.03 0 0 1-.296-.524 37.97 37.97 0 0 0-.49-.868 68.68 68.68 0 0 1-.52-.913l-.115-.21.655-.024c.794-.028 10.744-.032 10.772-.004.026.026.01.054-3.564 6.333-1.944 3.417-2.09 3.666-2.131 3.666-.014 0-.08-.084-.144-.186Zm10.154-3.963c-.21-.555-2.017-5.165-2.299-5.863l-.097-.241.115-.094c.292-.238 1.576-1.04 2.112-1.32l.262-.136.018.065c.023.08.022 4.742 0 6.527l-.017 1.309-.094-.247Zm-20.192-.799c-.024-1.126.028-6.02.068-6.488.014-.157.037-.298.051-.312.035-.035.21.056.942.495.737.442 1.488.932 1.488.97 0 .082-2.2 5.64-2.438 6.16l-.09.195-.02-1.02Zm4.696-6.318c.04-.074 2.817-3.5 3.255-4.017.116-.137.321-.391.457-.566.135-.174.42-.527.632-.785.212-.258.54-.664.73-.903.189-.238.359-.434.377-.434.04 0 .686.749 1.165 1.35.187.236.405.502.483.593.079.091.458.556.843 1.034a631.94 631.94 0 0 0 1.598 1.97c1.42 1.744 1.387 1.702 1.338 1.73-.11.061-1.169.075-5.866.075-4.79 0-5.037-.001-5.012-.047Zm-1.664-.267-.882-.5c-.425-.24-.938-.534-1.14-.654l-.368-.217.092-.063c.298-.202 1.383-.815 5.398-3.054 1.2-.67 1.384-.769 1.397-.755.016.015-.268.377-1.228 1.561C5.5 6.676 5.058 7.206 4.99 7.204a.51.51 0 0 1-.152-.066Zm13.745-.326c-.18-.216-.586-.715-.903-1.11a53.275 53.275 0 0 0-.743-.909 18.248 18.248 0 0 1-.428-.523 41.754 41.754 0 0 0-.591-.73c-.692-.835-1.398-1.713-1.386-1.726.007-.006.52.275 1.14.627.62.352 2.182 1.232 3.47 1.956 1.289.724 2.362 1.328 2.385 1.342.032.02.009.042-.106.105-.08.043-.602.338-1.158.653-1.12.637-1.252.708-1.312.708-.023 0-.188-.177-.368-.393Z"/></svg>
