<svg width="24" height="24" xmlns="http://www.w3.org/2000/svg"><g clip-path="url(#d4__a)"><path d="M9.691 22.072c-8.26-6.408-9.09-7.065-9.09-7.188 0-.053.437-.642 2.31-3.106a3407.62 3407.62 0 0 0 3.033-3.993c2.442-3.22 4.038-5.318 4.442-5.837.217-.28.506-.674.644-.878l.249-.37.02 2.139c.022 2.575.018 16.662-.007 18.883l-.018 1.578-1.583-1.228Zm2.897-.339c-.017-1.737.029-16.457.06-19.202l.02-1.753.784 1.041c1.28 1.698 3.55 4.69 4.967 6.547.798 1.046 3.623 4.78 4.482 5.927.259.345.47.64.469.654 0 .014-.148.14-.327.277-.179.138-2.417 1.877-4.973 3.865-4.422 3.439-5.417 4.206-5.451 4.206-.009 0-.023-.703-.031-1.562Z" fill="#000"/></g><defs><clipPath id="d4__a"><path fill="#fff" d="M0 0h24v24H0z"/></clipPath></defs></svg>
