<svg width="24" height="24" xmlns="http://www.w3.org/2000/svg"><g clip-path="url(#d8__a)"><path d="M12.571 20.856v-2.444l1.3-.616 3.415-1.613c1.162-.548 2.514-1.188 3.005-1.422 1.026-.49 1.396-.655 1.415-.636.008.008-2.044 2.075-4.56 4.595l-4.574 4.58v-2.444Zm-3.865-.158c-2.69-2.679-6.498-6.526-6.478-6.545.017-.017.153.044 1.003.452.432.207 1.458.691 2.28 1.075.823.384 2.31 1.085 3.307 1.559.996.473 1.97.93 2.163 1.017l.35.156-.002 1.51c-.002.83-.01 1.923-.02 2.43l-.018.92-2.585-2.574Zm3.884-6.997c-.01-1.837-.02-5.513-.02-8.17V.7l4.565 4.567c2.51 2.513 5.002 5.013 5.537 5.555l.973.987-.369.185c-.377.19-6.576 3.129-7.226 3.427-.613.281-3.332 1.557-3.396 1.593-.041.024-.047-.277-.064-3.314Zm-1.4 3.296c-.023-.009-.593-.275-1.265-.59-.672-.317-1.714-.805-2.314-1.086-.601-.28-1.818-.853-2.703-1.271-.886-.418-2.18-1.029-2.876-1.356C.676 12.056.32 11.876.3 11.821c-.014-.042 3.41-3.502 7.844-7.93L11.34.702l-.018 7.101c-.017 6.799-.036 9.218-.073 9.213a.43.43 0 0 1-.06-.018Z" fill="#000"/></g><defs><clipPath id="d8__a"><path fill="#fff" d="M0 0h24v24H0z"/></clipPath></defs></svg>
