<svg width="501" height="500" viewBox="0 0 501 500" fill="none" xmlns="http://www.w3.org/2000/svg">
<path d="M266.733 211.191L265.935 211.389C265.321 211.389 264.73 211.06 264.425 210.467C256.162 194.6 246.428 185.909 235.486 184.526C218.927 182.485 204.842 198.188 204.702 198.32C204.073 199.044 202.995 199.11 202.287 198.484C201.585 197.826 201.521 196.739 202.15 196.015C202.771 195.324 217.527 178.831 235.882 181.102C248.006 182.583 258.626 191.933 267.448 208.821C267.886 209.677 267.568 210.73 266.733 211.191V211.191ZM262.259 217.578C261.98 217.776 261.668 217.842 261.36 217.842C260.788 217.842 260.23 217.545 259.905 217.019C257.522 213.101 253.853 208.426 249.07 206.188C250.035 207.603 250.593 209.282 250.593 211.126C250.593 212.015 250.467 212.87 250.21 213.66C251.038 213.265 251.876 212.771 252.72 212.212C253.512 211.718 254.571 211.949 255.084 212.739C255.597 213.529 255.366 214.615 254.574 215.142C251.535 217.117 248.544 218.302 245.691 218.895L245.671 218.928C244.593 219.454 243.372 219.751 242.087 219.751C241.298 219.751 240.538 219.652 239.81 219.421H239.801L239.742 219.389C236.356 219.257 233.32 218.467 230.836 217.512C236.895 221.562 246.139 225.643 255.915 222.22C256.808 221.89 257.782 222.385 258.09 223.273C258.399 224.195 257.928 225.183 257.032 225.479C254.012 226.532 251.057 226.993 248.226 226.993C234.236 226.993 223.2 216.097 221.427 214.22C211.466 215.833 203.663 210.434 203.553 210.368C202.784 209.809 202.595 208.722 203.137 207.932C203.68 207.175 204.745 206.978 205.517 207.537C206.024 207.867 218.073 216.162 230.758 206.385C236.038 202.336 241.311 200.756 246.434 201.711C254.064 203.159 259.555 209.842 262.814 215.208C263.311 216.031 263.061 217.084 262.259 217.578V217.578ZM387.532 319.072L387.162 319.203H387.113L386.665 319.269C386.119 319.269 385.61 318.973 385.317 318.479C384.886 317.722 342.154 243.223 287.779 240.919C287.766 244.606 287.295 248.523 286.545 253.132C285.695 258.267 288.633 262.317 291.468 266.234C294.822 270.843 298.624 276.077 293.374 282.069C289.039 287.007 286.179 292.834 284.081 297.113C282.198 300.965 281.247 302.907 279.782 303.401L279.097 303.5C278.779 303.5 278.448 303.434 278.156 303.27C277.393 302.908 277.087 301.953 277.471 301.196C277.737 300.636 278.269 300.307 278.831 300.307C279.402 299.616 280.419 297.574 281.321 295.731C283.497 291.287 286.458 285.229 291.059 279.995C294.494 276.077 292.711 273.213 288.987 268.078C285.912 263.864 282.438 259.058 283.497 252.605C285.529 240.227 285.441 233.281 279.555 222.319C277.087 217.743 278.308 212.311 279.847 205.397C282.438 193.711 286 177.744 272.422 156.741C268.581 150.815 265.249 146.207 262.327 142.553L262.123 142.322L262.11 142.29C255.308 133.796 250.668 130.504 246.703 127.64C243.002 125.006 239.81 122.735 236.392 117.106C228.19 103.575 158.851 10.2459 104.219 3.46429C117.226 16.3032 165.029 69.5028 188.816 178.502C189.007 179.325 188.485 180.181 187.647 180.345C186.809 180.543 185.994 180.016 185.803 179.16C180.705 155.853 174.513 135.08 167.815 116.776H167.809L166.932 116.545C166.487 116.249 122.434 87.7406 84.4591 100.481C79.5434 102.127 74.9459 104.365 70.6503 107.262H70.6438L70.4782 107.361L70.4652 107.394C58.5688 115.394 49.0621 128.134 42.0977 145.417C44.2828 144.462 47.2958 143.277 51.033 141.894C57.3773 139.557 61.3189 141.762 63.9261 143.211C66.4554 144.627 67.0528 144.956 68.8061 142.487C69.7867 141.071 70.9198 140.347 72.1536 140.314C72.8647 140.281 73.514 140.479 74.1504 140.808C74.6829 140.578 75.316 140.643 75.7868 141.071C76.2349 141.433 76.4102 142.026 76.2836 142.585C76.9849 143.31 77.709 144.231 78.4817 145.186C79.9688 147.03 81.5597 148.972 83.3779 150.453H83.4039L83.4916 150.52L83.5176 150.552C85.8813 152.396 88.68 153.416 92.2385 152.297C94.0568 151.737 95.586 151.507 96.8945 151.54H96.9887H96.9952H97.2484H97.2744C101.229 151.77 103.135 154.239 104.736 156.379L105.08 156.807L105.219 157.005C107.19 159.507 109.086 161.284 114.895 159.605C120.363 158.025 123.376 160.033 125.356 163.062L125.46 163.227L125.515 163.325H125.535L125.554 163.391C126.684 165.235 127.457 167.375 128.168 169.35C128.83 171.193 129.441 172.806 130.126 174.123L130.142 174.156L130.535 174.518C130.73 174.781 130.811 175.078 130.84 175.374L130.863 175.407C132.223 177.481 133.967 178.535 136.801 178.337C137.129 178.304 137.438 178.271 137.753 178.271H137.779H137.899H137.954H138.149L138.275 178.304C145.178 178.468 147.912 184.065 150.149 188.608C151.169 190.682 152.071 192.427 153.088 193.711C154.435 195.39 156.01 196.278 158.377 196.048C164.721 195.455 165.763 197.99 166.412 201.118C166.64 202.27 166.87 203.39 167.77 204.344C168 204.575 168.279 204.805 168.611 205.003L168.65 205.035H168.659C169.611 205.661 171.02 206.155 173.15 206.484C177 207.077 179.494 208.459 181.234 210.138L181.364 210.27L181.436 210.336L181.481 210.368L181.501 210.401L181.527 210.435C183.345 212.344 184.286 214.582 185.124 216.558C186.423 219.652 187.439 222.088 190.884 223.24C195.017 224.623 197.141 227.816 199.021 230.647C201.858 234.894 203.904 237.956 211.569 235.717C220.138 233.248 231.531 235.882 239.908 242.268C246.113 247.042 249.531 253 249.531 259.123C249.531 259.979 248.846 260.704 247.992 260.704C247.142 260.704 246.444 259.979 246.444 259.123C246.444 254.021 243.466 248.918 238.051 244.77C230.525 239.009 219.985 236.54 212.42 238.713C211.381 239.042 210.404 239.239 209.504 239.371C209.732 240.227 210.173 242.005 210.602 244.672L210.712 245.363H210.709C212.076 254.317 213.122 271.962 206.394 295.105C232.002 260.309 272.617 271.041 273.087 271.172C273.899 271.403 274.383 272.258 274.156 273.081C273.938 273.937 273.087 274.431 272.263 274.201C272.136 274.135 259.217 270.679 243.807 273.971C224.878 278.053 210.586 290.068 201.306 309.755L201.297 309.788C200.368 312.059 199.355 314.43 198.267 316.8C193.358 328.585 187.351 338.593 180.773 347.087L180.484 347.514L180.215 347.811C154.178 380.961 119.479 390.64 107.391 393.076C96.0373 395.413 91.3099 400.582 87.8488 404.368C85.1799 407.331 82.8681 409.865 78.9005 408.713C75.9361 407.857 73.6991 406.113 71.7413 404.5H71.738C70.4653 404.993 69.1308 405.256 67.7314 405.256C65.7995 405.256 63.7541 404.763 61.6047 403.775C57.9422 404.664 54.1045 403.018 51.9161 401.767C38.3768 445.946 47.6952 470.109 53.1239 479.327C52.6921 463.723 60.9942 457.008 66.6892 452.399C69.5886 450.061 71.8906 448.217 72.1439 446.11C72.6536 441.962 73.7348 439.757 75.5531 439.099C76.9135 438.638 78.196 439.296 78.8843 439.987L79.2902 440.712C80.3714 445.123 83.1019 446.835 85.0241 447.461C84.287 441.765 87.8455 438.078 88.0111 437.914C88.43 437.486 89.0534 437.321 89.6248 437.518C90.1833 437.749 90.5794 438.242 90.6444 438.868C91.0989 443.576 92.4463 445.847 93.5665 446.901C93.4918 443.148 94.1899 440.679 95.69 439.362C96.7452 438.44 97.9919 438.341 98.7289 438.539C99.479 438.703 99.9758 439.428 99.8978 440.218C99.44 444.827 100.255 447.296 101.132 448.579C101.55 445.814 102.619 443.872 104.333 442.786C107.424 440.843 111.226 442.72 111.392 442.818C111.784 443.016 112.077 443.378 112.19 443.806C120.963 476.167 141.295 490.718 149.201 495.293C141.941 471.986 137.467 440.35 153.536 415.067C157.922 408.154 163.594 402.195 170.484 397.158L170.497 397.125L170.867 396.862L170.903 396.829C184.913 386.722 203.92 380.402 227.797 377.999C261.717 374.608 285.63 355.284 298.877 320.619C308.819 294.579 308.679 269.296 308.679 269.033C308.666 268.177 309.354 267.485 310.208 267.485H310.221C311.059 267.485 311.757 268.144 311.757 269.033C311.77 269.263 311.91 295.171 301.767 321.738C292.331 346.395 271.912 376.748 228.089 381.126C206.118 383.332 188.384 388.862 175.072 397.718C185.004 401.24 216.534 415.099 233.466 452.53C238.349 444.201 258.678 428.268 262.035 425.733C273.63 416.878 286.545 410.359 298.789 402.491C329.199 382.969 358.378 359.728 381.593 331.746C386.373 325.985 391.012 319.927 394.639 313.343C391.623 317.195 388.636 318.644 387.532 319.072" fill="#A08368"/>
<path d="M225.729 211.948C225.729 211.948 243.051 193.38 257.431 211.717C257.431 211.717 239.473 224.095 225.729 211.948Z" fill="white"/>
<path d="M79.7514 405.684C81.7969 406.276 82.956 405.157 85.586 402.26C89.1218 398.375 94.4466 392.516 106.794 390.014C111.879 388.993 121.097 386.656 131.967 381.685H131.961C130.678 381.685 129.344 381.421 127.892 381.026C127.116 380.796 126.545 380.104 126.47 379.281C126.457 379.248 126.344 377.965 126.012 375.792C124.194 378.36 121.652 380.434 118.905 380.961C118.499 381.059 118.041 381.092 117.532 381.092C116.45 381.092 115.181 380.861 113.82 380.104C113.259 383.594 110.59 386.787 106.927 388.236C105.518 388.796 104.054 389.059 102.58 389.059C99.7065 389.059 96.7713 388.038 94.0115 385.997C93.0829 388.697 90.7192 393.931 85.849 395.939C84.5535 396.499 83.18 396.762 81.7417 396.762C80.917 396.762 80.0794 396.664 79.2125 396.466C78.2969 398.507 76.8357 400.976 74.5987 402.786H74.589C76.102 403.972 77.7806 405.124 79.7514 405.684" fill="#A08368"/>
<path d="M37.1168 362.888C37.8052 388.27 50.3023 397.059 51.6887 397.948C53.1497 398.409 54.4971 398.672 55.718 398.705C53.3802 395.183 50.0847 388.533 49.247 378.426C43.6917 372.994 39.6104 367.036 37.1168 362.888Z" fill="#E7B38F"/>
<path d="M142.529 360.287C144.331 359.167 145.107 357.192 145.364 356.303C142.451 347.382 136.181 341.621 131.808 338.494C135.37 348.666 136.73 357.554 137.162 360.945C139.324 361.373 141.126 361.143 142.529 360.287" fill="#E7B38F"/>
<path d="M84.5407 392.713C88.2648 391.166 90.135 386.721 90.8201 384.648C77.6867 374.541 71.1897 357.817 68.4591 348.665C65.3551 362.229 66.4623 372.303 68.5208 379.183C71.5728 383.627 75.3099 387.808 79.81 391.067C80.3815 391.495 80.6478 392.186 80.4854 392.91L80.4205 393.141C81.9205 393.372 83.2939 393.207 84.5407 392.713" fill="#E7B38F"/>
<path d="M80.5497 178.468C81.277 173.233 83.5855 162.798 90.7286 155.819H90.7253C87.5889 156.181 84.946 155.259 82.6959 153.778C79.8322 156.806 77.5886 161.448 75.897 166.057C75.9327 167.341 76.3191 173.694 80.5497 178.468" fill="#E7B38F"/>
<path d="M115.33 195.06C117.486 189.628 121.827 179.95 127.126 175.078C126.389 173.563 125.805 171.95 125.269 170.436C124.684 168.79 124.139 167.342 123.555 166.156C121.431 167.374 119.493 168.856 117.736 170.436L117.658 170.633C117.324 171.094 110.444 181.464 115.33 195.06Z" fill="#E7B38F"/>
<path d="M172.679 209.577C171.322 209.379 170.166 209.083 169.202 208.721C168.897 213.099 168.715 223.075 172.77 228.704C172.838 224.161 173.705 216.721 178.114 211.552H178.108C176.825 210.63 175.108 209.939 172.679 209.577" fill="#E7B38F"/>
<path d="M282.86 206.089C281.461 212.343 280.354 217.282 282.263 220.837C285.669 227.158 287.26 232.326 287.666 237.791C340.618 239.799 381.249 305.442 387.288 315.713C391.408 313.343 405.558 301.755 395.896 256.259C388.369 220.804 403.766 184.262 440.432 150.618C461.092 131.623 483.252 118.455 493.142 112.99C447.26 112.694 409.717 135.113 385.954 154.371C359.063 176.197 343.514 198.78 343.365 199.011C343.134 199.373 342.777 199.603 342.371 199.669C341.966 199.735 341.544 199.637 341.216 199.406L325.095 187.95C324.79 187.719 324.572 187.39 324.485 187.028C320.517 170.304 340.196 144.56 346.378 136.989C309.686 131.458 300.098 165.432 299.705 166.913C299.565 167.407 299.195 167.803 298.714 167.967C298.231 168.132 297.698 168.066 297.289 167.736L285.974 159.045C285.542 158.716 285.315 158.19 285.364 157.63C288.172 128.759 270.883 116.644 262.899 112.628C270.172 127.672 266.688 138.108 265.249 141.268C268.139 144.923 271.353 149.4 274.99 155.029C289.305 177.152 285.581 193.875 282.86 206.089" fill="#856854"/>
<path d="M104.333 347.909C104.171 360.221 111.911 371.875 111.989 372.006L112.116 372.204C113.376 374.706 115.434 377.537 118.168 377.011C121.181 376.451 124.142 372.336 124.743 369.143C124.6 368.418 124.422 367.694 124.246 366.936C119.337 364.632 109.421 353.736 104.333 347.909" fill="#E7B38F"/>
<path d="M66.9293 157.959C66.8936 158.091 63.65 170.831 69.241 178.403C70.4846 172.345 73.8516 158.848 80.2673 151.836H80.2641C78.6342 150.322 77.2607 148.609 76.0919 147.194C75.5854 146.535 74.988 145.811 74.4165 145.153C71.5301 148.84 69.0105 152.823 66.9033 157.037L66.8839 157.07C66.9716 157.366 67.0072 157.63 66.9293 157.959" fill="#E7B38F"/>
<path d="M118.619 306.198C141.659 295.466 156.637 279.434 156.776 265.377C156.864 256.423 151.01 248.818 139.844 243.321C106.772 227.091 106.736 205.265 106.749 204.343C106.762 203.487 107.512 202.829 108.317 202.829C109.168 202.829 109.846 203.553 109.833 204.409C109.833 204.639 110.038 225.214 141.188 240.522C156.747 248.16 159.929 258.266 159.861 265.377C159.708 280.915 144.399 297.639 119.908 309.063C83.9107 325.819 84.0308 334.642 84.0471 334.741C84.2289 335.596 83.6997 336.419 82.8685 336.617L82.5373 336.65C81.8295 336.65 81.1899 336.156 81.034 335.399C80.6509 333.621 80.6736 323.909 118.619 306.198V306.198ZM70.2124 341.588C70.5565 343.267 75.0436 364.006 88.177 377.603C83.8523 369.01 76.6963 353.143 77.0761 343.003C77.1151 342.279 77.5859 341.621 78.2742 341.39C78.9593 341.193 79.7093 341.423 80.1541 341.983C80.3327 342.213 95.5766 361.768 105.963 369.439C102.986 363.546 98.9306 353.11 100.866 342.707C101.005 341.95 101.564 341.325 102.301 341.127C103.038 340.93 103.827 341.193 104.32 341.752C109.47 347.875 117.519 356.764 122.668 361.044C121.727 357.884 120.584 354.525 119.158 351.102C118.843 350.345 119.019 349.456 119.593 348.896C120.178 348.337 121.042 348.139 121.779 348.501C122.149 348.665 127.142 350.937 132.331 355.974C131.34 350.608 129.444 342.674 126.064 334.576C125.746 333.819 125.922 332.93 126.496 332.37C127.081 331.777 127.944 331.613 128.694 331.975C129.204 332.206 139.055 336.716 145.49 347.217C144.409 341.983 142.591 335.036 139.63 327.926C139.324 327.169 139.49 326.28 140.075 325.687C140.646 325.128 141.51 324.963 142.26 325.292C142.704 325.49 150.192 328.947 156.374 336.716C155.507 332.074 153.867 325.325 150.981 318.379C150.714 317.72 150.867 316.964 151.364 316.47C151.861 315.976 152.61 315.844 153.257 316.108C153.666 316.305 160.783 319.564 166.25 327.037C165.41 322.428 163.773 315.449 160.796 308.305C160.517 307.647 160.669 306.89 161.166 306.396C161.663 305.903 162.413 305.77 163.059 306.034C163.263 306.132 165.348 307.088 168.082 309.063C166.238 299.977 170.829 291.812 171.069 291.384C171.54 290.561 172.517 290.199 173.41 290.496C174.299 290.792 174.858 291.648 174.757 292.603C174.325 296.652 175.556 299.878 177.235 302.314C174.984 293.952 179.358 286.183 179.575 285.788C179.981 285.096 180.832 284.768 181.595 285.031C182.371 285.261 182.868 286.051 182.78 286.874C182.384 290.496 183.579 293.393 185.144 295.565C189.417 293.228 204.579 282.43 207.609 245.362C207.037 241.839 206.443 239.897 206.414 239.798L206.388 239.568H206.359C201.057 239.239 198.641 235.65 196.466 232.391C194.712 229.758 193.047 227.255 189.907 226.202C185.137 224.589 183.624 220.968 182.29 217.807C181.679 216.359 181.108 215.009 180.283 213.791H180.28C174.738 220.54 175.975 232.227 175.988 232.358C176.056 232.951 175.773 233.543 175.26 233.873L174.455 234.103C174.157 234.103 173.858 234.004 173.601 233.84C165.559 228.408 165.702 214.219 166.111 208.557C158.887 217.84 158.007 229.89 157.997 230.021C157.955 230.68 157.517 231.239 156.896 231.436L156.458 231.503C155.981 231.503 155.52 231.272 155.224 230.877C147.662 220.639 148.903 204.376 149.851 197.529C140.782 208.392 139.068 224.194 139.052 224.359C138.98 225.05 138.454 225.61 137.769 225.742H137.516C136.922 225.742 136.37 225.412 136.113 224.852C131.451 214.548 132.003 201.973 133.474 192.657C130.282 199.965 128.983 209.051 128.964 209.182C128.863 209.907 128.305 210.499 127.584 210.631H127.305C126.688 210.631 126.107 210.302 125.818 209.709C121.678 201.545 121.408 193.776 122.295 187.784C119.136 193.907 117.067 199.998 117.035 200.097C116.817 200.755 116.239 201.216 115.571 201.249H115.447C114.824 201.249 114.246 200.886 113.96 200.327C109.558 191.636 109.736 183.801 111.044 178.106C106.002 185.282 103.71 192.229 103.674 192.36C103.486 192.92 102.979 193.348 102.379 193.413L102.207 193.446C101.671 193.446 101.164 193.15 100.885 192.657C97.4695 186.896 97.3558 179.39 98.3039 172.773C96.1772 178.27 94.9857 183.406 94.9662 183.505C94.8266 184.097 94.3331 184.591 93.7162 184.69L93.4532 184.722C92.9304 184.722 92.4336 184.426 92.1447 183.966C87.8751 177.151 86.9076 171.127 87.1478 166.551C83.7322 174.024 83.3133 181.661 83.3068 181.793C83.2808 182.353 82.9399 182.879 82.4237 183.11L81.7678 183.274C81.4399 183.274 81.112 183.176 80.8392 182.945C76.8781 179.949 74.8781 175.9 73.8585 172.476C72.404 177.711 71.7351 181.859 71.7189 181.958C71.6312 182.517 71.2545 182.978 70.7351 183.175L70.1961 183.274C69.839 183.274 69.485 183.142 69.2058 182.912C64.2381 178.665 62.9264 172.246 62.855 166.847L62.8452 166.88C60.9783 172.575 60.303 177.085 60.0627 179.159C65.7317 181.365 91.1219 192.262 100.924 216.227C110.954 240.753 123.555 241.938 123.681 241.938C124.48 241.971 125.142 242.597 125.269 243.387C125.587 245.461 132.873 294.413 107.142 303.565C90.6642 309.457 76.6313 325.951 70.2091 341.555H70.2124V341.588" fill="#856854"/>
<path d="M182.41 305.54C183.261 306.824 185.449 309.721 187.394 308.437C188.754 307.548 189.504 305.079 188.641 303.236C187.089 302.38 182.498 299.384 180.361 294.084C179.777 297.442 179.904 301.656 182.41 305.54Z" fill="#E7B38F"/>
<path d="M191.348 300.997C193.433 304.322 192.456 309.293 189.277 311.367C188.449 311.894 187.468 312.256 186.387 312.256L185.777 312.19C186.225 315.482 184.9 319.004 182.218 320.782C181.303 321.375 180.199 321.77 178.991 321.77C179.715 323.251 180.348 324.831 180.871 326.51L180.923 327.333C180.884 327.498 180.147 331.35 176.828 333.424C175.455 334.312 173.89 334.708 172.137 334.708C171.578 334.708 170.994 334.674 170.383 334.609C170.624 335.234 170.854 335.892 171.069 336.584L171.12 337.44C171.082 337.571 170.345 341.423 167.026 343.53C165.653 344.386 164.088 344.814 162.322 344.814C161.99 344.814 161.649 344.781 161.305 344.748C161.903 346.098 162.435 347.513 162.896 348.994C162.984 349.324 163.01 349.62 162.945 349.949C162.906 350.147 162.055 354.624 158.201 357.027C156.627 358.015 154.795 358.509 152.773 358.509C151.578 358.509 150.318 358.344 148.984 357.982C148.451 359.529 147.204 362.064 144.636 363.677C143.11 364.632 141.37 365.126 139.425 365.159C140.594 367.266 141.623 369.603 142.412 372.203C142.516 372.5 142.529 372.829 142.477 373.158C142.451 373.29 142.058 375.265 140.698 377.306H140.694C153.091 370.458 166.663 360.287 178.367 345.11C185.579 334.773 191.147 324.897 195.417 315.614C195.673 315.021 195.923 314.429 196.17 313.803C196.952 311.861 197.771 309.984 198.615 308.207C206.453 288.685 208.586 272.225 208.673 260.308C203.56 285.986 192.176 295.137 187.293 297.968C189.033 299.548 190.611 300.339 190.647 300.371L191.348 300.997" fill="#A08368"/>
<path d="M155.546 225.379C156.513 220.408 158.909 212.113 164.692 205.397C163.88 204.146 163.614 202.829 163.384 201.743C162.942 199.603 162.773 198.78 158.656 199.175C156.289 199.372 154.448 198.846 152.948 197.825H152.945C152.182 203.356 151.123 216.096 155.546 225.379" fill="#E7B38F"/>
<path d="M165.221 340.568C166.77 339.58 167.432 337.901 167.649 337.144C165.13 329.408 159.717 324.437 155.938 321.738C159.016 330.527 160.198 338.231 160.568 341.161C162.448 341.523 164.013 341.325 165.221 340.568Z" fill="#E7B38F"/>
<path d="M107.603 374.607C99.5278 370.393 87.0177 355.909 80.9689 348.535C83.193 361.406 92.9951 379.447 94.19 381.62C99.2485 386.492 103.547 385.833 105.671 384.977C108.379 383.891 110.362 381.422 110.476 378.986C110.564 377.142 109.574 375.628 107.603 374.607Z" fill="#E7B38F"/>
<path d="M156.091 353.604C157.896 352.518 158.672 350.542 158.942 349.654C156.003 340.699 149.75 334.906 145.364 331.811C148.935 341.983 150.295 350.905 150.727 354.262C152.886 354.69 154.695 354.493 156.091 353.604Z" fill="#E7B38F"/>
<path d="M104.028 162.106C102.152 167.867 99.2165 179.324 102.087 187.883C103.993 183.373 108.022 175.439 114.681 169.019L114.912 168.69L115.668 168.097C117.522 166.419 119.574 164.904 121.824 163.588L121.811 163.555C120.438 162.172 118.62 161.777 115.749 162.6C109.759 164.345 106.606 162.896 104.457 160.822C104.327 161.217 104.184 161.613 104.041 162.073L104.028 162.106" fill="#E7B38F"/>
<path d="M180.072 317.391C181.621 316.37 182.484 313.539 181.481 311.432C179.715 310.412 174.426 307.021 171.971 300.898C171.309 304.782 171.452 309.622 174.335 314.033C175.315 315.548 177.832 318.872 180.072 317.391" fill="#E7B38F"/>
<path d="M92.94 178.996C94.3296 174.189 97.1413 165.893 101.167 160.856C101.563 159.671 101.914 158.717 102.154 158.091C100.807 156.347 99.6641 154.898 97.427 154.668H97.4205C95.5016 155.721 93.8393 157.07 92.4042 158.552L92.2678 158.947C92.0438 159.309 87.3521 167.441 92.94 178.996" fill="#E7B38F"/>
<path d="M133.59 363.48C130.769 359.628 127.499 356.83 124.892 354.987C126.09 358.444 127.041 361.703 127.791 364.698C128.58 365.752 128.925 367.167 128.772 368.912C129.597 372.764 130.042 375.792 130.246 377.471C132.418 377.899 134.223 377.669 135.61 376.813C137.415 375.693 138.191 373.718 138.457 372.862C137.366 369.472 135.788 366.575 134.022 364.073L133.983 364.007L133.59 363.48Z" fill="#E7B38F"/>
<path d="M175.023 330.494C176.572 329.506 177.234 327.827 177.465 327.07C176.458 324.009 174.997 321.375 173.371 319.169C172.643 318.445 171.906 317.589 171.182 316.503C169.315 314.429 167.38 312.849 165.74 311.664C168.818 320.454 170 328.157 170.37 331.087C172.25 331.449 173.815 331.251 175.023 330.494Z" fill="#E7B38F"/>
<path d="M138.669 185.086L138.055 185.613C136.315 192.888 133.977 206.418 137.019 218.105C138.484 211.619 141.87 201.184 149.26 193.579C148.575 192.394 147.964 191.176 147.38 189.991C145.308 185.777 143.477 182.057 139.139 181.498C139.052 181.794 138.948 182.156 138.834 182.584L138.984 182.715C139.545 183.44 139.402 184.526 138.669 185.086Z" fill="#E7B38F"/>
<path d="M126.714 203.026C128.038 197.134 130.71 188.212 135.363 183.537C135.564 182.747 135.753 182.056 135.918 181.464C132.691 181.431 130.519 180.015 128.931 178.04L128.727 178.237C128.493 178.665 122.642 189.825 126.714 203.026" fill="#E7B38F"/>
<path d="M301.091 156.049C299.578 158.518 298.332 161.152 297.39 163.884L297.442 163.95C298.104 162.106 299.286 159.275 301.091 156.049" fill="#A08368"/>
<path d="M67.7575 105.451L67.5821 105.056C66.5204 106.01 65.4619 106.965 64.4294 107.953C65.5106 107.064 66.6211 106.241 67.7542 105.451H67.7575Z" fill="#A08368"/>
<path d="M49.8902 160.395C48.0103 164.806 47.1044 168.987 46.6888 172.279L46.6758 172.312L46.6726 172.344L46.679 172.312L46.692 172.279C47.1109 168.987 48.0135 164.806 49.8967 160.395V160.361L49.8999 160.329L49.8902 160.361V160.395" fill="#A08368"/>
<path d="M240.535 211.124C240.535 210.236 241.226 209.544 242.077 209.544C242.928 209.544 243.619 210.236 243.619 211.124C243.619 211.98 242.928 212.671 242.077 212.671C241.226 212.671 240.535 211.98 240.535 211.124ZM246.853 211.124C246.853 208.458 244.72 206.252 242.087 206.252C239.457 206.252 237.307 208.458 237.307 211.124C237.307 213.758 239.366 215.865 241.947 215.963H241.973L242.798 215.898H242.863C245.126 215.503 246.853 213.528 246.853 211.124Z" fill="#A08368"/>
<path d="M144.594 101.928H144.607L144.623 101.961L144.613 101.928H144.6C141.827 100.874 138.866 99.821 135.775 98.8663H135.778C138.866 99.821 141.824 100.874 144.594 101.928" fill="#A08368"/>
<path d="M164.591 111.475C165.179 111.804 165.698 112.1 166.169 112.397H166.176C164.763 108.677 163.338 105.056 161.89 101.533C163.211 104.924 164.471 108.347 165.666 111.771C165.309 111.672 164.955 111.541 164.598 111.475L164.559 111.442H164.549H164.555L164.591 111.475" fill="#A08368"/>
<path d="M103.382 452.76L103.648 452.793L103.609 452.563L103.444 452.727L103.382 452.76" fill="#A08368"/>
<path d="M191.336 56.7285C179.423 43.7908 166.416 31.6763 151.874 21.8002C165.78 31.808 179.267 44.2188 191.336 56.7285Z" fill="#A08368"/>
<path d="M50.0264 160.066H50.0232C50.2115 159.67 50.3998 159.242 50.6011 158.814H50.6044C50.4031 159.242 50.2115 159.67 50.0264 160.066Z" fill="#A08368"/>
<path d="M54.4486 357.159C52.6401 365.06 52.2602 371.776 52.666 377.34C52.7797 378.986 52.9582 380.533 53.2017 381.981C54.6239 390.639 57.8934 395.907 59.5558 398.112C59.9779 398.672 60.2961 399.034 60.4487 399.232C61.0461 399.594 61.6305 399.923 62.202 400.219L62.2799 400.153L62.215 400.219C63.4975 400.878 64.7053 401.306 65.8514 401.536C66.6274 401.701 67.3775 401.766 68.0885 401.733H68.095C68.9457 401.701 69.7476 401.536 70.5074 401.207L71.3353 400.779L71.7996 400.515H71.8126C73.7445 399.231 75.0562 397.19 75.9068 395.412C76.3159 394.556 76.6179 393.767 76.8095 393.174C72.2087 389.619 68.4197 385.273 65.3157 380.73C59.5818 372.27 56.2246 363.151 54.4486 357.159" fill="#E7B38F"/>
<path d="M47.1107 398.243C47.7601 398.968 48.4322 399.659 49.1335 400.351L49.2342 400.021C48.6887 399.626 47.9646 399.034 47.1107 398.243Z" fill="#A08368"/>
<path d="M52.0787 144.856C45.6694 147.226 42.6304 148.544 41.2602 149.202L41.218 149.498C41.1953 149.629 38.2959 161.876 43.4064 173.53C44.0168 166.353 46.7766 154.107 57.7216 144.099C56.1826 143.869 54.3515 144 52.0787 144.856" fill="#E7B38F"/>
<path d="M62.4393 145.943C62.0205 145.713 61.5854 145.482 61.1309 145.219C58.6113 147.358 56.5268 149.63 54.7995 151.934C54.2508 154.272 51.2508 168.427 57.2639 176.822C57.9003 172.575 59.5659 164.971 63.8388 156.247C65.631 152.593 67.7155 149.103 70.0662 145.811C67.2187 148.643 64.7024 147.227 62.4393 145.943Z" fill="#E7B38F"/>
<path d="M130.366 97.3194H130.372C77.8776 36.9106 23.5029 29.1418 7.1908 28.253C48.062 58.2763 66.5592 95.3772 70.3613 103.706C74.4815 101.138 78.855 99.0312 83.5044 97.484C99.4107 92.1509 116.051 93.6323 130.366 97.3194Z" fill="#A08368"/>
<path d="M166.176 112.397C167.546 113.22 168.38 113.779 168.611 113.911C169.322 114.372 169.526 115.359 169.069 116.083C168.776 116.511 168.309 116.775 167.815 116.775C174.513 135.079 180.705 155.852 185.803 179.159C185.994 180.015 186.809 180.542 187.647 180.344C188.485 180.18 189.007 179.324 188.816 178.501C165.029 69.5018 117.226 16.3022 104.22 3.46327C158.851 10.2448 228.19 103.574 236.392 117.105C239.811 122.734 243.002 125.005 246.704 127.639C250.668 130.503 255.308 133.795 262.11 142.289C261.831 141.795 261.805 141.169 262.11 140.675C262.175 140.544 262.581 139.819 263.038 138.535L262.594 138.009C257.967 132.577 254.317 129.45 251.265 127.145L251.239 127.112C250.262 126.388 249.347 125.729 248.483 125.104C244.781 122.437 242.113 120.528 239.022 115.458C237.765 113.352 235.236 109.631 231.674 104.726L231.599 104.628C223.132 93.0067 208.816 74.9007 191.602 57.025L191.335 56.7286C179.267 44.2189 165.779 31.808 151.873 21.8003L151.669 21.6684C134.415 9.29042 116.541 0.599202 99.9499 0.00663713C99.3265 -0.0592035 98.6901 0.368632 98.4628 1.02704C98.2193 1.6196 98.4109 2.34411 98.9174 2.77207C99.044 2.87083 101.551 5.04383 105.723 9.45515C112.879 17.0597 124.931 31.4127 138.052 53.4693L138.457 54.1605C146.048 66.9994 153.993 82.4393 161.533 100.677L161.89 101.533C163.338 105.055 164.763 108.677 166.176 112.397" fill="#181410"/>
<path d="M279.847 205.397C278.308 212.31 277.088 217.742 279.555 222.318C285.442 233.281 285.529 240.227 283.497 252.605C282.438 259.057 285.912 263.864 288.987 268.077C292.711 273.213 294.494 276.077 291.059 279.994C286.458 285.229 283.497 291.286 281.322 295.73C280.419 297.574 279.403 299.615 278.831 300.307C278.269 300.307 277.737 300.635 277.471 301.195C277.088 301.952 277.393 302.907 278.156 303.269C278.448 303.434 278.779 303.5 279.097 303.5L279.783 303.4C281.247 302.907 282.198 300.965 284.081 297.113C286.179 292.833 289.039 287.007 293.374 282.069C298.624 276.077 294.822 270.843 291.468 266.234C288.633 262.316 285.695 258.267 286.546 253.131C287.296 248.523 287.766 244.605 287.779 240.918C287.247 240.918 286.724 240.885 286.192 240.885C285.338 240.852 284.666 240.161 284.679 239.305C284.692 238.416 285.416 237.758 286.24 237.758C286.711 237.758 287.195 237.758 287.666 237.791C287.26 232.326 285.669 227.157 282.263 220.837C280.354 217.281 281.461 212.343 282.861 206.088C285.581 193.875 289.305 177.151 274.99 155.029C271.354 149.4 268.139 144.922 265.25 141.268C264.996 141.861 264.808 142.19 264.756 142.256C264.324 143.013 263.383 143.244 262.646 142.816L262.328 142.552C265.25 146.206 268.581 150.815 272.422 156.741C286 177.744 282.438 193.71 279.847 205.397" fill="#181410"/>
<path d="M38.4613 148.247V148.214C38.8184 147.72 39.4645 147.424 40.1009 147.588C40.8379 147.786 41.3217 148.477 41.26 149.202C42.6302 148.543 45.6692 147.226 52.0785 144.856C54.3513 144 56.1825 143.869 57.7215 144.099C58.2312 143.605 58.7637 143.144 59.3125 142.683C59.9716 142.124 60.9521 142.255 61.4846 142.913C62.0333 143.572 61.9294 144.56 61.2833 145.087L61.1306 145.218C61.5852 145.481 62.0203 145.712 62.4391 145.942C64.7022 147.226 67.2185 148.642 70.0659 145.811L70.0919 145.778C71.1861 144.198 72.368 142.716 73.6018 141.235L74.1505 140.807C73.5141 140.478 72.8648 140.28 72.1537 140.313C70.9199 140.346 69.7867 141.07 68.8062 142.486C67.0529 144.955 66.4555 144.625 63.9262 143.21C61.319 141.761 57.3773 139.556 51.033 141.893C47.2959 143.276 44.2828 144.461 42.0977 145.416C49.0622 128.133 58.5689 115.393 70.4653 107.393L70.264 107.458L69.6796 107.59C69.0692 107.59 68.4945 107.228 68.2543 106.635C68.2413 106.57 68.0757 106.175 67.7575 105.45H67.7542C66.6211 106.241 65.5107 107.063 64.4295 107.952L64.397 107.985L64.371 108.018C59.1078 112.265 54.3383 117.466 50.1076 123.622L50.0687 123.688C46.3186 129.153 42.9614 135.375 40.0392 142.321L40.0133 142.354L39.9743 142.486C39.1983 144.296 38.4742 146.14 37.7729 148.049C37.5716 148.576 37.6853 149.201 38.0424 149.596C38.1431 149.103 38.208 148.806 38.2339 148.741L38.4613 148.247" fill="#181410"/>
<path d="M144.594 101.928C141.824 100.874 138.866 99.8213 135.779 98.8666L136.181 99.3276C136.73 99.986 136.642 101.006 135.993 101.533C135.344 102.093 134.376 102.027 133.818 101.368C132.675 99.9858 131.529 98.6358 130.373 97.319H130.366C116.051 93.6319 99.4109 92.1505 83.5046 97.4836C78.8552 99.0308 74.4817 101.138 70.3615 103.706L70.3647 103.738C70.8485 104.792 71.0887 105.385 71.1147 105.451C71.3809 106.109 71.1666 106.833 70.6504 107.261C74.9459 104.364 79.5435 102.126 84.4592 100.48C122.434 87.7397 166.487 116.248 166.932 116.545L167.809 116.775H167.815C168.309 116.775 168.776 116.512 169.069 116.084C169.526 115.359 169.322 114.372 168.611 113.911C168.38 113.779 167.546 113.22 166.176 112.397H166.169C165.698 112.1 165.179 111.804 164.591 111.475L164.555 111.442H164.549C160.406 109.072 153.396 105.352 144.623 101.961L144.607 101.928H144.594" fill="#181410"/>
<path d="M74.4167 145.152C74.9882 145.81 75.5856 146.534 76.0921 147.192C77.2609 148.608 78.6344 150.32 80.2643 151.835H80.2676C80.6702 151.407 81.0857 150.979 81.5143 150.584C82.1474 150.024 83.1247 150.057 83.6897 150.715C84.2578 151.341 84.2027 152.328 83.5663 152.921C83.2708 153.184 82.9819 153.48 82.6962 153.777C84.9462 155.258 87.5892 156.18 90.7256 155.818H90.7288C92.3425 154.238 94.1932 152.822 96.3361 151.703L96.8946 151.538C95.5861 151.505 94.0568 151.735 92.2386 152.295C88.6801 153.414 85.8813 152.394 83.5176 150.551L83.4916 150.518L83.404 150.452H83.378C81.5597 148.97 79.9688 147.028 78.4818 145.184C77.709 144.23 76.985 143.308 76.2837 142.584L75.9525 143.242C75.433 143.9 74.9103 144.526 74.4167 145.152Z" fill="#181410"/>
<path d="M130.22 176.889C129.785 177.218 129.353 177.613 128.931 178.041C130.519 180.016 132.691 181.432 135.918 181.465C136.266 180.247 136.516 179.489 136.571 179.325C136.772 178.732 137.308 178.337 137.899 178.271H137.779H137.753C137.438 178.271 137.129 178.304 136.801 178.337C133.967 178.535 132.223 177.481 130.863 175.407L130.84 175.374C130.899 175.934 130.701 176.526 130.22 176.889" fill="#181410"/>
<path d="M98.4145 152.395C98.8073 153.153 98.5119 154.107 97.7553 154.503L97.4209 154.667H97.4274C99.6645 154.898 100.807 156.346 102.155 158.091C102.34 157.63 102.463 157.333 102.499 157.235C102.83 156.444 103.736 156.049 104.522 156.411C105.308 156.741 105.671 157.663 105.34 158.453C105.324 158.486 104.967 159.374 104.457 160.823C106.606 162.897 109.759 164.346 115.749 162.601C118.62 161.778 120.438 162.173 121.811 163.556L121.824 163.588C122.363 163.259 122.899 162.93 123.464 162.666C124.214 162.271 125.123 162.568 125.516 163.325L125.461 163.226L125.357 163.062C123.376 160.033 120.363 158.025 114.895 159.605C109.087 161.284 107.191 159.506 105.22 157.004L105.08 156.807L104.736 156.379C103.135 154.239 101.229 151.77 97.2748 151.54H97.2488H96.9956H96.9891C97.5671 151.54 98.132 151.836 98.4145 152.395" fill="#181410"/>
<path d="M139.493 180.344C139.483 180.377 139.35 180.772 139.139 181.496C143.477 182.056 145.308 185.776 147.38 189.99C147.964 191.175 148.575 192.393 149.26 193.578C149.558 193.249 149.851 192.953 150.162 192.657C150.782 192.064 151.756 192.097 152.344 192.722L152.685 193.381C153.224 193.71 153.532 194.335 153.396 194.994C153.386 195.06 153.178 196.113 152.945 197.825H152.948C154.448 198.845 156.289 199.372 158.656 199.174C162.773 198.779 162.942 199.603 163.383 201.742C163.614 202.829 163.88 204.146 164.692 205.396C164.984 205.067 165.276 204.705 165.585 204.376C166.172 203.751 167.15 203.751 167.767 204.343L168.124 204.87L168.65 205.034L168.611 205.002C168.28 204.804 168 204.574 167.77 204.343C166.87 203.389 166.64 202.269 166.413 201.117C165.763 197.989 164.721 195.454 158.377 196.047C156.01 196.277 154.435 195.389 153.088 193.71C152.071 192.426 151.169 190.681 150.149 188.607C147.912 184.064 145.178 178.467 138.276 178.303L138.149 178.27H137.954L138.526 178.369C139.334 178.632 139.763 179.521 139.493 180.344" fill="#181410"/>
<path d="M181.403 212.573C181.001 212.968 180.627 213.363 180.28 213.791H180.283C181.108 215.009 181.679 216.359 182.29 217.807C183.624 220.968 185.137 224.589 189.907 226.202C193.046 227.255 194.712 229.758 196.465 232.391C198.641 235.65 201.056 239.239 206.358 239.568H206.388C206.271 238.811 206.673 238.053 207.401 237.823C208.212 237.56 209.083 238.021 209.349 238.811C209.355 238.844 209.414 239.041 209.505 239.37C210.404 239.238 211.381 239.041 212.42 238.712C219.985 236.539 230.525 239.008 238.051 244.769C243.467 248.917 246.444 254.02 246.444 259.122C246.444 259.978 247.142 260.703 247.993 260.703C248.847 260.703 249.532 259.978 249.532 259.122C249.532 252.999 246.113 247.041 239.908 242.267C231.531 235.881 220.138 233.247 211.57 235.716C203.904 237.955 201.858 234.893 199.021 230.646C197.141 227.815 195.017 224.622 190.884 223.239C187.439 222.087 186.423 219.651 185.124 216.557C184.286 214.581 183.345 212.343 181.527 210.434L181.501 210.4C182.053 211.026 182.017 212.014 181.403 212.573" fill="#181410"/>
<path d="M124.86 165.432C124.415 165.662 123.983 165.893 123.554 166.156C124.139 167.341 124.684 168.79 125.269 170.436C125.804 171.95 126.389 173.563 127.126 175.078C127.476 174.781 127.83 174.452 128.188 174.188C128.778 173.728 129.561 173.761 130.142 174.156L130.126 174.123C129.441 172.806 128.83 171.193 128.168 169.349C127.457 167.374 126.684 165.234 125.554 163.391C125.892 164.148 125.597 165.07 124.86 165.432" fill="#181410"/>
<path d="M169.397 206.581C169.393 206.647 169.293 207.437 169.202 208.721C170.166 209.083 171.322 209.38 172.679 209.577C175.108 209.939 176.825 210.63 178.108 211.552H178.114C178.488 211.124 178.874 210.697 179.299 210.302C179.91 209.709 180.851 209.742 181.436 210.334L181.364 210.269L181.235 210.137C179.494 208.458 177.001 207.076 173.15 206.483C171.02 206.154 169.611 205.66 168.66 205.034C169.176 205.364 169.484 205.956 169.397 206.581" fill="#181410"/>
<path d="M67.7574 105.451C68.0756 106.175 68.2412 106.57 68.2542 106.636C68.4945 107.228 69.0691 107.591 69.6795 107.591L70.264 107.459L70.4652 107.393L70.4782 107.36L70.6438 107.261H70.6503C71.1666 106.833 71.3808 106.109 71.1146 105.451C71.0886 105.385 70.8484 104.792 70.3646 103.739L70.3614 103.706C66.5593 95.3769 48.0621 58.276 7.19093 28.2527C23.503 29.1415 77.8778 36.9103 130.373 97.3191C131.528 98.6359 132.675 99.9859 133.818 101.369C134.376 102.027 135.344 102.093 135.993 101.533C136.642 101.006 136.73 99.9861 136.181 99.3277L135.779 98.8667H135.775C131.746 94.0603 127.717 89.583 123.684 85.4022L123.635 85.3694C116.59 78.0611 109.586 71.6412 102.706 66.0448L102.658 65.9792C80.7383 48.1364 60.2442 38.3259 44.8477 32.9599C43.4126 32.4661 41.9873 31.9727 40.6138 31.5447H40.6008C17.8438 24.2693 2.77848 24.9933 2.11612 25.0262C1.51871 25.0591 0.986217 25.4543 0.768679 25.981L0.707009 26.1456L0.694009 26.2112C0.541407 26.8367 0.794675 27.5285 1.31742 27.8907C13.0028 36.022 22.9316 44.7787 31.2824 53.4367L32.0325 54.2269C53.5428 76.6785 64.3255 98.0104 67.3516 104.562L67.4002 104.661L67.5821 105.055L67.7574 105.451Z" fill="#181410"/>
<path d="M198.267 316.799C193.894 326.346 188.186 336.485 180.773 347.086C187.351 338.592 193.358 328.584 198.267 316.799Z" fill="#181410"/>
<path d="M195.417 315.614C196.576 313.112 197.641 310.643 198.615 308.207C197.771 309.985 196.953 311.861 196.17 313.804C195.923 314.429 195.673 315.022 195.417 315.614" fill="#181410"/>
<path d="M178.335 347.877C177.64 347.383 177.478 346.395 177.975 345.703L178.367 345.111C166.663 360.288 153.091 370.46 140.694 377.307H140.685C139.983 378.36 139.029 379.414 137.733 380.204C136.146 381.192 134.327 381.718 132.292 381.718L131.977 381.686H131.967C121.096 386.657 111.879 388.994 106.794 390.015C94.4464 392.517 89.1216 398.376 85.5858 402.261C82.9559 405.158 81.7968 406.277 79.7513 405.685C77.7804 405.125 76.1018 403.973 74.5888 402.787H74.5856C73.7706 403.446 72.8679 404.038 71.8387 404.466L71.7511 404.5H71.7413C73.6992 406.113 75.9362 407.857 78.9005 408.713C82.8682 409.865 85.1799 407.331 87.8488 404.368C91.31 400.582 96.0373 395.413 107.392 393.076C119.48 390.64 154.178 380.961 180.215 347.811C179.936 348.041 179.585 348.173 179.228 348.173C178.919 348.173 178.604 348.074 178.335 347.877" fill="#181410"/>
<path d="M201.306 309.754C210.586 290.067 224.878 278.052 243.807 273.969C259.217 270.677 272.136 274.134 272.263 274.2C273.087 274.43 273.938 273.936 274.155 273.08C274.383 272.257 273.899 271.402 273.087 271.171C272.616 271.04 232.002 260.307 206.394 295.104C205.037 299.779 203.355 304.684 201.297 309.786L201.306 309.754" fill="#181410"/>
<path d="M68.0951 401.733H68.1016C68.9523 401.7 69.7542 401.536 70.5172 401.207L71.3354 400.778L70.5075 401.207C69.7477 401.536 68.9458 401.7 68.0951 401.733Z" fill="#181410"/>
<path d="M170.13 397.815L170.484 397.157C163.594 402.194 157.922 408.152 153.536 415.066C137.467 440.348 141.941 471.985 149.201 495.292C141.295 490.716 120.963 476.165 112.19 443.805C112.077 443.377 111.785 443.015 111.392 442.817C111.226 442.718 107.424 440.842 104.333 442.784C102.619 443.871 101.551 445.813 101.132 448.578C100.255 447.294 99.4401 444.826 99.8979 440.217C99.9758 439.427 99.479 438.702 98.729 438.537C97.992 438.34 96.7452 438.439 95.69 439.36C94.19 440.677 93.4919 443.146 93.5666 446.899C92.4464 445.846 91.099 443.574 90.6444 438.867C90.5795 438.241 90.1833 437.747 89.6249 437.517C89.0534 437.32 88.43 437.484 88.0112 437.912C87.8456 438.077 84.2871 441.764 85.0241 447.459C83.102 446.834 80.3714 445.122 79.2902 440.711L78.8844 439.986C78.1961 439.295 76.9135 438.637 75.5531 439.097C73.7349 439.756 72.6537 441.961 72.1439 446.109C71.8907 448.216 69.5887 450.06 66.6892 452.397C60.9943 457.006 52.6921 463.722 53.124 479.326C47.6952 470.108 38.3768 445.945 51.9161 401.766C54.1045 403.017 57.9423 404.663 61.6047 403.774C60.5755 403.313 59.5203 402.753 58.4391 402.062L58.1468 401.831L58.0689 401.766C57.5234 401.832 56.952 401.865 56.3545 401.865C54.6013 401.865 52.6791 401.536 50.5817 400.877L50.2895 400.745C50.1888 400.679 49.8187 400.449 49.2343 400.021L49.1336 400.35C48.8901 401.107 48.6628 401.897 48.4453 402.654L48.4323 402.688C44.1497 417.041 42.2535 429.287 41.8217 439.624V439.69C40.7405 465.532 48.8901 479.326 52.4908 484.099H52.5038C53.3026 485.186 53.874 485.779 54.0526 485.976L54.0785 486.009C54.5493 486.47 55.2604 486.601 55.8578 486.272C56.4552 485.976 56.7864 485.318 56.6857 484.659C56.2019 481.367 56.0754 478.437 56.2377 475.836L56.2507 475.804V475.771C56.8124 466.882 60.7281 461.813 64.91 457.994L64.923 457.96C66.1568 456.841 67.4133 455.821 68.6081 454.866C71.8906 452.2 74.7251 449.928 75.1829 446.603H75.1959L75.2089 446.505C75.6278 443.147 76.3258 442.258 76.4654 442.126C76.7479 443.081 77.1019 443.937 77.511 444.727C77.6863 445.089 77.8908 445.418 78.0953 445.747C78.6895 446.669 79.3649 447.459 80.0662 448.084C82.4689 450.29 85.3033 450.982 87.0436 450.982C87.5404 450.982 88.0112 450.751 88.3035 450.356C88.5827 449.928 88.6736 449.402 88.5047 448.941C88.3424 448.447 88.2255 447.953 88.1509 447.492C87.8814 445.978 88.0372 444.628 88.3554 443.509C88.5956 444.398 88.8749 445.155 89.1931 445.846V445.879L89.3457 446.208C89.5859 446.702 89.8424 447.163 90.1086 447.558C92.3197 450.916 95.0926 450.982 95.2712 450.982C95.703 450.982 96.1218 450.817 96.414 450.488C96.7063 450.159 96.8459 449.731 96.8102 449.27C96.7452 448.612 96.6933 447.986 96.6706 447.426C96.6186 446.208 96.6575 445.22 96.7582 444.463C96.8198 445.22 96.9238 445.912 97.0764 446.537V446.57C98.2842 452.167 101.969 453.023 102.174 453.056C102.593 453.122 103.025 453.023 103.369 452.759H103.382L103.443 452.727L103.609 452.562C103.878 452.299 104.018 451.903 104.018 451.508C104.018 450.619 104.067 449.83 104.171 449.105L104.184 449.072C104.45 447.261 105.047 446.01 105.95 445.451C106.752 444.957 107.807 444.99 108.671 445.155L109.116 445.286L109.421 445.385C112.7 457.171 117.418 466.619 122.489 474.125L122.59 474.256C135.318 492.988 150.37 499.506 151.25 499.901L151.834 500C152.227 500 152.597 499.868 152.886 499.572C153.334 499.177 153.497 498.518 153.295 497.959C151.974 494.008 150.714 489.762 149.607 485.35L149.594 485.251C144.535 464.907 142.844 440.348 154.325 419.773L154.351 419.74C154.909 418.72 155.506 417.732 156.13 416.744C159.36 411.675 163.312 407.099 167.991 403.05H168.017H168.029C169.276 401.963 170.559 400.91 171.919 399.922C171.5 399.791 171.26 399.758 171.234 399.725C170.406 399.527 169.913 398.671 170.13 397.815Z" fill="#181410"/>
<path d="M171.997 396.696C172.059 396.729 173.179 397.025 175.072 397.716C188.384 388.861 206.118 383.331 228.09 381.125C271.912 376.747 292.332 346.394 301.767 321.737C311.91 295.17 311.77 269.262 311.757 269.031C311.757 268.143 311.059 267.484 310.222 267.484H310.209C309.355 267.484 308.666 268.175 308.679 269.031C308.679 269.295 308.819 294.577 298.877 320.617C285.63 355.282 261.717 374.607 227.798 377.998C203.92 380.401 184.913 386.721 170.903 396.828C171.221 396.663 171.618 396.597 171.997 396.696" fill="#181410"/>
<path d="M198.615 308.207C197.641 310.643 196.576 313.112 195.417 315.614C191.147 324.898 185.579 334.774 178.367 345.111L177.975 345.703C177.478 346.394 177.64 347.382 178.335 347.876C178.604 348.074 178.919 348.172 179.228 348.172C179.585 348.172 179.936 348.04 180.215 347.81L180.484 347.513L180.773 347.086C188.186 336.486 193.894 326.346 198.267 316.799C199.355 314.429 200.368 312.058 201.297 309.787C203.355 304.684 205.037 299.779 206.394 295.105C213.122 271.962 212.076 254.316 210.709 245.362C210.268 250.893 209.563 255.864 208.673 260.308C208.586 272.225 206.453 288.685 198.615 308.207" fill="#181410"/>
<path d="M207.401 237.824C206.673 238.054 206.271 238.812 206.388 239.569L206.414 239.799C206.443 239.898 207.037 241.84 207.609 245.363L207.635 245.099C207.703 244.243 208.437 243.585 209.297 243.651C209.907 243.716 210.394 244.112 210.602 244.672C210.174 242.005 209.732 240.227 209.505 239.371C209.414 239.042 209.355 238.844 209.349 238.812C209.083 238.021 208.212 237.561 207.401 237.824" fill="#181410"/>
<path d="M51.9002 150.782C52.1275 149.926 52.9684 149.432 53.7931 149.663C54.6211 149.893 55.1048 150.749 54.8743 151.572L54.7996 151.934C56.5269 149.63 58.6114 147.358 61.1309 145.218L61.2836 145.087C61.9297 144.56 62.0336 143.572 61.4849 142.914C60.9524 142.255 59.9719 142.124 59.3127 142.684C58.764 143.145 58.2315 143.606 57.7218 144.1C46.7767 154.107 44.0169 166.353 43.4065 173.53C38.296 161.876 41.1954 149.63 41.2181 149.498L41.2603 149.202C41.322 148.478 40.8382 147.786 40.1012 147.589C39.4648 147.424 38.8187 147.721 38.4616 148.215V148.247L38.2342 148.741C38.2083 148.807 38.1434 149.103 38.0427 149.597C37.3187 153.317 35.1692 167.868 43.598 180.246C43.9032 180.674 44.3741 180.904 44.8676 180.904L45.4033 180.838C46.0656 180.575 46.4715 179.917 46.4066 179.192C46.3936 179.127 46.1663 176.427 46.6728 172.345L46.676 172.312L46.689 172.279C47.1046 168.987 48.0105 164.806 49.8904 160.395V160.362L49.9002 160.329L50.017 160.099V160.066H50.0268C50.2118 159.671 50.4034 159.243 50.6047 158.815C50.9586 154.37 51.8125 151.111 51.9002 150.782" fill="#181410"/>
<path d="M167.825 206.549C167.218 207.207 166.646 207.865 166.111 208.557C165.702 214.219 165.559 228.408 173.601 233.84C173.858 234.004 174.156 234.103 174.455 234.103L175.26 233.872C175.773 233.543 176.056 232.951 175.988 232.358C175.975 232.226 174.738 220.54 180.28 213.791C180.627 213.363 181.001 212.968 181.403 212.573C182.017 212.014 182.053 211.025 181.501 210.4L181.481 210.367L181.436 210.334C180.851 209.742 179.91 209.709 179.299 210.302C178.874 210.697 178.488 211.124 178.114 211.552C173.705 216.721 172.838 224.161 172.77 228.704C168.715 223.075 168.896 213.1 169.202 208.721C169.293 207.437 169.393 206.647 169.397 206.581C169.484 205.956 169.176 205.364 168.659 205.034H168.65L168.124 204.87C168.354 205.396 168.26 206.088 167.825 206.549" fill="#181410"/>
<path d="M152.279 194.928C151.412 195.751 150.611 196.64 149.851 197.529C148.903 204.377 147.662 220.64 155.224 230.878C155.52 231.273 155.981 231.503 156.458 231.503L156.896 231.437C157.517 231.24 157.955 230.68 157.997 230.022C158.007 229.89 158.887 217.841 166.111 208.558C166.647 207.866 167.218 207.208 167.825 206.55C168.26 206.089 168.355 205.397 168.124 204.871L167.767 204.344C167.15 203.752 166.173 203.751 165.585 204.377C165.277 204.706 164.984 205.068 164.692 205.397C158.91 212.113 156.513 220.409 155.546 225.38C151.124 216.096 152.182 203.356 152.945 197.826C153.179 196.114 153.387 195.061 153.396 194.995C153.533 194.336 153.224 193.711 152.685 193.381C152.838 193.908 152.711 194.533 152.279 194.928" fill="#181410"/>
<path d="M138.055 185.612C136.22 187.258 134.707 189.826 133.474 192.657C132.003 201.974 131.451 214.549 136.113 224.853C136.37 225.413 136.922 225.742 137.516 225.742H137.769C138.454 225.611 138.98 225.05 139.052 224.359C139.068 224.195 140.782 208.393 149.851 197.529C150.61 196.64 151.412 195.751 152.279 194.928C152.711 194.533 152.838 193.908 152.685 193.381L152.344 192.723C151.757 192.097 150.783 192.065 150.162 192.657C149.851 192.954 149.558 193.249 149.26 193.579C141.87 201.183 138.483 211.619 137.019 218.104C133.977 206.418 136.315 192.888 138.055 185.612" fill="#181410"/>
<path d="M136.571 179.325C136.516 179.49 136.266 180.247 135.918 181.465C135.753 182.057 135.565 182.748 135.363 183.538C135.772 183.11 136.194 182.715 136.636 182.386C137.318 181.859 138.253 181.958 138.834 182.584C138.948 182.156 139.052 181.794 139.139 181.498C139.35 180.773 139.484 180.378 139.493 180.345C139.763 179.522 139.334 178.633 138.526 178.37L137.954 178.271H137.899C137.308 178.337 136.772 178.732 136.571 179.325" fill="#181410"/>
<path d="M56.7932 179.851L57.1633 179.225C57.6081 178.731 58.3062 178.534 58.9686 178.764C59.0822 178.797 59.4654 178.929 60.0628 179.159C60.303 177.085 60.9783 172.575 62.8453 166.88L62.855 166.847C62.7901 161.679 63.8583 157.498 63.9492 157.136C64.17 156.313 65.0141 155.819 65.8356 156.049C66.3648 156.181 66.7285 156.576 66.8844 157.069L66.9038 157.037C69.011 152.823 71.5306 148.84 74.417 145.153C74.9105 144.527 75.4333 143.901 75.9528 143.243L76.284 142.584C76.4106 142.025 76.2352 141.432 75.7872 141.07C75.3164 140.642 74.6832 140.577 74.1508 140.807L73.6021 141.235C72.3683 142.716 71.1864 144.198 70.0922 145.778L70.0662 145.811C67.7155 149.103 65.6311 152.592 63.8388 156.246C59.566 164.97 57.9003 172.575 57.264 176.822C51.2508 168.427 54.2509 154.271 54.7996 151.934L54.8743 151.572C55.1048 150.749 54.6211 149.893 53.7931 149.662C52.9684 149.432 52.1275 149.926 51.9002 150.782C51.8125 151.111 50.9586 154.37 50.6047 158.814H50.6014C50.3482 162.074 50.3482 165.925 51.0852 169.711H51.0982C51.9002 173.859 53.6015 177.941 56.8321 181.036C56.6795 180.641 56.6536 180.246 56.7932 179.851" fill="#181410"/>
<path d="M69.2058 182.912C69.4851 183.142 69.839 183.274 70.1961 183.274L70.7351 183.175C71.2546 182.978 71.6312 182.517 71.7189 181.957C71.7351 181.859 72.404 177.71 73.8586 172.476C72.7904 168.888 72.8034 165.991 72.8066 165.793C72.8228 164.904 73.5339 164.213 74.3748 164.246C75.2287 164.246 75.9073 164.97 75.8944 165.826L75.8975 166.057C77.5891 161.448 79.8328 156.806 82.6965 153.777C82.9822 153.481 83.2711 153.185 83.5666 152.921C84.203 152.329 84.2581 151.341 83.6899 150.716C83.125 150.057 82.1477 150.024 81.5146 150.584C81.086 150.979 80.6704 151.407 80.2678 151.835C73.8521 158.847 70.4851 172.344 69.2415 178.402C63.6505 170.83 66.8941 158.09 66.9298 157.958C67.0077 157.629 66.9721 157.365 66.8844 157.069C66.7285 156.575 66.3648 156.18 65.8356 156.049C65.0141 155.818 64.17 156.312 63.9492 157.135C63.8583 157.497 62.7901 161.678 62.855 166.847C62.9264 172.246 64.2382 178.665 69.2058 182.912" fill="#181410"/>
<path d="M90.7291 155.819C83.5861 162.798 81.2776 173.233 80.5503 178.467C76.3196 173.694 75.9332 167.34 75.8975 166.057L75.8944 165.826C75.9073 164.97 75.2287 164.246 74.3748 164.246C73.5338 164.213 72.8228 164.904 72.8066 165.793C72.8034 165.99 72.7904 168.888 73.8586 172.476C74.8781 175.9 76.8781 179.949 80.8393 182.945C81.112 183.175 81.4399 183.274 81.7678 183.274L82.4237 183.11C82.9399 182.879 83.2809 182.352 83.3068 181.793C83.3133 181.661 83.7322 174.023 87.1479 166.55C87.4336 161.02 89.4628 157.563 89.6187 157.3C90.07 156.543 91.0246 156.312 91.7551 156.773C92.3623 157.168 92.5928 157.892 92.4045 158.551C93.8396 157.069 95.5019 155.72 97.4208 154.666L97.7552 154.502C98.5118 154.107 98.8072 153.152 98.4144 152.395C98.1319 151.835 97.567 151.539 96.989 151.539H96.8949L96.3364 151.703C94.1935 152.823 92.3428 154.238 90.7291 155.819" fill="#181410"/>
<path d="M101.366 160.626C101.921 159.935 102.898 159.869 103.554 160.428C104.041 160.856 104.21 161.482 104.041 162.074C104.184 161.614 104.327 161.218 104.457 160.823C104.966 159.375 105.323 158.486 105.34 158.453C105.671 157.663 105.307 156.741 104.521 156.412C103.736 156.05 102.83 156.445 102.499 157.235C102.463 157.334 102.34 157.63 102.155 158.091C101.914 158.717 101.564 159.671 101.167 160.856L101.366 160.626Z" fill="#181410"/>
<path d="M102.086 187.883C99.216 179.324 102.151 167.867 104.028 162.106L103.742 162.633C101.557 165.266 99.7224 169.118 98.3036 172.772C97.3555 179.389 97.4692 186.895 100.885 192.656C101.164 193.15 101.671 193.446 102.206 193.446L102.378 193.413C102.979 193.347 103.486 192.919 103.674 192.36C103.71 192.228 106.002 185.282 111.044 178.105C112.138 173.365 114.015 170.073 114.681 169.019C108.021 175.439 103.992 183.373 102.086 187.883" fill="#181410"/>
<path d="M123.463 162.666C122.898 162.93 122.363 163.259 121.824 163.588C119.574 164.905 117.522 166.419 115.668 168.098C116.174 167.901 116.762 167.901 117.242 168.263C117.947 168.757 118.129 169.712 117.736 170.436C119.492 168.856 121.431 167.374 123.554 166.156C123.983 165.893 124.415 165.662 124.859 165.432C125.596 165.07 125.892 164.148 125.554 163.391L125.535 163.325H125.515C125.122 162.568 124.213 162.271 123.463 162.666" fill="#181410"/>
<path d="M128.188 174.187C127.831 174.451 127.477 174.78 127.126 175.077C121.827 179.949 117.486 189.627 115.33 195.059C110.444 181.463 117.324 171.093 117.658 170.632L117.736 170.435C118.129 169.711 117.947 168.756 117.243 168.262C116.762 167.9 116.174 167.9 115.668 168.097L114.911 168.69L114.681 169.019C114.015 170.073 112.139 173.365 111.044 178.105C109.736 183.8 109.557 191.635 113.96 200.326C114.246 200.886 114.824 201.248 115.447 201.248H115.57C116.239 201.215 116.817 200.754 117.035 200.096C117.067 199.997 119.136 193.907 122.295 187.784C123.269 181.233 125.636 176.887 125.824 176.525C126.279 175.735 127.301 175.439 128.103 175.9C128.908 176.361 129.194 177.381 128.743 178.204L128.727 178.237L128.931 178.039C129.353 177.612 129.785 177.216 130.22 176.887C130.701 176.525 130.899 175.933 130.84 175.373C130.811 175.077 130.73 174.78 130.535 174.517L130.142 174.155C129.561 173.76 128.779 173.727 128.188 174.187" fill="#181410"/>
<path d="M92.1445 183.965C92.4335 184.426 92.9303 184.722 93.453 184.722L93.716 184.689C94.3329 184.591 94.8265 184.097 94.9661 183.504C94.9855 183.406 96.1771 178.27 98.3037 172.772C99.7226 169.118 101.557 165.266 103.742 162.633L104.028 162.106L104.041 162.073C104.21 161.481 104.041 160.855 103.554 160.427C102.898 159.868 101.921 159.933 101.366 160.625L101.167 160.855C97.1414 165.892 94.3297 174.188 92.94 178.995C87.3522 167.44 92.0439 159.308 92.2679 158.946L92.4043 158.551C92.5926 157.892 92.3621 157.168 91.7549 156.773C91.0244 156.312 90.0698 156.543 89.6185 157.3C89.4626 157.563 87.4334 161.02 87.1477 166.55C86.9074 171.126 87.8749 177.151 92.1445 183.965Z" fill="#181410"/>
<path d="M125.818 209.709C126.107 210.302 126.688 210.631 127.305 210.631H127.584C128.305 210.5 128.863 209.907 128.964 209.183C128.983 209.051 130.282 199.965 133.474 192.657C134.707 189.826 136.221 187.258 138.055 185.612L138.669 185.085C139.402 184.526 139.545 183.439 138.984 182.715L138.834 182.583C138.253 181.957 137.318 181.859 136.636 182.385C136.195 182.715 135.772 183.11 135.363 183.538C130.711 188.212 128.038 197.134 126.714 203.027C122.642 189.826 128.493 178.666 128.727 178.238L128.743 178.205C129.194 177.382 128.909 176.361 128.103 175.9C127.301 175.44 126.279 175.736 125.824 176.526C125.636 176.888 123.269 181.233 122.295 187.785C121.408 193.776 121.678 201.545 125.818 209.709Z" fill="#181410"/>
<path d="M50.2893 400.747L50.5815 400.878C52.679 401.537 54.6011 401.866 56.3544 401.866C56.9518 401.866 57.5233 401.833 58.0687 401.767C57.8934 401.569 57.5233 401.175 57.0298 400.549C56.6466 400.055 56.2018 399.462 55.718 398.705C54.4972 398.672 53.1498 398.409 51.6887 397.948C50.3023 397.059 37.8052 388.27 37.1169 362.888C39.6105 367.036 43.6918 372.994 49.2471 378.426C49.1075 376.912 49.0425 375.332 49.0295 373.686C45.5586 369.9 42.8021 366.016 40.8053 362.888C38.3507 359.069 37.0552 356.37 37.0162 356.304C36.711 355.646 36 355.284 35.3116 355.448C34.6136 355.58 34.1169 356.172 34.0811 356.896C33.0487 381.619 42.0878 393.57 47.1107 398.245C47.9646 399.035 48.6886 399.627 49.2341 400.022C49.8185 400.45 50.1887 400.681 50.2893 400.747" fill="#181410"/>
<path d="M85.8489 395.94C90.7191 393.932 93.0828 388.697 94.0114 385.998C93.1997 385.405 92.3848 384.714 91.6088 383.924L91.3166 383.561C91.151 383.265 89.8814 380.994 88.1768 377.603C75.0434 364.007 70.5563 343.267 70.2121 341.588V341.555H70.2089V341.588C67.3452 348.534 65.9977 355.283 66.5951 360.88C66.699 361.835 66.0237 362.69 65.0854 362.822H64.8905C64.0269 362.822 63.2899 362.163 63.2022 361.275L63.1664 360.88C62.9651 364.238 63.0171 367.332 63.2704 370.163C64.7314 373.126 66.488 376.221 68.5205 379.183C66.462 372.303 65.3548 362.229 68.4588 348.666C71.1894 357.818 77.6864 374.541 90.8198 384.648C90.1347 386.722 88.2645 391.166 84.5404 392.713C83.2936 393.207 81.9202 393.372 80.4202 393.142C80.2806 393.668 79.9007 394.919 79.2124 396.467C80.0793 396.664 80.9169 396.763 81.7416 396.763C83.1799 396.763 84.5534 396.5 85.8489 395.94" fill="#181410"/>
<path d="M62.2024 400.219H62.2154L62.2803 400.153L62.2024 400.219Z" fill="#A08368"/>
<path d="M76.81 393.174C76.6185 393.767 76.3165 394.557 75.9074 395.413C75.0567 397.19 73.745 399.231 71.8132 400.515H71.8002L71.3359 400.779L70.5177 401.207C69.7547 401.536 68.9527 401.701 68.1021 401.734H68.0956H68.0891C67.378 401.767 66.6279 401.701 65.8519 401.536C64.7058 401.306 63.498 400.878 62.2155 400.219H62.2025C61.6311 399.923 61.0467 399.594 60.4492 399.232C60.2966 399.034 59.9785 398.672 59.5564 398.112C57.894 395.907 54.6244 390.64 53.2023 381.981C52.9588 380.533 52.7802 378.986 52.6666 377.34C52.2607 371.776 52.6406 365.06 54.4491 357.159C56.2251 363.151 59.5823 372.27 65.3162 380.73C68.4202 385.273 72.2092 389.619 76.81 393.174V393.174ZM49.2477 378.426C50.0853 388.532 53.3809 395.182 55.7186 398.705C56.2024 399.462 56.6472 400.055 57.0303 400.549C57.5238 401.174 57.894 401.569 58.0693 401.766L58.1472 401.832L58.4395 402.063C59.5207 402.754 60.5759 403.314 61.6051 403.774C63.7545 404.762 65.8 405.256 67.7319 405.256C69.1313 405.256 70.4657 404.993 71.7385 404.499H71.7417H71.7515L71.8391 404.466C72.8683 404.038 73.771 403.445 74.586 402.787H74.5892H74.5989C76.836 400.976 78.2971 398.507 79.2127 396.466C79.9011 394.919 80.2809 393.668 80.4205 393.142L80.4855 392.911C80.6478 392.187 80.3815 391.495 79.8101 391.067C75.31 387.808 71.5729 383.627 68.5208 379.183C66.4883 376.22 64.7318 373.126 63.2707 370.163C61.4135 366.377 59.9785 362.723 58.9102 359.628C56.9751 354.032 56.2023 350.115 56.1764 350.016C56.0238 349.226 55.3744 348.633 54.5757 348.567C53.7737 348.534 53.0756 349.028 52.8451 349.818C51.8808 352.978 51.1308 356.007 50.5561 358.871C49.4522 364.369 49.0171 369.307 49.0301 373.685C49.0431 375.331 49.108 376.911 49.2477 378.426" fill="#181410"/>
<path d="M105.671 384.977C103.548 385.833 99.2488 386.491 94.1902 381.619C92.9954 379.446 83.1932 361.406 80.9691 348.534C87.018 355.908 99.5281 370.393 107.603 374.607C109.574 375.627 110.564 377.142 110.476 378.986C110.363 381.422 108.379 383.89 105.671 384.977ZM108.658 374.146C108.353 373.718 107.259 372.006 105.963 369.439C95.5766 361.768 80.3327 342.213 80.1542 341.983C79.7094 341.423 78.9593 341.193 78.2742 341.39C77.5859 341.621 77.1151 342.279 77.0762 343.003C76.6963 353.143 83.8523 369.01 88.1771 377.603C89.8817 380.993 91.1512 383.265 91.3168 383.561L91.609 383.924C92.385 384.714 93.1999 385.405 94.0116 385.997C96.7715 388.038 99.7066 389.059 102.58 389.059C104.054 389.059 105.518 388.796 106.928 388.236C110.59 386.788 113.259 383.594 113.821 380.104C112.116 379.15 110.311 377.339 108.658 374.146" fill="#181410"/>
<path d="M188.64 303.235C189.504 305.079 188.754 307.548 187.394 308.437C185.449 309.721 183.26 306.824 182.41 305.54C179.903 301.655 179.777 297.442 180.361 294.084C182.497 299.384 187.088 302.379 188.64 303.235ZM182.78 286.874C182.868 286.051 182.371 285.261 181.595 285.031C180.832 284.767 179.981 285.096 179.575 285.788C179.358 286.183 174.984 293.952 177.234 302.314C179.854 306.1 183.553 308.009 183.806 308.141C184.127 308.305 184.407 308.536 184.598 308.865C185.231 309.886 185.624 311.005 185.777 312.19L186.387 312.256C187.468 312.256 188.449 311.894 189.277 311.367C192.455 309.293 193.433 304.322 191.348 300.997L190.647 300.372C190.611 300.339 189.033 299.548 187.293 297.968C186.023 298.692 185.186 299.022 185.023 299.055L184.52 299.154C183.881 299.154 183.283 298.725 183.062 298.1C182.786 297.277 183.212 296.388 184.014 296.092C184.049 296.092 184.465 295.927 185.144 295.565C183.579 293.393 182.384 290.495 182.78 286.874" fill="#181410"/>
<path d="M171.182 316.503C171.906 317.589 172.643 318.445 173.37 319.169C172.669 318.182 171.932 317.293 171.182 316.503Z" fill="#181410"/>
<path d="M171.971 300.898C174.426 307.021 179.715 310.412 181.481 311.433C182.485 313.54 181.621 316.371 180.072 317.391C177.832 318.873 175.316 315.548 174.335 314.034C171.452 309.622 171.309 304.783 171.971 300.898V300.898ZM178.991 321.77C180.199 321.77 181.303 321.375 182.219 320.782C184.9 319.004 186.225 315.482 185.777 312.19C185.624 311.005 185.232 309.886 184.598 308.865C184.407 308.536 184.128 308.305 183.806 308.141C183.553 308.009 179.855 306.1 177.235 302.314C175.556 299.878 174.325 296.652 174.757 292.603C174.858 291.648 174.299 290.792 173.41 290.495C172.517 290.199 171.54 290.561 171.069 291.384C170.829 291.812 166.238 299.977 168.082 309.063C171.527 311.565 175.988 315.712 178.991 321.77Z" fill="#181410"/>
<path d="M118.168 377.01C115.434 377.537 113.376 374.705 112.116 372.203L111.989 372.006C111.911 371.874 104.171 360.22 104.333 347.908C109.421 353.735 119.337 364.631 124.246 366.936C123.811 365.092 123.292 363.118 122.668 361.044C117.519 356.764 109.47 347.875 104.32 341.752C103.827 341.192 103.038 340.929 102.301 341.127C101.564 341.324 101.005 341.949 100.866 342.707C98.9306 353.109 102.986 363.546 105.963 369.438C107.259 372.006 108.353 373.718 108.658 374.145C110.311 377.339 112.116 379.149 113.821 380.104C115.181 380.861 116.451 381.092 117.532 381.092C118.042 381.092 118.499 381.059 118.905 380.96C121.652 380.434 124.194 378.359 126.012 375.792C125.746 374.08 125.337 371.808 124.743 369.142C124.142 372.335 121.181 376.45 118.168 377.01" fill="#181410"/>
<path d="M127.792 364.698C128.162 366.18 128.49 367.595 128.772 368.912C128.925 367.167 128.58 365.752 127.792 364.698Z" fill="#181410"/>
<path d="M142.477 373.159C142.529 372.83 142.516 372.501 142.412 372.204C141.623 369.604 140.594 367.267 139.425 365.16H139.198C137.834 365.16 136.36 364.962 134.798 364.502C134.503 364.403 134.237 364.271 134.022 364.073C135.789 366.575 137.367 369.472 138.457 372.863C138.191 373.719 137.415 375.694 135.61 376.813C134.224 377.669 132.418 377.9 130.246 377.472C130.042 375.793 129.597 372.764 128.772 368.912C128.49 367.596 128.162 366.18 127.792 364.699C127.042 361.703 126.09 358.444 124.892 354.987C127.499 356.831 130.769 359.629 133.59 363.481L133.373 362.757C133.373 362.691 133.12 360.09 132.331 355.975C127.142 350.938 122.149 348.666 121.778 348.502C121.041 348.14 120.178 348.338 119.593 348.897C119.019 349.457 118.843 350.345 119.158 351.103C120.584 354.526 121.727 357.885 122.668 361.045C123.291 363.119 123.811 365.094 124.246 366.937C124.421 367.694 124.6 368.419 124.743 369.143C125.337 371.81 125.746 374.081 126.012 375.793C126.344 377.966 126.457 379.249 126.47 379.282C126.545 380.105 127.116 380.797 127.892 381.027C129.344 381.422 130.678 381.686 131.961 381.686H131.967H131.977L132.292 381.719C134.328 381.719 136.146 381.192 137.733 380.204C139.029 379.414 139.983 378.361 140.685 377.307H140.695H140.698C142.058 375.266 142.451 373.291 142.477 373.159" fill="#181410"/>
<path d="M131.808 338.493C136.181 341.62 142.451 347.381 145.363 356.303C145.107 357.192 144.331 359.167 142.529 360.286C141.126 361.142 139.324 361.372 137.162 360.944C136.73 357.554 135.37 348.665 131.808 338.493V338.493ZM133.59 363.479L133.983 364.006L134.022 364.072C134.236 364.269 134.503 364.401 134.798 364.5C136.36 364.961 137.834 365.158 139.198 365.158H139.425C141.37 365.126 143.11 364.632 144.636 363.677C147.204 362.064 148.451 359.529 148.983 357.982L148.373 357.817C147.587 357.587 147.013 356.928 146.938 356.105C146.925 356.007 146.597 352.517 145.49 347.217C139.055 336.715 129.204 332.205 128.694 331.975C127.944 331.612 127.08 331.777 126.496 332.369C125.921 332.929 125.746 333.818 126.064 334.575C129.444 342.674 131.34 350.608 132.33 355.974C133.119 360.089 133.373 362.689 133.373 362.755L133.59 363.479Z" fill="#181410"/>
<path d="M145.363 331.81C149.75 334.905 156.003 340.699 158.941 349.653C158.672 350.542 157.896 352.517 156.091 353.603C154.695 354.492 152.886 354.69 150.727 354.262C150.295 350.904 148.935 341.983 145.363 331.81ZM148.373 357.817L148.983 357.982C150.318 358.344 151.578 358.509 152.772 358.509C154.795 358.509 156.626 358.015 158.201 357.027C162.055 354.624 162.906 350.147 162.945 349.949C163.01 349.62 162.984 349.324 162.896 348.994C162.435 347.513 161.903 346.098 161.305 344.748C160.428 344.682 159.5 344.517 158.532 344.221C157.86 344.023 157.363 343.431 157.299 342.707C157.299 342.674 157.071 340.337 156.373 336.716C150.191 328.946 142.704 325.489 142.259 325.292C141.509 324.963 140.646 325.128 140.074 325.687C139.49 326.28 139.324 327.168 139.629 327.925C142.59 335.036 144.409 341.983 145.49 347.217C146.597 352.517 146.925 356.007 146.938 356.106C147.013 356.929 147.587 357.587 148.373 357.817" fill="#181410"/>
<path d="M155.938 321.737C159.717 324.437 165.13 329.407 167.65 337.144C167.432 337.901 166.77 339.58 165.221 340.568C164.013 341.325 162.448 341.523 160.568 341.16C160.198 338.231 159.016 330.527 155.938 321.737ZM158.532 344.222C159.5 344.518 160.429 344.683 161.305 344.749C161.649 344.782 161.99 344.814 162.322 344.814C164.088 344.814 165.653 344.386 167.026 343.53C170.344 341.424 171.081 337.572 171.12 337.44L171.068 336.584C170.854 335.893 170.624 335.235 170.383 334.609C169.721 334.477 169.049 334.346 168.335 334.148C167.663 333.951 167.166 333.358 167.101 332.634C167.091 332.568 166.887 330.428 166.25 327.037C160.782 319.565 153.665 316.306 153.256 316.108C152.61 315.845 151.86 315.976 151.363 316.47C150.867 316.964 150.714 317.721 150.98 318.379C153.867 325.325 155.506 332.074 156.373 336.716C157.071 340.337 157.299 342.675 157.299 342.707C157.364 343.432 157.86 344.024 158.532 344.222" fill="#181410"/>
<path d="M165.74 311.664C167.38 312.849 169.315 314.429 171.182 316.503C171.932 317.293 172.669 318.182 173.37 319.169C174.997 321.375 176.458 324.009 177.465 327.07C177.234 327.827 176.572 329.506 175.023 330.494C173.815 331.251 172.25 331.449 170.37 331.087C170 328.157 168.818 320.454 165.74 311.664ZM168.335 334.148C169.049 334.345 169.721 334.477 170.383 334.609C170.994 334.675 171.578 334.708 172.137 334.708C173.89 334.708 175.455 334.313 176.828 333.424C180.147 331.35 180.884 327.498 180.923 327.334L180.871 326.511C180.348 324.832 179.715 323.251 178.991 321.77C175.987 315.713 171.526 311.565 168.081 309.063C165.347 307.088 163.263 306.133 163.058 306.034C162.412 305.771 161.662 305.903 161.166 306.397C160.669 306.89 160.516 307.647 160.795 308.306C163.773 315.449 165.409 322.428 166.25 327.037C166.886 330.428 167.091 332.568 167.101 332.634C167.166 333.358 167.662 333.95 168.335 334.148" fill="#181410"/>
<path d="M63.163 360.847L63.1663 360.88L63.202 361.275C63.2897 362.164 64.0267 362.822 64.8903 362.822H65.0852C66.0235 362.69 66.6988 361.835 66.5949 360.88C65.9975 355.284 67.345 348.535 70.2087 341.588V341.556C76.6309 325.951 90.6638 309.458 107.141 303.565C132.873 294.414 125.587 245.462 125.269 243.388C125.142 242.598 124.48 241.972 123.681 241.939C123.554 241.939 110.953 240.754 100.924 216.228C91.1215 192.262 65.7313 181.366 60.0623 179.16C59.4649 178.93 59.0818 178.798 58.9681 178.765C58.3058 178.534 57.6077 178.732 57.1629 179.226L56.7928 179.851C56.6531 180.246 56.6791 180.641 56.8317 181.036C56.9973 181.464 57.3675 181.859 57.861 182.024C57.9389 182.057 59.7311 182.682 62.5526 183.999C70.3093 187.588 85.8552 196.278 94.6931 211.389L94.732 211.455C95.8651 213.397 96.8782 215.405 97.7581 217.578C103.641 231.964 110.473 238.91 115.619 242.268C118.392 244.079 120.668 244.836 122.051 245.165C122.346 247.503 122.944 253.033 122.97 259.716V259.749H122.983C123.018 268.176 122.194 278.415 118.837 286.678L118.811 286.743C116.255 292.998 112.226 298.101 106.008 300.307C105.057 300.636 104.102 301.031 103.161 301.426H103.148C80.0076 311.368 62.6793 339.647 63.0624 358.74V358.773V358.806C63.0754 359.497 63.1013 360.156 63.163 360.814V360.847" fill="#181410"/>
<path d="M246.435 201.71C241.311 200.755 236.038 202.335 230.759 206.384C218.073 216.161 206.024 207.865 205.518 207.536C204.745 206.977 203.68 207.174 203.138 207.931C202.596 208.721 202.784 209.808 203.554 210.367C203.664 210.433 211.466 215.832 221.427 214.219L221.2 213.989C220.557 213.297 220.596 212.178 221.284 211.552C221.934 210.927 222.914 210.96 223.567 211.519L223.69 211.289C224.278 210.532 225.35 210.433 226.09 211.026C226.197 211.124 226.811 211.585 227.827 212.211C229.476 211.454 231.148 210.433 232.827 209.149C233.243 208.82 233.658 208.557 234.071 208.26L234.077 208.227C235.236 204.903 238.386 202.499 242.087 202.499C244.973 202.499 247.529 203.948 249.068 206.187H249.071C253.854 208.425 257.522 213.1 259.906 217.018C260.23 217.544 260.789 217.841 261.36 217.841C261.669 217.841 261.98 217.774 262.26 217.577C263.062 217.083 263.312 216.03 262.815 215.207C259.555 209.841 254.065 203.158 246.435 201.71" fill="#181410"/>
<path d="M245.71 218.894H245.691C248.545 218.302 251.535 217.116 254.574 215.141C255.366 214.615 255.597 213.529 255.084 212.738C254.571 211.948 253.512 211.717 252.72 212.211C251.876 212.771 251.038 213.265 250.21 213.66V213.693C249.499 215.997 247.847 217.907 245.71 218.894Z" fill="#181410"/>
<path d="M234.6 215.207C231.658 214.384 229.311 213.132 227.827 212.21C226.811 211.585 226.197 211.124 226.09 211.025C225.35 210.433 224.278 210.532 223.69 211.289L223.567 211.519L223.703 211.618C223.765 211.684 226.479 214.581 230.837 217.511C233.321 218.466 236.356 219.256 239.743 219.387C237.532 218.762 235.671 217.215 234.6 215.207" fill="#181410"/>
<path d="M242.087 215.963L242.671 215.898H242.798L241.973 215.963H242.087Z" fill="#181410"/>
<path d="M223.703 211.619L223.567 211.52C222.914 210.96 221.934 210.927 221.284 211.552C220.596 212.178 220.557 213.297 221.2 213.989L221.427 214.219C223.2 216.096 234.236 226.992 248.227 226.992C251.058 226.992 254.013 226.531 257.032 225.478C257.928 225.182 258.399 224.194 258.091 223.273C257.782 222.384 256.808 221.89 255.915 222.219C246.139 225.642 236.895 221.561 230.837 217.512C226.479 214.582 223.765 211.685 223.703 211.619Z" fill="#181410"/>
<path d="M242.684 215.899H242.671L242.087 215.964H241.947C239.366 215.866 237.307 213.759 237.307 211.125C237.307 208.459 239.457 206.253 242.087 206.253C244.72 206.253 246.853 208.459 246.853 211.125C246.853 213.529 245.126 215.504 242.863 215.899H242.798H242.684ZM242.087 202.5C238.385 202.5 235.236 204.903 234.077 208.228L234.07 208.261C233.746 209.15 233.583 210.105 233.583 211.125C233.583 212.574 233.95 213.989 234.6 215.174V215.208C235.671 217.216 237.532 218.763 239.743 219.388L239.801 219.421H239.811C240.538 219.651 241.298 219.75 242.087 219.75C243.373 219.75 244.593 219.454 245.671 218.927L245.691 218.894H245.71C247.847 217.907 249.499 215.997 250.21 213.693V213.66C250.467 212.87 250.594 212.014 250.594 211.125C250.594 209.282 250.035 207.603 249.071 206.187H249.068C247.529 203.949 244.973 202.5 242.087 202.5Z" fill="#181410"/>
<path d="M243.619 211.125C243.619 210.237 242.927 209.545 242.077 209.545C241.226 209.545 240.534 210.237 240.534 211.125C240.534 211.981 241.226 212.672 242.077 212.672C242.927 212.672 243.619 211.981 243.619 211.125Z" fill="#181410"/>
<path d="M209.297 243.65C208.437 243.584 207.703 244.243 207.635 245.099L207.609 245.362C204.579 282.431 189.417 293.229 185.144 295.566C184.465 295.928 184.05 296.092 184.014 296.092C183.212 296.389 182.787 297.277 183.062 298.1C183.283 298.726 183.881 299.154 184.52 299.154L185.024 299.055C185.186 299.022 186.024 298.693 187.293 297.969C192.176 295.138 203.56 285.986 208.674 260.308C209.563 255.864 210.268 250.893 210.709 245.362H210.713L210.602 244.671C210.394 244.112 209.907 243.716 209.297 243.65Z" fill="#181410"/>
<path d="M82.5372 336.649L82.8684 336.616C83.6996 336.419 84.2288 335.596 84.047 334.74C84.0307 334.641 83.9106 325.819 119.908 309.062C144.399 297.639 159.708 280.915 159.861 265.377C159.929 258.266 156.747 248.159 141.188 240.522C110.038 225.214 109.833 204.639 109.833 204.409C109.846 203.553 109.168 202.828 108.317 202.828C107.512 202.828 106.762 203.487 106.749 204.343C106.736 205.265 106.772 227.09 139.844 243.32C151.01 248.818 156.864 256.422 156.776 265.377C156.636 279.434 141.659 295.466 118.619 306.198C80.6735 323.909 80.6508 333.621 81.0339 335.399C81.1897 336.156 81.8294 336.649 82.5372 336.649" fill="#181410"/>
<path d="M175.072 397.717C173.179 397.025 172.059 396.729 171.997 396.696C171.617 396.598 171.221 396.664 170.903 396.828L170.867 396.861L170.497 397.125L170.484 397.157L170.13 397.816C169.913 398.672 170.406 399.528 171.234 399.725C171.26 399.758 171.5 399.791 171.919 399.923C172.887 400.219 174.831 400.877 177.478 401.964H177.491C181.533 403.643 187.215 406.342 193.546 410.49L193.686 410.556C202.826 416.58 213.29 425.502 222.089 438.472L222.151 438.571C225.547 443.608 228.687 449.238 231.408 455.525C231.661 456.118 232.232 456.479 232.833 456.479L233.443 456.315C233.771 456.183 234.015 455.92 234.18 455.624L234.19 455.591L234.294 455.327L234.33 455.13L234.242 454.274C233.989 453.682 233.732 453.122 233.466 452.529C216.534 415.099 185.004 401.239 175.072 397.717" fill="#181410"/>
<path d="M500.619 111.278L500.454 110.817L500.11 110.389C499.856 110.159 499.538 110.027 499.181 110.027C460.355 108.183 427.108 122.438 402.432 138.503C395.63 142.947 389.477 147.523 384.035 151.934C368.678 164.378 356.944 177.119 349.619 185.908C345.69 190.583 343.034 194.171 341.739 195.949L334.566 190.846L327.358 185.71C326.479 181.299 327.446 176.065 329.378 170.732C333.969 158.189 344.011 144.889 348.362 139.457H348.372C349.632 137.91 350.408 136.988 350.46 136.955C350.687 136.659 350.813 136.33 350.826 136.001L350.762 135.408C350.573 134.882 350.128 134.486 349.593 134.355C322.144 128.989 307.981 144.231 301.484 155.391L301.091 156.049C299.286 159.275 298.104 162.107 297.442 163.95L297.39 163.885L294.848 161.942L288.516 157.07C288.796 153.843 288.822 150.782 288.656 147.918C287.906 135.573 283.357 126.783 278.091 120.66L278.068 120.627C273.529 115.36 268.467 112.035 264.844 110.158C261.97 108.644 259.999 108.019 259.925 107.986C259.314 107.821 258.652 108.018 258.259 108.512C257.876 109.039 257.827 109.73 258.142 110.29C260.636 114.57 262.201 118.487 263.129 121.977C263.98 125.203 264.285 128.067 264.285 130.503C264.285 134.092 263.623 136.824 263.039 138.536C262.581 139.82 262.175 140.544 262.11 140.676C261.805 141.169 261.831 141.795 262.11 142.289L262.123 142.322L262.328 142.552L262.646 142.816C263.383 143.243 264.324 143.013 264.756 142.255C264.808 142.19 264.996 141.86 265.25 141.268C266.688 138.108 270.172 127.672 262.899 112.627C270.883 116.643 288.172 128.759 285.364 157.63C285.315 158.189 285.542 158.716 285.974 159.045L297.289 167.736C297.699 168.065 298.231 168.131 298.715 167.967C299.195 167.802 299.565 167.407 299.705 166.913C300.098 165.432 309.686 131.458 346.378 136.988C340.196 144.56 320.517 170.304 324.485 187.027C324.573 187.389 324.79 187.719 325.095 187.949L341.216 199.406C341.544 199.636 341.966 199.734 342.372 199.669C342.778 199.603 343.135 199.372 343.365 199.01C343.515 198.78 359.064 176.197 385.954 154.37C409.718 135.112 447.261 112.694 493.142 112.99C483.252 118.455 461.092 131.622 440.433 150.617C403.766 184.262 388.37 220.804 395.896 256.259C405.558 301.755 391.409 313.342 387.288 315.713C381.249 305.442 340.618 239.799 287.666 237.791C287.195 237.758 286.711 237.758 286.24 237.758C285.416 237.758 284.692 238.416 284.679 239.305C284.666 240.161 285.338 240.852 286.192 240.885C286.724 240.885 287.247 240.918 287.779 240.918C342.154 243.222 384.886 317.721 385.318 318.478C385.61 318.972 386.12 319.268 386.665 319.268L387.113 319.202H387.162L387.532 319.071C388.636 318.643 391.623 317.194 394.639 313.343L394.662 313.31C400.295 306.1 405.938 290.529 399.354 257.707V257.675C399.201 256.983 399.061 256.292 398.909 255.6C392.795 226.762 403.068 200.986 417.968 180.213C425.455 169.777 434.114 160.625 442.455 152.955C469.661 127.968 499.486 113.122 499.778 112.99C500.415 112.661 500.759 111.969 500.619 111.278" fill="#181410"/>
<path d="M235.882 181.102C217.528 178.83 202.771 195.324 202.151 196.015C201.521 196.739 201.586 197.826 202.287 198.484C202.995 199.109 204.073 199.044 204.703 198.319C204.842 198.188 218.927 182.485 235.486 184.526C246.428 185.908 256.162 194.599 264.425 210.467C264.73 211.06 265.321 211.388 265.935 211.388L266.733 211.191C267.568 210.73 267.886 209.677 267.448 208.821C258.626 191.933 248.006 182.583 235.882 181.102" fill="#181410"/>
<path d="M55.718 133.828C55.718 133.828 87.6896 79.5426 164.032 127.54C164.032 127.54 100.368 115.524 87.1117 144C87.1117 144 79.9881 120.067 55.718 133.828Z" fill="#856854"/>
<path d="M60.0629 413.124C60.0629 413.124 48.8385 426.128 52.5205 452.793C52.5205 452.793 66.2839 425.7 90.8202 430.507C115.357 435.346 118.48 436.662 120.415 448.579C122.35 460.496 137.448 475.64 137.448 475.64C137.448 475.64 129.152 386.228 202.826 368.912C202.826 368.912 146.984 374.245 128.805 411.84C110.629 449.402 73.1379 404.335 60.0629 413.124" fill="#856854"/>
<path d="M317.16 289.64C317.16 289.64 320.917 393.865 211.719 399.297C211.719 399.297 228.995 418.918 234.265 439.328C234.265 439.328 328.712 371.776 317.16 289.64" fill="#856854"/>
<path d="M445.91 125.862C445.91 125.862 360.479 186.007 363.272 267.485L323.861 231.504C323.861 231.504 372.174 158.947 445.91 125.862Z" fill="#A08368"/>
</svg>
