<svg width="500" height="500" viewBox="0 0 500 500" fill="none" xmlns="http://www.w3.org/2000/svg">
<circle cx="250" cy="250" r="250" fill="#171717"/>
<path d="M266.083 211.191L265.284 211.389C264.671 211.389 264.08 211.06 263.775 210.467C255.512 194.6 245.777 185.909 234.836 184.526C218.277 182.485 204.192 198.188 204.052 198.32C203.423 199.044 202.345 199.11 201.637 198.484C200.935 197.826 200.871 196.739 201.5 196.015C202.121 195.324 216.877 178.831 235.232 181.102C247.356 182.583 257.976 191.933 266.798 208.821C267.236 209.677 266.918 210.73 266.083 211.191V211.191ZM261.609 217.578C261.33 217.776 261.018 217.842 260.71 217.842C260.138 217.842 259.58 217.545 259.255 217.019C256.872 213.101 253.203 208.426 248.42 206.188C249.385 207.603 249.943 209.282 249.943 211.126C249.943 212.015 249.817 212.87 249.56 213.66C250.388 213.265 251.226 212.771 252.07 212.212C252.862 211.718 253.921 211.949 254.434 212.739C254.947 213.529 254.716 214.615 253.924 215.142C250.885 217.117 247.894 218.302 245.041 218.895L245.021 218.928C243.943 219.454 242.722 219.751 241.436 219.751C240.648 219.751 239.888 219.652 239.16 219.421H239.151L239.092 219.389C235.706 219.257 232.67 218.467 230.186 217.512C236.245 221.562 245.489 225.643 255.265 222.22C256.158 221.89 257.132 222.385 257.44 223.273C257.749 224.195 257.278 225.183 256.382 225.479C253.362 226.532 250.407 226.993 247.576 226.993C233.586 226.993 222.55 216.097 220.777 214.22C210.816 215.833 203.013 210.434 202.903 210.368C202.134 209.809 201.945 208.722 202.487 207.932C203.03 207.175 204.095 206.978 204.867 207.537C205.374 207.867 217.423 216.162 230.108 206.385C235.388 202.336 240.661 200.756 245.784 201.711C253.414 203.159 258.904 209.842 262.164 215.208C262.661 216.031 262.411 217.084 261.609 217.578V217.578ZM386.882 319.072L386.512 319.203H386.463L386.015 319.269C385.469 319.269 384.96 318.973 384.667 318.479C384.236 317.722 341.504 243.223 287.129 240.919C287.116 244.606 286.645 248.523 285.895 253.132C285.045 258.267 287.983 262.317 290.818 266.234C294.172 270.843 297.974 276.077 292.723 282.069C288.389 287.007 285.529 292.834 283.431 297.113C281.548 300.965 280.597 302.907 279.132 303.401L278.447 303.5C278.129 303.5 277.798 303.434 277.506 303.27C276.743 302.908 276.437 301.953 276.82 301.196C277.087 300.636 277.619 300.307 278.181 300.307C278.752 299.616 279.769 297.574 280.671 295.731C282.847 291.287 285.808 285.229 290.409 279.995C293.844 276.077 292.061 273.213 288.337 268.078C285.262 263.864 281.788 259.058 282.847 252.605C284.879 240.227 284.791 233.281 278.905 222.319C276.437 217.743 277.658 212.311 279.197 205.397C281.788 193.711 285.35 177.744 271.772 156.741C267.931 150.815 264.599 146.207 261.677 142.553L261.473 142.322L261.46 142.29C254.658 133.796 250.018 130.504 246.053 127.64C242.352 125.006 239.16 122.735 235.742 117.106C227.54 103.575 158.201 10.2459 103.569 3.46429C116.576 16.3032 164.379 69.5028 188.166 178.502C188.357 179.325 187.834 180.181 186.997 180.345C186.159 180.543 185.344 180.016 185.153 179.16C180.055 155.853 173.863 135.08 167.165 116.776H167.159L166.282 116.545C165.837 116.249 121.784 87.7406 83.8091 100.481C78.8934 102.127 74.2959 104.365 70.0003 107.262H69.9938L69.8282 107.361L69.8152 107.394C57.9188 115.394 48.4121 128.134 41.4476 145.417C43.6328 144.462 46.6458 143.277 50.3829 141.894C56.7272 139.557 60.6689 141.762 63.2761 143.211C65.8054 144.627 66.4028 144.956 68.1561 142.487C69.1367 141.071 70.2698 140.347 71.5036 140.314C72.2147 140.281 72.864 140.479 73.5004 140.808C74.0329 140.578 74.666 140.643 75.1368 141.071C75.5849 141.433 75.7602 142.026 75.6336 142.585C76.3349 143.31 77.0589 144.231 77.8317 145.186C79.3187 147.03 80.9096 148.972 82.7279 150.453H82.7539L82.8415 150.52L82.8675 150.552C85.2312 152.396 88.03 153.416 91.5885 152.297C93.4067 151.737 94.936 151.507 96.2445 151.54H96.3387H96.3452H96.5983H96.6243C100.579 151.77 102.485 154.239 104.086 156.379L104.43 156.807L104.569 157.005C106.54 159.507 108.436 161.284 114.245 159.605C119.713 158.025 122.726 160.033 124.706 163.062L124.81 163.227L124.865 163.325H124.885L124.904 163.391C126.034 165.235 126.807 167.375 127.518 169.35C128.18 171.193 128.791 172.806 129.476 174.123L129.492 174.156L129.885 174.518C130.08 174.781 130.161 175.078 130.19 175.374L130.213 175.407C131.573 177.481 133.317 178.535 136.151 178.337C136.479 178.304 136.788 178.271 137.103 178.271H137.129H137.249H137.304H137.499L137.625 178.304C144.528 178.468 147.262 184.065 149.499 188.608C150.519 190.682 151.421 192.427 152.438 193.711C153.785 195.39 155.36 196.278 157.727 196.048C164.071 195.455 165.113 197.99 165.762 201.118C165.99 202.27 166.22 203.39 167.12 204.344C167.35 204.575 167.629 204.805 167.961 205.003L168 205.035H168.009C168.961 205.661 170.37 206.155 172.5 206.484C176.35 207.077 178.844 208.459 180.584 210.138L180.714 210.27L180.786 210.336L180.831 210.368L180.85 210.401L180.876 210.435C182.695 212.344 183.636 214.582 184.474 216.558C185.773 219.652 186.789 222.088 190.234 223.24C194.367 224.623 196.491 227.816 198.37 230.647C201.208 234.894 203.254 237.956 210.919 235.717C219.488 233.248 230.881 235.882 239.258 242.268C245.463 247.042 248.881 253 248.881 259.123C248.881 259.979 248.196 260.704 247.342 260.704C246.492 260.704 245.794 259.979 245.794 259.123C245.794 254.021 242.816 248.918 237.401 244.77C229.875 239.009 219.335 236.54 211.77 238.713C210.731 239.042 209.754 239.239 208.854 239.371C209.082 240.227 209.523 242.005 209.952 244.672L210.062 245.363H210.059C211.426 254.317 212.471 271.962 205.744 295.105C231.352 260.309 271.966 271.041 272.437 271.172C273.249 271.403 273.733 272.258 273.505 273.081C273.288 273.937 272.437 274.431 271.613 274.201C271.486 274.135 258.567 270.679 243.157 273.971C224.228 278.053 209.936 290.068 200.656 309.755L200.647 309.788C199.718 312.059 198.705 314.43 197.617 316.8C192.708 328.585 186.701 338.593 180.123 347.087L179.834 347.514L179.565 347.811C153.528 380.961 118.829 390.64 106.741 393.076C95.3873 395.413 90.6599 400.582 87.1988 404.368C84.5299 407.331 82.2181 409.865 78.2505 408.713C75.2861 407.857 73.0491 406.113 71.0913 404.5H71.088C69.8153 404.993 68.4808 405.256 67.0814 405.256C65.1495 405.256 63.1041 404.763 60.9546 403.775C57.2922 404.664 53.4544 403.018 51.2661 401.767C37.7268 445.946 47.0452 470.109 52.4739 479.327C52.042 463.723 60.3442 457.008 66.0392 452.399C68.9386 450.061 71.2406 448.217 71.4939 446.11C72.0036 441.962 73.0848 439.757 74.903 439.099C76.2635 438.638 77.546 439.296 78.2343 439.987L78.6402 440.712C79.7214 445.123 82.4519 446.835 84.374 447.461C83.637 441.765 87.1955 438.078 87.3611 437.914C87.78 437.486 88.4033 437.321 88.9748 437.518C89.5332 437.749 89.9294 438.242 89.9943 438.868C90.4489 443.576 91.7963 445.847 92.9165 446.901C92.8418 443.148 93.5399 440.679 95.0399 439.362C96.0951 438.44 97.3419 438.341 98.0789 438.539C98.8289 438.703 99.3257 439.428 99.2478 440.218C98.79 444.827 99.605 447.296 100.482 448.579C100.9 445.814 101.969 443.872 103.683 442.786C106.774 440.843 110.576 442.72 110.742 442.818C111.134 443.016 111.427 443.378 111.54 443.806C120.313 476.167 140.645 490.718 148.551 495.293C141.291 471.986 136.817 440.35 152.886 415.067C157.272 408.154 162.944 402.195 169.834 397.158L169.847 397.125L170.217 396.862L170.253 396.829C184.263 386.722 203.27 380.402 227.147 377.999C261.067 374.608 284.98 355.284 298.227 320.619C308.169 294.579 308.029 269.296 308.029 269.033C308.016 268.177 308.704 267.485 309.558 267.485H309.571C310.409 267.485 311.107 268.144 311.107 269.033C311.12 269.263 311.26 295.171 301.117 321.738C291.681 346.395 271.262 376.748 227.439 381.126C205.468 383.332 187.734 388.862 174.422 397.718C184.354 401.24 215.884 415.099 232.816 452.53C237.699 444.201 258.028 428.268 261.385 425.733C272.979 416.878 285.895 410.359 298.139 402.491C328.549 382.969 357.728 359.728 380.943 331.746C385.723 325.985 390.362 319.927 393.989 313.343C390.973 317.195 387.986 318.644 386.882 319.072" fill="#A08368"/>
<path d="M225.079 211.948C225.079 211.948 242.401 193.38 256.781 211.717C256.781 211.717 238.823 224.095 225.079 211.948Z" fill="white"/>
<path d="M79.1014 405.684C81.1469 406.276 82.306 405.157 84.936 402.26C88.4718 398.375 93.7966 392.516 106.144 390.014C111.229 388.993 120.447 386.656 131.317 381.685H131.311C130.028 381.685 128.694 381.422 127.242 381.026C126.466 380.796 125.895 380.104 125.82 379.281C125.807 379.249 125.693 377.965 125.362 375.792C123.544 378.36 121.002 380.434 118.255 380.961C117.849 381.06 117.391 381.092 116.882 381.092C115.8 381.092 114.531 380.862 113.17 380.104C112.609 383.594 109.94 386.788 106.277 388.236C104.868 388.796 103.404 389.059 101.93 389.059C99.0565 389.059 96.1213 388.038 93.3615 385.997C92.4329 388.697 90.0692 393.931 85.199 395.94C83.9035 396.499 82.53 396.763 81.0917 396.763C80.267 396.763 79.4294 396.664 78.5625 396.466C77.6468 398.507 76.1857 400.976 73.9486 402.787H73.939C75.452 403.972 77.1306 405.124 79.1014 405.684" fill="#A08368"/>
<path d="M36.4668 362.888C37.1551 388.27 49.6522 397.059 51.0386 397.948C52.4997 398.409 53.8471 398.672 55.0679 398.705C52.7302 395.183 49.4347 388.533 48.597 378.426C43.0417 372.994 38.9604 367.036 36.4668 362.888Z" fill="#E7B38F"/>
<path d="M141.879 360.287C143.681 359.167 144.457 357.192 144.713 356.303C141.801 347.382 135.531 341.621 131.158 338.494C134.72 348.666 136.08 357.554 136.512 360.945C138.674 361.373 140.476 361.143 141.879 360.287" fill="#E7B38F"/>
<path d="M83.8907 392.713C87.6148 391.166 89.485 386.721 90.1701 384.648C77.0366 374.541 70.5397 357.817 67.8091 348.665C64.7051 362.229 65.8123 372.303 67.8708 379.183C70.9228 383.627 74.6599 387.808 79.16 391.067C79.7315 391.495 79.9977 392.186 79.8354 392.91L79.7705 393.141C81.2705 393.372 82.6439 393.207 83.8907 392.713" fill="#E7B38F"/>
<path d="M79.8997 178.468C80.627 173.233 82.9355 162.798 90.0786 155.819H90.0753C86.9389 156.181 84.2959 155.259 82.0459 153.778C79.1822 156.806 76.9385 161.448 75.2469 166.057C75.2827 167.341 75.6691 173.694 79.8997 178.468" fill="#E7B38F"/>
<path d="M114.68 195.06C116.836 189.628 121.177 179.95 126.476 175.078C125.739 173.563 125.155 171.95 124.619 170.436C124.034 168.79 123.489 167.342 122.904 166.156C120.781 167.374 118.843 168.856 117.086 170.436L117.008 170.633C116.674 171.094 109.794 181.464 114.68 195.06Z" fill="#E7B38F"/>
<path d="M172.029 209.577C170.672 209.379 169.516 209.083 168.552 208.721C168.247 213.099 168.065 223.075 172.12 228.704C172.188 224.161 173.055 216.721 177.464 211.552H177.458C176.175 210.63 174.458 209.939 172.029 209.577" fill="#E7B38F"/>
<path d="M282.21 206.088C280.811 212.343 279.704 217.281 281.613 220.837C285.019 227.158 286.61 232.326 287.016 237.791C339.968 239.799 380.599 305.442 386.638 315.713C390.758 313.343 404.908 301.755 395.246 256.259C387.719 220.804 403.116 184.262 439.782 150.618C460.442 131.623 482.602 118.455 492.491 112.99C446.61 112.694 409.067 135.112 385.304 154.371C358.413 176.197 342.864 198.78 342.715 199.01C342.484 199.373 342.127 199.603 341.721 199.669C341.316 199.735 340.894 199.636 340.566 199.406L324.445 187.949C324.14 187.719 323.922 187.389 323.835 187.027C319.867 170.304 339.546 144.56 345.728 136.988C309.036 131.458 299.448 165.432 299.055 166.913C298.915 167.407 298.545 167.802 298.064 167.967C297.581 168.132 297.048 168.065 296.639 167.736L285.324 159.045C284.892 158.716 284.665 158.19 284.713 157.63C287.522 128.759 270.233 116.644 262.249 112.627C269.522 127.672 266.038 138.108 264.599 141.268C267.489 144.922 270.703 149.4 274.34 155.029C288.655 177.151 284.931 193.875 282.21 206.088" fill="#856854"/>
<path d="M103.683 347.909C103.521 360.221 111.261 371.874 111.339 372.006L111.466 372.203C112.726 374.705 114.784 377.537 117.518 377.01C120.531 376.451 123.492 372.336 124.093 369.142C123.95 368.418 123.772 367.693 123.596 366.936C118.687 364.632 108.771 353.736 103.683 347.909" fill="#E7B38F"/>
<path d="M66.2793 157.959C66.2436 158.091 63 170.831 68.591 178.402C69.8345 172.345 73.2016 158.848 79.6173 151.836H79.6141C77.9842 150.322 76.6107 148.609 75.4419 147.194C74.9354 146.535 74.338 145.811 73.7665 145.153C70.8801 148.84 68.3605 152.823 66.2533 157.037L66.2339 157.07C66.3215 157.366 66.3572 157.63 66.2793 157.959" fill="#E7B38F"/>
<path d="M117.969 306.198C141.009 295.466 155.987 279.434 156.126 265.377C156.214 256.423 150.36 248.818 139.194 243.321C106.122 227.091 106.086 205.265 106.099 204.343C106.112 203.487 106.862 202.829 107.667 202.829C108.518 202.829 109.196 203.553 109.183 204.409C109.183 204.639 109.388 225.214 140.538 240.522C156.097 248.16 159.279 258.266 159.211 265.377C159.058 280.915 143.749 297.639 119.258 309.063C83.2607 325.819 83.3808 334.642 83.3971 334.741C83.5789 335.596 83.0497 336.419 82.2185 336.617L81.8873 336.65C81.1795 336.65 80.5398 336.156 80.384 335.399C80.0009 333.621 80.0236 323.909 117.969 306.198V306.198ZM69.5623 341.588C69.9065 343.267 74.3936 364.006 87.527 377.603C83.2022 369.01 76.0462 353.143 76.4261 343.003C76.4651 342.279 76.9358 341.621 77.6242 341.39C78.3093 341.193 79.0593 341.423 79.5041 341.983C79.6827 342.213 94.9266 361.768 105.313 369.439C102.336 363.546 98.2806 353.11 100.216 342.707C100.355 341.95 100.914 341.325 101.651 341.127C102.388 340.93 103.177 341.193 103.67 341.752C108.82 347.875 116.869 356.764 122.018 361.044C121.077 357.884 119.934 354.525 118.508 351.102C118.193 350.345 118.369 349.456 118.943 348.896C119.528 348.337 120.391 348.139 121.129 348.501C121.499 348.665 126.492 350.937 131.681 355.974C130.69 350.608 128.794 342.674 125.414 334.576C125.096 333.819 125.271 332.93 125.846 332.37C126.431 331.777 127.294 331.613 128.044 331.975C128.554 332.206 138.405 336.716 144.84 347.217C143.759 341.983 141.941 335.036 138.98 327.926C138.674 327.169 138.84 326.28 139.424 325.687C139.996 325.128 140.86 324.963 141.61 325.292C142.054 325.49 149.542 328.947 155.724 336.716C154.857 332.074 153.217 325.325 150.331 318.379C150.064 317.72 150.217 316.964 150.714 316.47C151.21 315.976 151.96 315.844 152.607 316.108C153.016 316.305 160.133 319.564 165.6 327.037C164.759 322.428 163.123 315.449 160.146 308.305C159.867 307.647 160.019 306.89 160.516 306.396C161.013 305.903 161.763 305.77 162.409 306.034C162.613 306.132 164.698 307.088 167.432 309.063C165.587 299.977 170.178 291.812 170.419 291.384C170.89 290.561 171.867 290.199 172.76 290.496C173.649 290.792 174.208 291.648 174.107 292.603C173.675 296.652 174.906 299.878 176.585 302.314C174.334 293.952 178.708 286.183 178.925 285.788C179.331 285.096 180.182 284.768 180.945 285.031C181.721 285.261 182.218 286.051 182.13 286.874C181.734 290.496 182.929 293.393 184.494 295.565C188.767 293.228 203.929 282.43 206.959 245.362C206.387 241.839 205.793 239.897 205.764 239.798L205.738 239.568H205.709C200.407 239.239 197.991 235.65 195.816 232.391C194.062 229.758 192.397 227.255 189.257 226.202C184.487 224.589 182.974 220.968 181.64 217.807C181.029 216.359 180.458 215.009 179.633 213.791H179.63C174.088 220.54 175.325 232.227 175.338 232.358C175.406 232.951 175.123 233.543 174.61 233.873L173.805 234.103C173.506 234.103 173.208 234.004 172.951 233.84C164.909 228.408 165.052 214.219 165.461 208.557C158.237 217.84 157.357 229.89 157.347 230.021C157.305 230.68 156.867 231.239 156.246 231.436L155.808 231.503C155.331 231.503 154.87 231.272 154.574 230.877C147.012 220.639 148.253 204.376 149.201 197.529C140.132 208.392 138.418 224.194 138.402 224.359C138.33 225.05 137.804 225.61 137.119 225.742H136.866C136.272 225.742 135.72 225.412 135.463 224.852C130.801 214.548 131.353 201.973 132.824 192.657C129.632 199.965 128.333 209.051 128.314 209.182C128.213 209.907 127.655 210.499 126.934 210.631H126.655C126.038 210.631 125.457 210.302 125.168 209.709C121.028 201.545 120.758 193.776 121.645 187.784C118.486 193.907 116.417 199.998 116.385 200.097C116.167 200.755 115.589 201.216 114.921 201.249H114.797C114.174 201.249 113.596 200.886 113.31 200.327C108.907 191.636 109.086 183.801 110.394 178.106C105.352 185.282 103.06 192.229 103.024 192.36C102.836 192.92 102.329 193.348 101.729 193.413L101.557 193.446C101.021 193.446 100.514 193.15 100.235 192.657C96.8195 186.896 96.7058 179.39 97.6539 172.773C95.5272 178.27 94.3357 183.406 94.3162 183.505C94.1766 184.097 93.683 184.591 93.0661 184.69L92.8031 184.722C92.2804 184.722 91.7836 184.426 91.4946 183.966C87.2251 177.151 86.2575 171.127 86.4978 166.551C83.0821 174.024 82.6633 181.661 82.6568 181.793C82.6308 182.353 82.2899 182.879 81.7736 183.11L81.1178 183.274C80.7898 183.274 80.462 183.176 80.1892 182.945C76.2281 179.949 74.228 175.9 73.2085 172.476C71.7539 177.711 71.0851 181.859 71.0688 181.958C70.9812 182.517 70.6045 182.978 70.085 183.175L69.5461 183.274C69.1889 183.274 68.835 183.142 68.5558 182.912C63.5881 178.665 62.2764 172.246 62.205 166.847L62.1952 166.88C60.3283 172.575 59.653 177.085 59.4127 179.159C65.0817 181.365 90.4719 192.262 100.274 216.227C110.304 240.753 122.905 241.938 123.031 241.938C123.83 241.971 124.492 242.597 124.619 243.387C124.937 245.461 132.223 294.413 106.492 303.565C90.0141 309.457 75.9813 325.951 69.5591 341.555H69.5623V341.588" fill="#856854"/>
<path d="M181.76 305.54C182.611 306.824 184.799 309.721 186.744 308.437C188.104 307.548 188.854 305.079 187.991 303.236C186.439 302.38 181.848 299.384 179.711 294.084C179.127 297.442 179.253 301.656 181.76 305.54Z" fill="#E7B38F"/>
<path d="M190.698 300.997C192.783 304.322 191.805 309.293 188.627 311.367C187.799 311.894 186.818 312.256 185.737 312.256L185.127 312.19C185.575 315.482 184.25 319.005 181.568 320.782C180.653 321.375 179.549 321.77 178.341 321.77C179.065 323.251 179.698 324.832 180.221 326.511L180.273 327.334C180.234 327.498 179.497 331.35 176.178 333.424C174.805 334.313 173.24 334.708 171.487 334.708C170.928 334.708 170.344 334.675 169.733 334.609C169.974 335.234 170.204 335.893 170.419 336.584L170.47 337.44C170.432 337.571 169.695 341.423 166.376 343.53C165.003 344.386 163.438 344.814 161.672 344.814C161.34 344.814 160.999 344.781 160.655 344.748C161.253 346.098 161.785 347.513 162.246 348.995C162.334 349.324 162.36 349.62 162.295 349.95C162.256 350.147 161.405 354.624 157.551 357.027C155.977 358.015 154.145 358.509 152.123 358.509C150.928 358.509 149.668 358.344 148.334 357.982C147.801 359.529 146.554 362.065 143.986 363.678C142.46 364.632 140.72 365.126 138.775 365.159C139.944 367.266 140.973 369.603 141.762 372.204C141.866 372.5 141.879 372.829 141.827 373.158C141.801 373.29 141.408 375.265 140.048 377.306H140.044C152.441 370.459 166.013 360.287 177.717 345.11C184.929 334.774 190.497 324.898 194.767 315.614C195.023 315.021 195.273 314.429 195.52 313.803C196.302 311.861 197.121 309.985 197.965 308.207C205.803 288.685 207.936 272.225 208.023 260.308C202.91 285.986 191.526 295.137 186.643 297.968C188.383 299.548 189.961 300.339 189.997 300.372L190.698 300.997" fill="#A08368"/>
<path d="M154.896 225.379C155.863 220.408 158.259 212.113 164.042 205.397C163.23 204.146 162.964 202.829 162.734 201.743C162.292 199.603 162.123 198.78 158.006 199.175C155.639 199.372 153.798 198.846 152.298 197.825H152.295C151.532 203.356 150.473 216.096 154.896 225.379" fill="#E7B38F"/>
<path d="M164.571 340.568C166.12 339.58 166.782 337.901 166.999 337.144C164.48 329.408 159.067 324.437 155.288 321.738C158.366 330.527 159.548 338.231 159.918 341.161C161.798 341.523 163.363 341.325 164.571 340.568Z" fill="#E7B38F"/>
<path d="M106.953 374.607C98.8778 370.393 86.3677 355.909 80.3188 348.535C82.5429 361.406 92.3451 379.447 93.54 381.62C98.5985 386.492 102.897 385.833 105.021 384.977C107.729 383.891 109.712 381.422 109.826 378.986C109.914 377.142 108.923 375.628 106.953 374.607Z" fill="#E7B38F"/>
<path d="M155.441 353.604C157.246 352.518 158.022 350.542 158.292 349.654C155.353 340.699 149.1 334.906 144.714 331.811C148.285 341.983 149.645 350.905 150.077 354.262C152.236 354.69 154.045 354.493 155.441 353.604Z" fill="#E7B38F"/>
<path d="M103.378 162.106C101.502 167.868 98.5665 179.324 101.437 187.883C103.343 183.373 107.372 175.439 114.031 169.02L114.262 168.691L115.018 168.098C116.872 166.419 118.924 164.905 121.174 163.588L121.161 163.555C119.788 162.172 117.97 161.777 115.099 162.6C109.109 164.345 105.956 162.896 103.807 160.822C103.677 161.217 103.534 161.613 103.391 162.074L103.378 162.106" fill="#E7B38F"/>
<path d="M179.422 317.391C180.971 316.371 181.834 313.54 180.831 311.433C179.065 310.412 173.776 307.021 171.321 300.898C170.659 304.783 170.802 309.622 173.685 314.033C174.665 315.548 177.182 318.872 179.422 317.391" fill="#E7B38F"/>
<path d="M92.2899 178.996C93.6796 174.189 96.4913 165.893 100.517 160.856C100.913 159.671 101.264 158.717 101.504 158.091C100.157 156.346 99.0141 154.898 96.777 154.667H96.7705C94.8516 155.721 93.1893 157.07 91.7542 158.552L91.6178 158.947C91.3938 159.309 86.7021 167.441 92.2899 178.996" fill="#E7B38F"/>
<path d="M132.94 363.48C130.119 359.628 126.849 356.83 124.242 354.987C125.44 358.443 126.391 361.702 127.141 364.698C127.93 365.752 128.275 367.167 128.122 368.912C128.947 372.763 129.392 375.792 129.596 377.471C131.768 377.899 133.573 377.668 134.96 376.812C136.765 375.693 137.541 373.718 137.807 372.862C136.716 369.471 135.138 366.575 133.372 364.073L133.333 364.007L132.94 363.48Z" fill="#E7B38F"/>
<path d="M174.373 330.494C175.922 329.507 176.584 327.828 176.815 327.07C175.808 324.009 174.347 321.375 172.721 319.169C171.993 318.445 171.256 317.589 170.532 316.503C168.665 314.429 166.73 312.849 165.09 311.664C168.168 320.454 169.35 328.157 169.72 331.087C171.6 331.449 173.165 331.251 174.373 330.494Z" fill="#E7B38F"/>
<path d="M138.019 185.086L137.405 185.612C135.665 192.888 133.327 206.418 136.369 218.104C137.833 211.619 141.22 201.183 148.61 193.579C147.925 192.394 147.314 191.176 146.73 189.99C144.658 185.777 142.827 182.057 138.489 181.497C138.402 181.794 138.298 182.155 138.184 182.583L138.334 182.715C138.895 183.439 138.752 184.526 138.019 185.086Z" fill="#E7B38F"/>
<path d="M126.064 203.026C127.388 197.134 130.06 188.212 134.713 183.537C134.914 182.747 135.103 182.056 135.268 181.464C132.041 181.431 129.869 180.015 128.281 178.04L128.077 178.237C127.843 178.665 121.992 189.825 126.064 203.026" fill="#E7B38F"/>
<path d="M300.441 156.049C298.928 158.518 297.682 161.152 296.74 163.885L296.792 163.95C297.454 162.107 298.636 159.276 300.441 156.049" fill="#A08368"/>
<path d="M67.1074 105.451L66.9321 105.056C65.8704 106.011 64.8119 106.966 63.7794 107.953C64.8606 107.064 65.971 106.241 67.1042 105.451H67.1074Z" fill="#A08368"/>
<path d="M49.2402 160.395C47.3603 164.806 46.4543 168.987 46.0388 172.279L46.0258 172.312L46.0226 172.345L46.029 172.312L46.042 172.279C46.4608 168.987 47.3635 164.806 49.2467 160.395V160.362L49.2499 160.329L49.2402 160.362V160.395" fill="#A08368"/>
<path d="M239.885 211.124C239.885 210.236 240.576 209.544 241.427 209.544C242.278 209.544 242.969 210.236 242.969 211.124C242.969 211.98 242.278 212.671 241.427 212.671C240.576 212.671 239.885 211.98 239.885 211.124ZM246.203 211.124C246.203 208.458 244.07 206.252 241.437 206.252C238.807 206.252 236.657 208.458 236.657 211.124C236.657 213.758 238.716 215.865 241.297 215.963H241.323L242.148 215.898H242.213C244.476 215.503 246.203 213.528 246.203 211.124Z" fill="#A08368"/>
<path d="M143.943 101.928H143.956L143.973 101.961L143.963 101.928H143.95C141.177 100.874 138.216 99.821 135.125 98.8663H135.128C138.216 99.821 141.174 100.874 143.943 101.928" fill="#A08368"/>
<path d="M163.941 111.474C164.529 111.804 165.048 112.1 165.519 112.396H165.526C164.113 108.676 162.688 105.055 161.24 101.533C162.561 104.924 163.821 108.347 165.016 111.771C164.659 111.672 164.305 111.54 163.948 111.474L163.909 111.442H163.899H163.905L163.941 111.474" fill="#A08368"/>
<path d="M102.732 452.76L102.998 452.793L102.959 452.563L102.794 452.727L102.732 452.76" fill="#A08368"/>
<path d="M190.686 56.7285C178.773 43.7908 165.766 31.6763 151.224 21.8002C165.13 31.808 178.617 44.2188 190.686 56.7285Z" fill="#A08368"/>
<path d="M49.3764 160.066H49.3732C49.5615 159.671 49.7498 159.242 49.9511 158.814H49.9544C49.7531 159.242 49.5615 159.671 49.3764 160.066Z" fill="#A08368"/>
<path d="M53.7985 357.159C51.99 365.06 51.6102 371.776 52.016 377.34C52.1297 378.986 52.3082 380.533 52.5517 381.981C53.9738 390.639 57.2434 395.907 58.9058 398.112C59.3279 398.672 59.6461 399.034 59.7987 399.232C60.3961 399.594 60.9805 399.923 61.5519 400.219L61.6299 400.153L61.5649 400.219C62.8474 400.878 64.0552 401.306 65.2014 401.536C65.9774 401.701 66.7274 401.766 67.4385 401.733H67.445C68.2957 401.701 69.0976 401.536 69.8574 401.207L70.6853 400.779L71.1496 400.515H71.1626C73.0945 399.231 74.4061 397.19 75.2568 395.412C75.6659 394.556 75.9679 393.767 76.1594 393.174C71.5587 389.619 67.7697 385.273 64.6657 380.73C58.9318 372.27 55.5745 363.151 53.7985 357.159" fill="#E7B38F"/>
<path d="M46.4607 398.243C47.1101 398.968 47.7821 399.659 48.4835 400.351L48.5841 400.021C48.0387 399.626 47.3146 399.034 46.4607 398.243Z" fill="#A08368"/>
<path d="M51.4287 144.856C45.0194 147.226 41.9803 148.543 40.6102 149.202L40.568 149.497C40.5453 149.629 37.6458 161.876 42.7564 173.529C43.3668 166.353 46.1265 154.107 57.0716 144.099C55.5326 143.869 53.7014 144 51.4287 144.856" fill="#E7B38F"/>
<path d="M61.7893 145.943C61.3705 145.713 60.9354 145.482 60.4808 145.219C57.9613 147.359 55.8768 149.63 54.1495 151.935C53.6008 154.272 50.6007 168.428 56.6139 176.822C57.2503 172.576 58.9159 164.971 63.1887 156.247C64.981 152.593 67.0654 149.104 69.4161 145.812C66.5687 148.643 64.0524 147.227 61.7893 145.943Z" fill="#E7B38F"/>
<path d="M129.716 97.3194H129.722C77.2276 36.9106 22.8529 29.1418 6.54077 28.253C47.4119 58.2763 65.9092 95.3772 69.7112 103.706C73.8315 101.138 78.2049 99.0312 82.8544 97.484C98.7607 92.1509 115.401 93.6323 129.716 97.3194Z" fill="#A08368"/>
<path d="M165.526 112.397C166.896 113.22 167.73 113.779 167.961 113.911C168.672 114.372 168.876 115.359 168.419 116.083C168.126 116.511 167.659 116.775 167.165 116.775C173.863 135.079 180.055 155.852 185.153 179.159C185.344 180.015 186.159 180.542 186.997 180.344C187.835 180.18 188.357 179.324 188.166 178.501C164.379 69.5018 116.576 16.3022 103.569 3.46327C158.201 10.2448 227.54 103.574 235.742 117.105C239.161 122.734 242.352 125.005 246.054 127.639C250.018 130.503 254.658 133.795 261.46 142.289C261.181 141.795 261.155 141.169 261.46 140.675C261.525 140.544 261.931 139.819 262.388 138.535L261.944 138.009C257.317 132.577 253.667 129.45 250.615 127.145L250.589 127.112C249.612 126.388 248.696 125.729 247.833 125.104C244.131 122.437 241.463 120.528 238.372 115.458C237.115 113.352 234.586 109.631 231.024 104.726L230.949 104.628C222.482 93.0067 208.166 74.9007 190.952 57.025L190.685 56.7286C178.617 44.2189 165.129 31.808 151.223 21.8003L151.019 21.6684C133.765 9.29042 115.891 0.599202 99.2998 0.00663713C98.6765 -0.0592035 98.0401 0.368632 97.8128 1.02704C97.5693 1.6196 97.7609 2.34411 98.2674 2.77207C98.394 2.87083 100.901 5.04383 105.073 9.45515C112.229 17.0597 124.281 31.4127 137.401 53.4693L137.807 54.1605C145.398 66.9994 153.343 82.4393 160.883 100.677L161.24 101.533C162.688 105.055 164.113 108.677 165.526 112.397" fill="#171717"/>
<path d="M279.197 205.397C277.658 212.31 276.438 217.742 278.905 222.318C284.792 233.281 284.879 240.227 282.847 252.605C281.788 259.057 285.262 263.864 288.337 268.077C292.061 273.213 293.844 276.077 290.409 279.994C285.808 285.229 282.847 291.286 280.671 295.73C279.769 297.574 278.753 299.615 278.181 300.307C277.619 300.307 277.087 300.635 276.821 301.195C276.438 301.952 276.743 302.907 277.506 303.269C277.798 303.434 278.129 303.5 278.447 303.5L279.132 303.4C280.597 302.907 281.548 300.965 283.431 297.113C285.529 292.833 288.389 287.007 292.724 282.069C297.974 276.077 294.172 270.843 290.818 266.234C287.983 262.316 285.045 258.267 285.896 253.131C286.646 248.523 287.116 244.605 287.129 240.918C286.597 240.918 286.074 240.885 285.542 240.885C284.688 240.852 284.016 240.161 284.029 239.305C284.042 238.416 284.766 237.758 285.59 237.758C286.061 237.758 286.545 237.758 287.016 237.791C286.61 232.326 285.019 227.157 281.613 220.837C279.704 217.281 280.811 212.343 282.21 206.088C284.931 193.875 288.655 177.151 274.34 155.029C270.704 149.4 267.489 144.922 264.6 141.268C264.346 141.861 264.158 142.19 264.106 142.256C263.674 143.013 262.733 143.244 261.996 142.816L261.677 142.552C264.6 146.206 267.931 150.815 271.772 156.741C285.35 177.744 281.788 193.71 279.197 205.397" fill="#171717"/>
<path d="M37.8113 148.247V148.214C38.1684 147.72 38.8145 147.424 39.4508 147.588C40.1879 147.786 40.6717 148.477 40.61 149.201C41.9802 148.543 45.0192 147.226 51.4285 144.856C53.7013 144 55.5324 143.868 57.0714 144.099C57.5812 143.605 58.1137 143.144 58.6624 142.683C59.3215 142.123 60.3021 142.255 60.8345 142.913C61.3833 143.572 61.2794 144.56 60.6333 145.086L60.4806 145.218C60.9352 145.481 61.3703 145.712 61.7891 145.942C64.0521 147.226 66.5684 148.642 69.4159 145.81L69.4419 145.778C70.5361 144.197 71.718 142.716 72.9518 141.234L73.5005 140.807C72.8641 140.478 72.2147 140.28 71.5037 140.313C70.2699 140.346 69.1367 141.07 68.1562 142.486C66.4029 144.955 65.8055 144.625 63.2762 143.21C60.669 141.761 56.7273 139.555 50.383 141.893C46.6459 143.275 43.6328 144.461 41.4477 145.416C48.4122 128.132 57.9189 115.392 69.8153 107.393L69.614 107.458L69.0296 107.59C68.4191 107.59 67.8445 107.228 67.6042 106.635C67.5912 106.569 67.4256 106.174 67.1075 105.45H67.1042C65.9711 106.24 64.8606 107.063 63.7794 107.952L63.7469 107.985L63.7209 108.018C58.4578 112.264 53.6882 117.466 49.4576 123.622L49.4187 123.688C45.6686 129.153 42.3113 135.375 39.3892 142.321L39.3633 142.354L39.3243 142.486C38.5483 144.296 37.8242 146.14 37.1229 148.049C36.9216 148.576 37.0352 149.201 37.3924 149.596C37.4931 149.102 37.5579 148.806 37.5839 148.74L37.8113 148.247" fill="#171717"/>
<path d="M143.944 101.928C141.174 100.874 138.216 99.8213 135.129 98.8666L135.531 99.3276C136.08 99.986 135.992 101.006 135.343 101.533C134.694 102.093 133.726 102.027 133.168 101.368C132.025 99.9858 130.879 98.6358 129.723 97.319H129.716C115.401 93.6319 98.7609 92.1505 82.8546 97.4836C78.2051 99.0308 73.8317 101.138 69.7114 103.706L69.7147 103.738C70.1985 104.792 70.4387 105.385 70.4646 105.451C70.7309 106.109 70.5166 106.833 70.0004 107.261C74.2959 104.364 78.8935 102.126 83.8092 100.48C121.784 87.7397 165.837 116.248 166.282 116.545L167.159 116.775H167.165C167.659 116.775 168.126 116.512 168.418 116.084C168.876 115.359 168.672 114.372 167.961 113.911C167.73 113.779 166.896 113.22 165.526 112.397H165.519C165.048 112.1 164.529 111.804 163.941 111.475L163.905 111.442H163.899C159.756 109.072 152.746 105.352 143.973 101.961L143.957 101.928H143.944" fill="#171717"/>
<path d="M73.7667 145.152C74.3382 145.81 74.9356 146.534 75.4421 147.193C76.6109 148.608 77.9844 150.321 79.6143 151.835H79.6175C80.0201 151.407 80.4357 150.979 80.8643 150.584C81.4974 150.024 82.4747 150.057 83.0396 150.716C83.6078 151.341 83.5527 152.328 82.9163 152.921C82.6208 153.184 82.3319 153.481 82.0462 153.777C84.2962 155.258 86.9391 156.18 90.0756 155.818H90.0788C91.6925 154.238 93.5432 152.822 95.6861 151.703L96.2446 151.539C94.9361 151.506 93.4068 151.736 91.5886 152.295C88.03 153.415 85.2313 152.395 82.8676 150.551L82.8416 150.518L82.7539 150.452H82.7279C80.9097 148.971 79.3188 147.028 77.8318 145.185C77.059 144.23 76.335 143.308 75.6337 142.584L75.3025 143.242C74.783 143.901 74.2602 144.526 73.7667 145.152Z" fill="#171717"/>
<path d="M129.57 176.889C129.135 177.218 128.703 177.613 128.281 178.041C129.869 180.016 132.041 181.432 135.268 181.465C135.616 180.247 135.866 179.49 135.921 179.325C136.122 178.732 136.658 178.337 137.249 178.271H137.129H137.103C136.788 178.271 136.479 178.304 136.151 178.337C133.317 178.535 131.573 177.481 130.213 175.407L130.19 175.375C130.249 175.934 130.051 176.527 129.57 176.889" fill="#171717"/>
<path d="M97.7644 152.395C98.1573 153.153 97.8618 154.107 97.1053 154.503L96.7709 154.667H96.7774C99.0145 154.898 100.157 156.346 101.505 158.091C101.69 157.63 101.813 157.333 101.849 157.235C102.18 156.444 103.086 156.049 103.872 156.411C104.657 156.741 105.021 157.663 104.69 158.453C104.674 158.486 104.317 159.374 103.807 160.823C105.956 162.897 109.109 164.346 115.099 162.601C117.97 161.778 119.788 162.173 121.161 163.556L121.174 163.588C121.713 163.259 122.249 162.93 122.814 162.666C123.564 162.271 124.473 162.568 124.866 163.325L124.811 163.226L124.707 163.062C122.726 160.033 119.713 158.025 114.245 159.605C108.437 161.284 106.541 159.506 104.57 157.004L104.43 156.807L104.086 156.379C102.485 154.239 100.579 151.77 96.6248 151.54H96.5988H96.3456H96.3391C96.917 151.54 97.482 151.836 97.7644 152.395" fill="#171717"/>
<path d="M138.843 180.344C138.833 180.377 138.7 180.772 138.489 181.496C142.827 182.056 144.658 185.776 146.73 189.99C147.314 191.175 147.925 192.393 148.61 193.578C148.908 193.249 149.201 192.953 149.512 192.657C150.132 192.064 151.106 192.097 151.694 192.722L152.035 193.381C152.574 193.71 152.882 194.335 152.746 194.994C152.736 195.06 152.528 196.113 152.295 197.825H152.298C153.798 198.845 155.639 199.372 158.006 199.174C162.123 198.779 162.292 199.603 162.733 201.742C162.964 202.829 163.23 204.146 164.042 205.396C164.334 205.067 164.626 204.705 164.935 204.376C165.522 203.751 166.5 203.751 167.117 204.343L167.474 204.87L168 205.034L167.961 205.002C167.63 204.804 167.35 204.574 167.12 204.343C166.22 203.389 165.99 202.269 165.763 201.117C165.113 197.989 164.071 195.454 157.727 196.047C155.36 196.277 153.785 195.389 152.438 193.71C151.421 192.426 150.519 190.681 149.499 188.607C147.262 184.064 144.528 178.467 137.626 178.303L137.499 178.27H137.304L137.876 178.369C138.684 178.632 139.113 179.521 138.843 180.344" fill="#171717"/>
<path d="M180.753 212.573C180.351 212.968 179.977 213.363 179.63 213.791H179.633C180.458 215.009 181.029 216.359 181.64 217.807C182.974 220.968 184.487 224.589 189.257 226.202C192.396 227.255 194.062 229.758 195.815 232.391C197.991 235.65 200.406 239.239 205.708 239.568H205.738C205.621 238.811 206.023 238.053 206.751 237.823C207.562 237.56 208.432 238.021 208.699 238.811C208.705 238.844 208.764 239.041 208.855 239.37C209.754 239.238 210.731 239.041 211.77 238.712C219.335 236.539 229.875 239.008 237.401 244.769C242.817 248.917 245.794 254.02 245.794 259.122C245.794 259.978 246.492 260.703 247.343 260.703C248.197 260.703 248.882 259.978 248.882 259.122C248.882 252.999 245.463 247.041 239.258 242.267C230.881 235.881 219.488 233.247 210.92 235.716C203.254 237.955 201.208 234.893 198.371 230.646C196.491 227.815 194.367 224.622 190.234 223.239C186.789 222.087 185.773 219.651 184.474 216.557C183.636 214.581 182.695 212.343 180.877 210.434L180.851 210.4C181.403 211.026 181.367 212.014 180.753 212.573" fill="#171717"/>
<path d="M124.21 165.432C123.765 165.662 123.333 165.893 122.904 166.156C123.489 167.341 124.034 168.79 124.619 170.436C125.154 171.95 125.739 173.563 126.476 175.078C126.826 174.781 127.18 174.452 127.538 174.188C128.128 173.728 128.911 173.761 129.492 174.156L129.476 174.123C128.791 172.806 128.18 171.193 127.518 169.349C126.807 167.374 126.034 165.234 124.904 163.391C125.242 164.148 124.947 165.07 124.21 165.432" fill="#171717"/>
<path d="M168.747 206.581C168.743 206.647 168.643 207.437 168.552 208.721C169.516 209.083 170.672 209.38 172.029 209.577C174.458 209.939 176.175 210.63 177.458 211.552H177.464C177.838 211.124 178.224 210.697 178.649 210.302C179.26 209.709 180.201 209.742 180.786 210.334L180.714 210.269L180.585 210.137C178.844 208.458 176.351 207.076 172.5 206.483C170.37 206.154 168.961 205.66 168.01 205.034C168.526 205.364 168.834 205.956 168.747 206.581" fill="#171717"/>
<path d="M67.1074 105.451C67.4256 106.175 67.5912 106.57 67.6042 106.636C67.8444 107.228 68.4191 107.59 69.0295 107.59L69.6139 107.459L69.8152 107.393L69.8282 107.36L69.9938 107.261H70.0003C70.5165 106.833 70.7308 106.109 70.4646 105.451C70.4386 105.385 70.1984 104.792 69.7146 103.738L69.7114 103.705C65.9093 95.3766 47.4121 58.2757 6.54091 28.2524C22.853 29.1413 77.2277 36.9101 129.723 97.3188C130.878 98.6356 132.025 99.9856 133.168 101.368C133.726 102.027 134.694 102.093 135.343 101.533C135.992 101.006 136.08 99.9859 135.531 99.3275L135.129 98.8665H135.125C131.096 94.0601 127.067 89.5828 123.034 85.4019L122.985 85.3691C115.94 78.0608 108.936 71.641 102.056 66.0445L102.008 65.979C80.0882 48.1362 59.5942 38.3256 44.1977 32.9596C42.7626 32.4658 41.3372 31.9724 39.9638 31.5445H39.9508C17.1937 24.2691 2.12845 24.9931 1.4661 25.026C0.868682 25.0589 0.336193 25.4541 0.118655 25.9808L0.0569842 26.1454L0.0439841 26.211C-0.108617 26.8365 0.14465 27.5283 0.667391 27.8904C12.3528 36.0217 22.2816 44.7784 30.6324 53.4364L31.3825 54.2267C52.8927 76.6783 63.6755 98.0101 66.7015 104.561L66.7502 104.66L66.9321 105.055L67.1074 105.451Z" fill="#171717"/>
<path d="M197.617 316.799C193.244 326.346 187.536 336.486 180.123 347.086C186.701 338.593 192.708 328.585 197.617 316.799Z" fill="#171717"/>
<path d="M194.767 315.614C195.926 313.112 196.991 310.643 197.965 308.207C197.121 309.985 196.302 311.861 195.52 313.804C195.273 314.429 195.023 315.022 194.767 315.614" fill="#171717"/>
<path d="M177.685 347.877C176.99 347.383 176.828 346.395 177.325 345.703L177.717 345.111C166.013 360.288 152.441 370.46 140.044 377.307H140.035C139.333 378.36 138.379 379.414 137.083 380.204C135.496 381.192 133.677 381.718 131.642 381.718L131.327 381.686H131.317C120.446 386.657 111.229 388.994 106.144 390.015C93.7964 392.517 88.4716 398.376 84.9358 402.261C82.3058 405.158 81.1467 406.277 79.1012 405.685C77.1304 405.125 75.4518 403.973 73.9388 402.787H73.9355C73.1206 403.446 72.2179 404.038 71.1887 404.466L71.1011 404.5H71.0913C73.0492 406.113 75.2862 407.857 78.2505 408.713C82.2182 409.865 84.5299 407.331 87.1988 404.368C90.6599 400.582 95.3873 395.413 106.742 393.076C118.829 390.64 153.528 380.961 179.565 347.811C179.286 348.041 178.935 348.173 178.578 348.173C178.269 348.173 177.954 348.074 177.685 347.877" fill="#171717"/>
<path d="M200.656 309.753C209.936 290.067 224.228 278.051 243.157 273.969C258.567 270.677 271.486 274.134 271.613 274.199C272.437 274.43 273.288 273.936 273.505 273.08C273.733 272.257 273.249 271.401 272.437 271.171C271.966 271.039 231.352 260.307 205.744 295.104C204.387 299.778 202.705 304.683 200.646 309.786L200.656 309.753" fill="#171717"/>
<path d="M67.4451 401.733H67.4516C68.3022 401.7 69.1042 401.536 69.8672 401.207L70.6854 400.778L69.8574 401.207C69.0977 401.536 68.2957 401.7 67.4451 401.733Z" fill="#171717"/>
<path d="M169.48 397.815L169.834 397.157C162.944 402.194 157.272 408.152 152.886 415.066C136.817 440.348 141.291 471.985 148.551 495.292C140.645 490.716 120.313 476.165 111.54 443.805C111.427 443.377 111.135 443.015 110.742 442.817C110.576 442.718 106.774 440.842 103.683 442.784C101.969 443.871 100.901 445.813 100.482 448.578C99.605 447.294 98.7901 444.826 99.2479 440.217C99.3258 439.427 98.829 438.702 98.079 438.537C97.3419 438.34 96.0952 438.439 95.04 439.36C93.5399 440.677 92.8419 443.146 92.9165 446.899C91.7964 445.846 90.4489 443.574 89.9944 438.867C89.9295 438.241 89.5333 437.747 88.9748 437.517C88.4034 437.32 87.78 437.484 87.3612 437.912C87.1956 438.077 83.6371 441.764 84.3741 447.459C82.452 446.834 79.7214 445.122 78.6402 440.711L78.2344 439.986C77.546 439.295 76.2635 438.637 74.9031 439.097C73.0849 439.756 72.0037 441.961 71.4939 446.109C71.2407 448.216 68.9386 450.06 66.0392 452.397C60.3443 457.006 52.0421 463.722 52.4739 479.326C47.0452 470.108 37.7268 445.945 51.2661 401.766C53.4545 403.017 57.2923 404.663 60.9547 403.774C59.9255 403.313 58.8702 402.753 57.789 402.062L57.4968 401.831L57.4189 401.766C56.8734 401.832 56.3019 401.865 55.7045 401.865C53.9512 401.865 52.0291 401.536 49.9316 400.877L49.6395 400.745C49.5388 400.679 49.1687 400.449 48.5842 400.021L48.4836 400.35C48.24 401.107 48.0128 401.897 47.7953 402.654L47.7823 402.688C43.4997 417.041 41.6035 429.287 41.1717 439.624V439.69C40.0905 465.532 48.2401 479.326 51.8408 484.099H51.8538C52.6525 485.186 53.224 485.779 53.4026 485.976L53.4285 486.009C53.8993 486.47 54.6103 486.601 55.2077 486.272C55.8052 485.976 56.1364 485.318 56.0357 484.659C55.5519 481.367 55.4253 478.437 55.5877 475.836L55.6007 475.804V475.771C56.1624 466.882 60.078 461.813 64.26 457.994L64.273 457.96C65.5068 456.841 66.7632 455.821 67.9581 454.866C71.2406 452.2 74.0751 449.928 74.5329 446.603H74.5459L74.5589 446.505C74.9778 443.147 75.6758 442.258 75.8154 442.126C76.0979 443.081 76.4519 443.937 76.861 444.727C77.0363 445.089 77.2408 445.418 77.4453 445.747C78.0395 446.669 78.7149 447.459 79.4162 448.084C81.8188 450.29 84.6533 450.982 86.3936 450.982C86.8904 450.982 87.3612 450.751 87.6534 450.356C87.9327 449.928 88.0235 449.402 87.8547 448.941C87.6924 448.447 87.5755 447.953 87.5008 447.492C87.2314 445.978 87.3872 444.628 87.7054 443.509C87.9456 444.398 88.2249 445.155 88.5431 445.846V445.879L88.6957 446.208C88.9359 446.702 89.1924 447.163 89.4586 447.558C91.6697 450.916 94.4426 450.982 94.6211 450.982C95.053 450.982 95.4718 450.817 95.764 450.488C96.0562 450.159 96.1958 449.731 96.1601 449.27C96.0952 448.612 96.0433 447.986 96.0205 447.426C95.9686 446.208 96.0075 445.22 96.1081 444.463C96.1698 445.22 96.2738 445.912 96.4264 446.537V446.57C97.6342 452.167 101.319 453.023 101.524 453.056C101.943 453.122 102.375 453.023 102.719 452.759H102.732L102.793 452.727L102.959 452.562C103.228 452.299 103.368 451.903 103.368 451.508C103.368 450.619 103.417 449.83 103.521 449.105L103.534 449.072C103.8 447.261 104.397 446.01 105.3 445.451C106.102 444.957 107.157 444.99 108.021 445.155L108.466 445.286L108.771 445.385C112.05 457.171 116.768 466.619 121.839 474.125L121.94 474.256C134.668 492.988 149.72 499.506 150.6 499.901L151.184 500C151.577 500 151.947 499.868 152.236 499.572C152.684 499.177 152.847 498.518 152.645 497.959C151.324 494.008 150.064 489.762 148.957 485.35L148.944 485.251C143.885 464.907 142.194 440.348 153.675 419.773L153.701 419.74C154.259 418.72 154.856 417.732 155.48 416.744C158.71 411.675 162.662 407.099 167.341 403.05H167.367H167.379C168.626 401.963 169.909 400.91 171.269 399.922C170.85 399.791 170.61 399.758 170.584 399.725C169.756 399.527 169.263 398.671 169.48 397.815Z" fill="#171717"/>
<path d="M171.347 396.696C171.409 396.729 172.529 397.025 174.422 397.716C187.734 388.861 205.468 383.331 227.44 381.125C271.262 376.747 291.682 346.394 301.117 321.737C311.26 295.17 311.12 269.262 311.107 269.031C311.107 268.143 310.409 267.484 309.572 267.484H309.559C308.705 267.484 308.016 268.175 308.029 269.031C308.029 269.295 308.169 294.577 298.227 320.617C284.98 355.282 261.067 374.607 227.147 377.998C203.27 380.401 184.263 386.721 170.253 396.828C170.571 396.663 170.968 396.597 171.347 396.696" fill="#171717"/>
<path d="M197.965 308.207C196.991 310.643 195.926 313.112 194.767 315.614C190.497 324.898 184.929 334.774 177.717 345.111L177.325 345.703C176.828 346.394 176.99 347.382 177.685 347.876C177.954 348.074 178.269 348.172 178.578 348.172C178.935 348.172 179.286 348.04 179.565 347.81L179.834 347.513L180.123 347.086C187.536 336.486 193.244 326.346 197.617 316.799C198.705 314.429 199.718 312.058 200.647 309.787C202.705 304.684 204.387 299.779 205.744 295.105C212.472 271.962 211.426 254.316 210.059 245.362C209.618 250.893 208.913 255.864 208.023 260.308C207.936 272.225 205.803 288.685 197.965 308.207" fill="#171717"/>
<path d="M206.751 237.824C206.023 238.054 205.621 238.812 205.738 239.569L205.764 239.799C205.793 239.898 206.387 241.84 206.959 245.363L206.985 245.099C207.053 244.243 207.787 243.585 208.647 243.651C209.257 243.716 209.744 244.112 209.952 244.672C209.524 242.005 209.082 240.227 208.855 239.371C208.764 239.042 208.705 238.844 208.699 238.812C208.433 238.021 207.562 237.561 206.751 237.824" fill="#171717"/>
<path d="M51.2502 150.782C51.4775 149.926 52.3184 149.432 53.1431 149.663C53.971 149.893 54.4548 150.749 54.2242 151.572L54.1496 151.934C55.8769 149.63 57.9614 147.358 60.4809 145.219L60.6336 145.087C61.2797 144.561 61.3836 143.573 60.8348 142.914C60.3024 142.256 59.3218 142.124 58.6627 142.684C58.114 143.145 57.5815 143.606 57.0717 144.1C46.1266 154.108 43.3669 166.353 42.7565 173.53C37.646 161.876 40.5454 149.63 40.5681 149.498L40.6103 149.202C40.672 148.478 40.1882 147.787 39.4511 147.589C38.8148 147.425 38.1687 147.721 37.8116 148.215V148.248L37.5842 148.741C37.5582 148.807 37.4934 149.103 37.3927 149.597C36.6687 153.317 34.5192 167.868 42.948 180.246C43.2532 180.674 43.724 180.904 44.2176 180.904L44.7533 180.839C45.4156 180.575 45.8215 179.917 45.7566 179.193C45.7436 179.127 45.5163 176.427 46.0228 172.345L46.026 172.312L46.039 172.279C46.4546 168.987 47.3605 164.807 49.2404 160.395V160.362L49.2502 160.329L49.367 160.099V160.066H49.3767C49.5618 159.671 49.7534 159.243 49.9547 158.815C50.3086 154.371 51.1625 151.111 51.2502 150.782" fill="#171717"/>
<path d="M167.175 206.549C166.568 207.207 165.996 207.865 165.461 208.557C165.052 214.219 164.909 228.408 172.951 233.84C173.208 234.004 173.506 234.103 173.805 234.103L174.61 233.872C175.123 233.543 175.406 232.951 175.338 232.358C175.325 232.226 174.088 220.54 179.63 213.791C179.977 213.363 180.351 212.968 180.753 212.573C181.367 212.014 181.403 211.025 180.851 210.4L180.831 210.367L180.786 210.334C180.201 209.742 179.26 209.709 178.649 210.302C178.224 210.697 177.838 211.124 177.464 211.552C173.055 216.721 172.188 224.161 172.12 228.704C168.065 223.075 168.246 213.1 168.552 208.721C168.643 207.437 168.743 206.647 168.747 206.581C168.834 205.956 168.526 205.364 168.009 205.034H168L167.474 204.87C167.704 205.396 167.61 206.088 167.175 206.549" fill="#171717"/>
<path d="M151.629 194.928C150.762 195.751 149.961 196.64 149.201 197.529C148.253 204.377 147.012 220.64 154.574 230.878C154.87 231.273 155.331 231.503 155.808 231.503L156.246 231.437C156.867 231.24 157.305 230.68 157.347 230.022C157.357 229.89 158.237 217.841 165.461 208.558C165.997 207.866 166.568 207.208 167.175 206.55C167.61 206.089 167.704 205.397 167.474 204.871L167.117 204.344C166.5 203.752 165.523 203.751 164.935 204.377C164.627 204.706 164.334 205.068 164.042 205.397C158.259 212.113 155.863 220.409 154.896 225.38C150.474 216.096 151.532 203.356 152.295 197.826C152.529 196.114 152.737 195.061 152.746 194.995C152.883 194.336 152.574 193.711 152.035 193.381C152.188 193.908 152.061 194.533 151.629 194.928" fill="#171717"/>
<path d="M137.405 185.612C135.57 187.258 134.057 189.826 132.824 192.657C131.353 201.974 130.801 214.549 135.463 224.853C135.72 225.413 136.272 225.742 136.866 225.742H137.119C137.804 225.611 138.33 225.05 138.402 224.359C138.418 224.195 140.132 208.393 149.201 197.529C149.96 196.64 150.762 195.751 151.629 194.928C152.061 194.533 152.188 193.908 152.035 193.381L151.694 192.723C151.107 192.097 150.133 192.065 149.512 192.657C149.201 192.954 148.908 193.249 148.61 193.579C141.22 201.183 137.833 211.619 136.369 218.104C133.327 206.418 135.665 192.888 137.405 185.612" fill="#171717"/>
<path d="M135.921 179.325C135.866 179.489 135.616 180.246 135.268 181.464C135.103 182.057 134.915 182.748 134.713 183.538C135.122 183.11 135.544 182.715 135.986 182.386C136.668 181.859 137.603 181.958 138.184 182.583C138.298 182.155 138.402 181.794 138.489 181.497C138.7 180.773 138.833 180.378 138.843 180.345C139.113 179.522 138.684 178.633 137.876 178.37L137.304 178.271H137.249C136.658 178.337 136.122 178.732 135.921 179.325" fill="#171717"/>
<path d="M56.1432 179.851L56.5133 179.225C56.9581 178.731 57.6562 178.534 58.3185 178.764C58.4322 178.797 58.8153 178.929 59.4127 179.159C59.653 177.085 60.3283 172.575 62.1952 166.88L62.205 166.847C62.14 161.679 63.2083 157.498 63.2992 157.136C63.52 156.313 64.3641 155.819 65.1856 156.049C65.7148 156.181 66.0785 156.576 66.2344 157.069L66.2538 157.037C68.361 152.823 70.8806 148.84 73.767 145.153C74.2605 144.527 74.7833 143.901 75.3027 143.243L75.6339 142.584C75.7606 142.025 75.5852 141.432 75.1372 141.07C74.6664 140.642 74.0332 140.577 73.5007 140.807L72.952 141.235C71.7182 142.716 70.5364 144.198 69.4422 145.778L69.4162 145.811C67.0655 149.103 64.981 152.592 63.1888 156.246C58.9159 164.97 57.2503 172.575 56.6139 176.822C50.6008 168.427 53.6008 154.271 54.1496 151.934L54.2242 151.572C54.4548 150.749 53.971 149.893 53.1431 149.662C52.3184 149.432 51.4774 149.926 51.2502 150.782C51.1625 151.111 50.3086 154.37 49.9547 158.814H49.9514C49.6982 162.074 49.6982 165.925 50.4352 169.711H50.4482C51.2502 173.859 52.9515 177.941 56.1821 181.036C56.0295 180.641 56.0035 180.246 56.1432 179.851" fill="#171717"/>
<path d="M68.5558 182.912C68.835 183.142 69.189 183.274 69.5461 183.274L70.0851 183.175C70.6046 182.978 70.9812 182.517 71.0689 181.958C71.0851 181.859 71.754 177.711 73.2086 172.476C72.1404 168.888 72.1533 165.991 72.1566 165.793C72.1728 164.904 72.8838 164.213 73.7248 164.246C74.5787 164.246 75.2573 164.971 75.2443 165.827L75.2475 166.057C76.9391 161.448 79.1827 156.806 82.0464 153.777C82.3322 153.481 82.6211 153.185 82.9166 152.922C83.553 152.329 83.6081 151.342 83.0399 150.716C82.475 150.058 81.4977 150.025 80.8645 150.584C80.436 150.979 80.0204 151.408 79.6178 151.836C73.2021 158.848 69.835 172.345 68.5915 178.402C63.0004 170.83 66.2441 158.09 66.2798 157.959C66.3577 157.629 66.322 157.366 66.2344 157.069C66.0785 156.576 65.7148 156.181 65.1856 156.049C64.3641 155.819 63.52 156.313 63.2992 157.136C63.2083 157.498 62.1401 161.679 62.205 166.847C62.2764 172.246 63.5882 178.665 68.5558 182.912" fill="#171717"/>
<path d="M90.0791 155.819C82.9361 162.798 80.6275 173.233 79.9002 178.468C75.6696 173.694 75.2832 167.341 75.2475 166.057L75.2443 165.827C75.2573 164.971 74.5787 164.246 73.7248 164.246C72.8838 164.213 72.1728 164.904 72.1566 165.793C72.1533 165.991 72.1403 168.888 73.2086 172.476C74.2281 175.9 76.2281 179.949 80.1893 182.945C80.462 183.176 80.7899 183.274 81.1178 183.274L81.7737 183.11C82.2899 182.879 82.6308 182.353 82.6568 181.793C82.6633 181.661 83.0822 174.024 86.4978 166.551C86.7836 161.02 88.8128 157.564 88.9686 157.3C89.4199 156.543 90.3745 156.313 91.1051 156.774C91.7122 157.169 91.9428 157.892 91.7544 158.551C93.1895 157.069 94.8519 155.72 96.7708 154.667L97.1052 154.502C97.8617 154.107 98.1572 153.152 97.7643 152.395C97.4819 151.835 96.917 151.539 96.339 151.539H96.2448L95.6864 151.704C93.5435 152.823 91.6928 154.239 90.0791 155.819" fill="#171717"/>
<path d="M100.716 160.626C101.271 159.934 102.248 159.869 102.904 160.428C103.391 160.856 103.56 161.482 103.391 162.074C103.534 161.613 103.677 161.218 103.807 160.823C104.316 159.374 104.673 158.486 104.69 158.453C105.021 157.663 104.657 156.741 103.871 156.412C103.086 156.049 102.18 156.444 101.849 157.235C101.813 157.333 101.69 157.63 101.505 158.091C101.264 158.716 100.914 159.671 100.517 160.856L100.716 160.626Z" fill="#171717"/>
<path d="M101.436 187.883C98.566 179.324 101.501 167.867 103.378 162.106L103.092 162.633C100.907 165.266 99.0724 169.118 97.6535 172.772C96.7055 179.389 96.8192 186.895 100.235 192.656C100.514 193.15 101.021 193.446 101.556 193.446L101.728 193.413C102.329 193.347 102.836 192.919 103.024 192.36C103.06 192.228 105.352 185.282 110.394 178.105C111.488 173.365 113.365 170.073 114.031 169.019C107.371 175.439 103.342 183.373 101.436 187.883" fill="#171717"/>
<path d="M122.813 162.666C122.248 162.93 121.713 163.259 121.174 163.588C118.924 164.905 116.872 166.419 115.018 168.098C115.524 167.901 116.112 167.901 116.592 168.263C117.297 168.757 117.479 169.712 117.086 170.436C118.842 168.856 120.781 167.374 122.904 166.156C123.333 165.893 123.764 165.662 124.209 165.432C124.946 165.07 125.242 164.148 124.904 163.391L124.885 163.325H124.865C124.472 162.568 123.563 162.271 122.813 162.666" fill="#171717"/>
<path d="M127.538 174.187C127.18 174.451 126.827 174.78 126.476 175.076C121.177 179.949 116.836 189.627 114.68 195.059C109.794 181.463 116.674 171.093 117.008 170.632L117.086 170.435C117.479 169.711 117.297 168.755 116.593 168.262C116.112 167.899 115.524 167.899 115.018 168.097L114.261 168.69L114.031 169.019C113.365 170.072 111.489 173.364 110.394 178.105C109.086 183.8 108.907 191.635 113.31 200.326C113.596 200.886 114.174 201.248 114.797 201.248H114.92C115.589 201.215 116.167 200.754 116.385 200.096C116.417 199.997 118.485 193.907 121.645 187.784C122.619 181.232 124.986 176.887 125.174 176.525C125.628 175.735 126.651 175.439 127.453 175.899C128.258 176.36 128.544 177.381 128.093 178.204L128.077 178.237L128.281 178.039C128.703 177.611 129.135 177.216 129.57 176.887C130.051 176.525 130.249 175.932 130.19 175.373C130.161 175.077 130.08 174.78 129.885 174.516L129.492 174.154C128.911 173.759 128.129 173.726 127.538 174.187" fill="#171717"/>
<path d="M91.4945 183.965C91.7835 184.426 92.2802 184.722 92.803 184.722L93.066 184.689C93.6829 184.591 94.1764 184.097 94.316 183.504C94.3355 183.406 95.527 178.27 97.6537 172.772C99.0726 169.118 100.907 165.266 103.092 162.633L103.378 162.106L103.391 162.073C103.56 161.481 103.391 160.855 102.904 160.427C102.248 159.868 101.271 159.933 100.716 160.625L100.517 160.855C96.4914 165.892 93.6797 174.188 92.29 178.995C86.7022 167.44 91.3939 159.308 91.6179 158.946L91.7542 158.551C91.9426 157.892 91.712 157.168 91.1049 156.773C90.3743 156.312 89.4197 156.543 88.9684 157.3C88.8126 157.563 86.7834 161.02 86.4976 166.55C86.2574 171.126 87.2249 177.151 91.4945 183.965Z" fill="#171717"/>
<path d="M125.168 209.709C125.457 210.302 126.038 210.631 126.655 210.631H126.934C127.655 210.5 128.213 209.907 128.314 209.183C128.333 209.051 129.632 199.965 132.824 192.657C134.057 189.826 135.571 187.258 137.405 185.612L138.019 185.085C138.752 184.526 138.895 183.439 138.334 182.715L138.184 182.583C137.603 181.957 136.668 181.859 135.986 182.385C135.545 182.715 135.122 183.11 134.713 183.538C130.061 188.212 127.388 197.134 126.064 203.027C121.992 189.826 127.843 178.666 128.077 178.238L128.093 178.205C128.544 177.382 128.259 176.361 127.453 175.9C126.651 175.44 125.629 175.736 125.174 176.526C124.986 176.888 122.619 181.233 121.645 187.785C120.758 193.776 121.028 201.545 125.168 209.709Z" fill="#171717"/>
<path d="M49.6393 400.747L49.9315 400.879C52.0289 401.537 53.9511 401.866 55.7044 401.866C56.3018 401.866 56.8732 401.833 57.4187 401.767C57.2434 401.57 56.8733 401.175 56.3797 400.549C55.9966 400.056 55.5518 399.463 55.068 398.705C53.8472 398.672 52.4998 398.409 51.0387 397.949C49.6523 397.06 37.1552 388.27 36.4669 362.888C38.9604 367.036 43.0417 372.995 48.5971 378.427C48.4575 376.912 48.3925 375.332 48.3795 373.686C44.9086 369.9 42.1521 366.016 40.1553 362.888C37.7007 359.07 36.4052 356.37 36.3662 356.304C36.061 355.646 35.3499 355.284 34.6616 355.449C33.9635 355.58 33.4668 356.172 33.4311 356.897C32.3986 381.62 41.4378 393.57 46.4606 398.245C47.3146 399.035 48.0386 399.627 48.5841 400.022C49.1685 400.45 49.5387 400.681 49.6393 400.747" fill="#171717"/>
<path d="M85.1989 395.94C90.0691 393.932 92.4328 388.697 93.3614 385.997C92.5497 385.405 91.7347 384.714 90.9587 383.924L90.6666 383.561C90.501 383.265 89.2314 380.993 87.5268 377.603C74.3934 364.007 69.9063 343.267 69.5621 341.588V341.555H69.5589V341.588C66.6952 348.534 65.3477 355.283 65.9451 360.88C66.049 361.834 65.3737 362.69 64.4354 362.821H64.2405C63.3769 362.821 62.6398 362.163 62.5522 361.274L62.5164 360.88C62.3151 364.237 62.3671 367.332 62.6203 370.163C64.0814 373.126 65.8379 376.22 67.8705 379.183C65.812 372.303 64.7048 362.229 67.8088 348.666C70.5394 357.817 77.0363 374.541 90.1698 384.648C89.4847 386.722 87.6145 391.166 83.8904 392.713C82.6436 393.207 81.2702 393.372 79.7702 393.141C79.6305 393.668 79.2507 394.919 78.5623 396.466C79.4292 396.664 80.2669 396.763 81.0916 396.763C82.5299 396.763 83.9034 396.499 85.1989 395.94" fill="#171717"/>
<path d="M61.5524 400.219H61.5654L61.6303 400.153L61.5524 400.219Z" fill="#A08368"/>
<path d="M76.16 393.174C75.9684 393.767 75.6665 394.557 75.2574 395.413C74.4067 397.19 73.095 399.231 71.1631 400.515H71.1501L70.6859 400.779L69.8677 401.207C69.1047 401.536 68.3027 401.701 67.452 401.734H67.4455H67.439C66.728 401.767 65.9779 401.701 65.2019 401.536C64.0558 401.306 62.848 400.878 61.5655 400.219H61.5525C60.981 399.923 60.3966 399.594 59.7992 399.232C59.6466 399.034 59.3284 398.672 58.9063 398.112C57.244 395.907 53.9744 390.64 52.5523 381.981C52.3087 380.533 52.1302 378.986 52.0166 377.34C51.6107 371.776 51.9906 365.06 53.7991 357.159C55.5751 363.151 58.9323 372.27 64.6662 380.73C67.7702 385.273 71.5592 389.619 76.16 393.174V393.174ZM48.5976 378.426C49.4353 388.532 52.7308 395.182 55.0686 398.705C55.5523 399.462 55.9972 400.055 56.3803 400.549C56.8738 401.174 57.2439 401.569 57.4193 401.766L57.4972 401.832L57.7894 402.063C58.8706 402.754 59.9259 403.314 60.9551 403.774C63.1045 404.762 65.15 405.256 67.0818 405.256C68.4812 405.256 69.8157 404.993 71.0885 404.499H71.0917H71.1015L71.1891 404.466C72.2183 404.038 73.121 403.445 73.936 402.787H73.9392H73.9489C76.1859 400.976 77.6471 398.507 78.5627 396.466C79.251 394.919 79.6309 393.668 79.7705 393.142L79.8354 392.911C79.9978 392.187 79.7315 391.495 79.1601 391.067C74.66 387.808 70.9228 383.627 67.8708 379.183C65.8383 376.22 64.0818 373.126 62.6207 370.163C60.7635 366.377 59.3284 362.723 58.2602 359.628C56.3251 354.032 55.5523 350.115 55.5263 350.016C55.3737 349.226 54.7244 348.633 53.9257 348.567C53.1237 348.534 52.4256 349.028 52.1951 349.818C51.2308 352.978 50.4808 356.007 49.9061 358.871C48.8022 364.369 48.3671 369.307 48.38 373.685C48.393 375.331 48.458 376.911 48.5976 378.426" fill="#171717"/>
<path d="M105.021 384.977C102.898 385.833 98.5988 386.491 93.5402 381.619C92.3454 379.446 82.5432 361.406 80.3191 348.534C86.368 355.908 98.878 370.393 106.953 374.607C108.924 375.627 109.914 377.142 109.826 378.986C109.713 381.422 107.729 383.89 105.021 384.977ZM108.008 374.146C107.703 373.718 106.609 372.006 105.313 369.439C94.9266 361.768 79.6827 342.213 79.5041 341.983C79.0593 341.423 78.3093 341.193 77.6242 341.39C76.9359 341.621 76.4651 342.279 76.4262 343.003C76.0463 353.143 83.2023 369.01 87.5271 377.603C89.2317 380.993 90.5012 383.265 90.6668 383.561L90.959 383.924C91.735 384.714 92.5499 385.405 93.3616 385.997C96.1214 388.038 99.0566 389.059 101.93 389.059C103.404 389.059 104.868 388.796 106.278 388.236C109.94 386.788 112.609 383.594 113.171 380.104C111.466 379.15 109.661 377.339 108.008 374.146" fill="#171717"/>
<path d="M187.99 303.235C188.854 305.079 188.104 307.548 186.744 308.437C184.799 309.721 182.61 306.823 181.76 305.54C179.253 301.655 179.127 297.441 179.711 294.084C181.847 299.384 186.438 302.379 187.99 303.235ZM182.13 286.874C182.218 286.051 181.721 285.261 180.945 285.031C180.182 284.767 179.331 285.096 178.925 285.787C178.708 286.182 174.334 293.952 176.584 302.314C179.204 306.1 182.903 308.009 183.156 308.14C183.477 308.305 183.756 308.536 183.948 308.865C184.581 309.885 184.974 311.005 185.127 312.19L185.737 312.255C186.818 312.255 187.799 311.894 188.627 311.367C191.805 309.293 192.783 304.322 190.698 300.997L189.997 300.371C189.961 300.338 188.383 299.548 186.643 297.968C185.373 298.692 184.536 299.022 184.373 299.054L183.87 299.153C183.23 299.153 182.633 298.725 182.412 298.1C182.136 297.277 182.562 296.388 183.364 296.092C183.399 296.092 183.815 295.927 184.494 295.565C182.929 293.392 181.734 290.495 182.13 286.874" fill="#171717"/>
<path d="M170.532 316.503C171.256 317.589 171.993 318.445 172.72 319.169C172.019 318.182 171.282 317.293 170.532 316.503Z" fill="#171717"/>
<path d="M171.321 300.898C173.776 307.022 179.065 310.412 180.831 311.433C181.835 313.54 180.971 316.371 179.422 317.391C177.182 318.873 174.666 315.548 173.685 314.034C170.802 309.622 170.659 304.783 171.321 300.898V300.898ZM178.341 321.77C179.549 321.77 180.653 321.375 181.568 320.782C184.25 319.005 185.575 315.482 185.127 312.19C184.974 311.005 184.581 309.886 183.948 308.866C183.757 308.536 183.478 308.305 183.156 308.141C182.903 308.009 179.205 306.1 176.585 302.314C174.906 299.878 173.675 296.652 174.107 292.603C174.208 291.648 173.649 290.792 172.76 290.496C171.867 290.199 170.89 290.561 170.419 291.384C170.179 291.812 165.588 299.977 167.432 309.063C170.877 311.565 175.338 315.713 178.341 321.77Z" fill="#171717"/>
<path d="M117.518 377.01C114.784 377.536 112.726 374.705 111.466 372.203L111.339 372.005C111.261 371.874 103.521 360.22 103.683 347.908C108.771 353.735 118.687 364.631 123.596 366.936C123.161 365.092 122.642 363.117 122.018 361.043C116.869 356.764 108.82 347.875 103.67 341.752C103.177 341.192 102.388 340.929 101.651 341.127C100.914 341.324 100.355 341.949 100.216 342.706C98.2806 353.109 102.336 363.545 105.313 369.438C106.609 372.006 107.703 373.717 108.008 374.145C109.661 377.339 111.466 379.149 113.171 380.104C114.531 380.861 115.801 381.091 116.882 381.091C117.392 381.091 117.849 381.059 118.255 380.96C121.002 380.433 123.544 378.359 125.362 375.791C125.096 374.079 124.687 371.808 124.093 369.142C123.492 372.335 120.531 376.45 117.518 377.01" fill="#171717"/>
<path d="M127.141 364.698C127.512 366.18 127.84 367.595 128.122 368.912C128.275 367.167 127.93 365.752 127.141 364.698Z" fill="#171717"/>
<path d="M141.827 373.159C141.879 372.83 141.866 372.5 141.762 372.204C140.973 369.603 139.944 367.267 138.775 365.16H138.548C137.184 365.16 135.71 364.962 134.148 364.501C133.853 364.403 133.587 364.271 133.372 364.073C135.139 366.575 136.717 369.472 137.807 372.863C137.541 373.719 136.765 375.694 134.96 376.813C133.574 377.669 131.768 377.899 129.596 377.471C129.392 375.792 128.947 372.764 128.122 368.912C127.84 367.595 127.512 366.18 127.142 364.699C126.392 361.703 125.44 358.444 124.242 354.987C126.849 356.831 130.119 359.629 132.94 363.48L132.723 362.756C132.723 362.69 132.47 360.09 131.681 355.975C126.492 350.938 121.499 348.666 121.128 348.502C120.391 348.139 119.528 348.337 118.943 348.897C118.369 349.457 118.193 350.345 118.508 351.102C119.934 354.526 121.076 357.884 122.018 361.045C122.641 363.119 123.161 365.093 123.596 366.937C123.771 367.694 123.95 368.419 124.093 369.143C124.687 371.81 125.096 374.081 125.362 375.793C125.694 377.965 125.807 379.249 125.82 379.282C125.895 380.105 126.466 380.797 127.242 381.027C128.694 381.422 130.028 381.685 131.311 381.685H131.317H131.327L131.642 381.718C133.677 381.718 135.496 381.192 137.083 380.204C138.379 379.414 139.333 378.36 140.035 377.307H140.045H140.048C141.408 375.266 141.801 373.291 141.827 373.159" fill="#171717"/>
<path d="M131.158 338.493C135.531 341.62 141.801 347.381 144.713 356.303C144.457 357.191 143.681 359.166 141.879 360.286C140.476 361.142 138.674 361.372 136.512 360.944C136.08 357.553 134.719 348.665 131.158 338.493V338.493ZM132.94 363.479L133.333 364.006L133.372 364.072C133.586 364.269 133.853 364.401 134.148 364.5C135.71 364.961 137.184 365.158 138.548 365.158H138.775C140.72 365.125 142.46 364.631 143.986 363.677C146.554 362.064 147.801 359.529 148.333 357.981L147.723 357.817C146.937 357.586 146.363 356.928 146.288 356.105C146.275 356.006 145.947 352.517 144.84 347.217C138.405 336.715 128.554 332.205 128.044 331.974C127.294 331.612 126.43 331.777 125.846 332.369C125.271 332.929 125.096 333.818 125.414 334.575C128.794 342.674 130.69 350.607 131.68 355.973C132.469 360.088 132.723 362.689 132.723 362.755L132.94 363.479Z" fill="#171717"/>
<path d="M144.713 331.811C149.1 334.905 155.353 340.699 158.291 349.653C158.022 350.542 157.246 352.517 155.441 353.604C154.045 354.492 152.236 354.69 150.077 354.262C149.645 350.904 148.285 341.983 144.713 331.811ZM147.723 357.818L148.333 357.982C149.668 358.344 150.928 358.509 152.122 358.509C154.145 358.509 155.976 358.015 157.551 357.027C161.405 354.624 162.256 350.147 162.295 349.95C162.36 349.62 162.334 349.324 162.246 348.995C161.785 347.513 161.252 346.098 160.655 344.748C159.778 344.683 158.85 344.518 157.882 344.221C157.21 344.024 156.713 343.431 156.649 342.707C156.649 342.674 156.421 340.337 155.723 336.716C149.541 328.947 142.054 325.49 141.609 325.292C140.859 324.963 139.995 325.128 139.424 325.688C138.84 326.28 138.674 327.169 138.979 327.926C141.94 335.036 143.759 341.983 144.84 347.218C145.947 352.518 146.275 356.007 146.288 356.106C146.362 356.929 146.937 357.587 147.723 357.818" fill="#171717"/>
<path d="M155.288 321.737C159.067 324.437 164.48 329.407 167 337.144C166.782 337.901 166.12 339.58 164.571 340.568C163.363 341.325 161.798 341.523 159.918 341.16C159.548 338.231 158.366 330.527 155.288 321.737ZM157.882 344.222C158.85 344.518 159.779 344.683 160.655 344.749C160.999 344.782 161.34 344.814 161.671 344.814C163.438 344.814 165.003 344.386 166.376 343.53C169.694 341.424 170.431 337.572 170.47 337.44L170.418 336.584C170.204 335.893 169.974 335.235 169.733 334.609C169.071 334.477 168.399 334.346 167.685 334.148C167.013 333.951 166.516 333.358 166.451 332.634C166.441 332.568 166.236 330.428 165.6 327.037C160.132 319.565 153.015 316.306 152.606 316.108C151.96 315.845 151.21 315.976 150.713 316.47C150.217 316.964 150.064 317.721 150.33 318.379C153.217 325.325 154.856 332.074 155.723 336.716C156.421 340.337 156.649 342.675 156.649 342.707C156.714 343.432 157.21 344.024 157.882 344.222" fill="#171717"/>
<path d="M165.09 311.664C166.73 312.849 168.665 314.429 170.532 316.503C171.282 317.293 172.019 318.182 172.72 319.169C174.347 321.375 175.808 324.009 176.815 327.07C176.584 327.827 175.922 329.506 174.373 330.494C173.165 331.251 171.6 331.449 169.72 331.087C169.35 328.157 168.168 320.454 165.09 311.664ZM167.685 334.148C168.399 334.345 169.071 334.477 169.733 334.609C170.344 334.675 170.928 334.708 171.487 334.708C173.24 334.708 174.805 334.313 176.178 333.424C179.496 331.35 180.234 327.498 180.273 327.334L180.221 326.511C179.698 324.832 179.065 323.251 178.341 321.77C175.337 315.713 170.876 311.565 167.431 309.063C164.697 307.088 162.613 306.133 162.408 306.034C161.762 305.771 161.012 305.903 160.515 306.397C160.019 306.89 159.866 307.647 160.145 308.306C163.123 315.449 164.759 322.428 165.6 327.037C166.236 330.428 166.441 332.568 166.451 332.634C166.516 333.358 167.012 333.95 167.685 334.148" fill="#171717"/>
<path d="M62.513 360.847L62.5162 360.88L62.552 361.275C62.6396 362.164 63.3767 362.822 64.2403 362.822H64.4352C65.3735 362.691 66.0488 361.835 65.9449 360.88C65.3475 355.284 66.695 348.535 69.5587 341.589V341.556C75.9809 325.952 90.0137 309.458 106.491 303.566C132.223 294.414 124.937 245.462 124.618 243.388C124.492 242.598 123.83 241.972 123.031 241.939C122.904 241.939 110.303 240.754 100.274 216.229C90.4715 192.263 65.0813 181.366 59.4123 179.16C58.8149 178.93 58.4317 178.798 58.3181 178.765C57.6557 178.535 56.9577 178.732 56.5128 179.226L56.1427 179.852C56.0031 180.247 56.0291 180.642 56.1817 181.037C56.3472 181.465 56.7174 181.86 57.211 182.024C57.2889 182.057 59.0811 182.683 61.9026 183.999C69.6593 187.588 85.2052 196.279 94.043 211.389L94.082 211.455C95.2151 213.397 96.2281 215.405 97.108 217.578C102.991 231.964 109.823 238.911 114.969 242.268C117.742 244.079 120.018 244.836 121.401 245.166C121.696 247.503 122.294 253.033 122.32 259.716V259.749H122.333C122.368 268.177 121.544 278.415 118.186 286.678L118.161 286.744C115.605 292.998 111.576 298.101 105.358 300.307C104.407 300.636 103.452 301.031 102.511 301.426H102.498C79.3576 311.368 62.0293 339.647 62.4124 358.741V358.773V358.806C62.4254 359.498 62.4513 360.156 62.513 360.814V360.847" fill="#171717"/>
<path d="M245.785 201.71C240.661 200.755 235.388 202.335 230.109 206.384C217.423 216.162 205.374 207.866 204.868 207.537C204.095 206.977 203.03 207.174 202.488 207.931C201.946 208.721 202.134 209.808 202.904 210.368C203.014 210.433 210.816 215.833 220.777 214.22L220.55 213.989C219.907 213.297 219.946 212.178 220.634 211.553C221.284 210.927 222.264 210.96 222.917 211.52L223.04 211.29C223.628 210.532 224.7 210.433 225.44 211.026C225.547 211.125 226.161 211.585 227.177 212.211C228.826 211.454 230.498 210.434 232.177 209.15C232.593 208.821 233.008 208.557 233.421 208.261L233.427 208.228C234.586 204.903 237.736 202.499 241.437 202.499C244.323 202.499 246.879 203.948 248.418 206.187H248.421C253.203 208.425 256.872 213.1 259.256 217.018C259.58 217.545 260.139 217.841 260.71 217.841C261.019 217.841 261.33 217.775 261.61 217.577C262.412 217.083 262.662 216.03 262.165 215.207C258.905 209.841 253.415 203.158 245.785 201.71" fill="#171717"/>
<path d="M245.06 218.895H245.041C247.895 218.302 250.885 217.117 253.924 215.141C254.716 214.615 254.947 213.529 254.434 212.739C253.921 211.949 252.862 211.718 252.07 212.211C251.226 212.771 250.388 213.265 249.56 213.66V213.693C248.849 215.997 247.196 217.907 245.06 218.895Z" fill="#171717"/>
<path d="M233.95 215.207C231.008 214.384 228.661 213.132 227.177 212.21C226.161 211.585 225.547 211.124 225.44 211.025C224.7 210.433 223.628 210.532 223.04 211.289L222.917 211.519L223.053 211.618C223.115 211.684 225.829 214.581 230.187 217.511C232.671 218.466 235.706 219.256 239.093 219.387C236.882 218.762 235.021 217.215 233.95 215.207" fill="#171717"/>
<path d="M241.437 215.963L242.021 215.898H242.148L241.323 215.963H241.437Z" fill="#171717"/>
<path d="M223.053 211.619L222.917 211.52C222.264 210.96 221.284 210.927 220.634 211.552C219.946 212.178 219.907 213.297 220.55 213.989L220.777 214.219C222.55 216.096 233.586 226.992 247.577 226.992C250.408 226.992 253.363 226.531 256.382 225.478C257.278 225.182 257.749 224.194 257.441 223.273C257.132 222.384 256.158 221.89 255.265 222.219C245.489 225.642 236.245 221.561 230.187 217.512C225.829 214.582 223.115 211.685 223.053 211.619Z" fill="#171717"/>
<path d="M242.034 215.899H242.021L241.437 215.964H241.297C238.716 215.865 236.657 213.759 236.657 211.125C236.657 208.459 238.807 206.253 241.437 206.253C244.07 206.253 246.203 208.459 246.203 211.125C246.203 213.528 244.476 215.504 242.213 215.899H242.148H242.034ZM241.437 202.5C237.735 202.5 234.586 204.903 233.427 208.228L233.42 208.261C233.096 209.15 232.933 210.105 232.933 211.125C232.933 212.574 233.3 213.989 233.95 215.174V215.207C235.021 217.216 236.881 218.763 239.093 219.388L239.151 219.421H239.161C239.888 219.651 240.648 219.75 241.437 219.75C242.723 219.75 243.943 219.454 245.021 218.927L245.041 218.894H245.06C247.197 217.907 248.849 215.997 249.56 213.693V213.66C249.817 212.87 249.943 212.014 249.943 211.125C249.943 209.282 249.385 207.603 248.421 206.187H248.417C246.878 203.949 244.323 202.5 241.437 202.5Z" fill="#171717"/>
<path d="M242.969 211.125C242.969 210.237 242.277 209.545 241.427 209.545C240.576 209.545 239.884 210.237 239.884 211.125C239.884 211.981 240.576 212.672 241.427 212.672C242.277 212.672 242.969 211.981 242.969 211.125Z" fill="#171717"/>
<path d="M208.647 243.65C207.787 243.584 207.053 244.243 206.985 245.099L206.959 245.362C203.929 282.431 188.767 293.229 184.494 295.566C183.815 295.928 183.4 296.092 183.364 296.092C182.562 296.389 182.136 297.277 182.412 298.1C182.633 298.726 183.231 299.154 183.87 299.154L184.374 299.055C184.536 299.022 185.374 298.693 186.643 297.969C191.526 295.138 202.91 285.986 208.024 260.308C208.913 255.864 209.618 250.893 210.059 245.362H210.063L209.952 244.671C209.744 244.112 209.257 243.716 208.647 243.65Z" fill="#171717"/>
<path d="M81.8872 336.649L82.2184 336.616C83.0496 336.419 83.5788 335.596 83.3969 334.74C83.3807 334.641 83.2606 325.819 119.258 309.062C143.749 297.639 159.058 280.915 159.211 265.376C159.279 258.266 156.097 248.159 140.538 240.522C109.388 225.214 109.183 204.639 109.183 204.408C109.196 203.552 108.518 202.828 107.667 202.828C106.862 202.828 106.112 203.487 106.099 204.343C106.086 205.265 106.122 227.09 139.194 243.32C150.36 248.818 156.214 256.422 156.126 265.376C155.986 279.433 141.009 295.466 117.969 306.198C80.0235 323.909 80.0007 333.621 80.3839 335.398C80.5397 336.156 81.1794 336.649 81.8872 336.649" fill="#171717"/>
<path d="M174.422 397.717C172.529 397.025 171.409 396.729 171.347 396.696C170.967 396.598 170.571 396.664 170.253 396.828L170.217 396.861L169.847 397.125L169.834 397.157L169.48 397.816C169.263 398.672 169.756 399.528 170.584 399.725C170.61 399.758 170.85 399.791 171.269 399.923C172.237 400.219 174.181 400.877 176.828 401.964H176.841C180.883 403.643 186.565 406.342 192.896 410.49L193.036 410.556C202.176 416.58 212.64 425.502 221.439 438.472L221.501 438.571C224.897 443.608 228.037 449.238 230.758 455.525C231.011 456.118 231.582 456.479 232.183 456.479L232.793 456.315C233.121 456.183 233.365 455.92 233.53 455.624L233.54 455.591L233.644 455.327L233.68 455.13L233.592 454.274C233.339 453.682 233.082 453.122 232.816 452.529C215.884 415.099 184.354 401.239 174.422 397.717" fill="#171717"/>
<path d="M499.969 111.277L499.804 110.816L499.459 110.389C499.206 110.158 498.888 110.027 498.531 110.027C459.705 108.183 426.458 122.438 401.782 138.503C394.98 142.947 388.827 147.523 383.385 151.934C368.028 164.378 356.293 177.118 348.969 185.908C345.04 190.583 342.384 194.171 341.089 195.949L333.916 190.846L326.708 185.71C325.828 181.299 326.796 176.064 328.728 170.731C333.319 158.189 343.361 144.889 347.712 139.457H347.722C348.982 137.91 349.758 136.988 349.81 136.955C350.037 136.659 350.163 136.33 350.176 136L350.112 135.408C349.923 134.881 349.478 134.486 348.943 134.354C321.494 128.988 307.331 144.231 300.834 155.391L300.441 156.049C298.636 159.275 297.454 162.106 296.792 163.95L296.74 163.884L294.198 161.942L287.866 157.069C288.146 153.843 288.172 150.782 288.006 147.918C287.256 135.573 282.707 126.783 277.441 120.66L277.418 120.627C272.879 115.36 267.817 112.034 264.194 110.158C261.32 108.644 259.349 108.018 259.275 107.985C258.664 107.821 258.002 108.018 257.609 108.512C257.226 109.039 257.177 109.73 257.492 110.29C259.986 114.569 261.551 118.487 262.479 121.976C263.33 125.203 263.635 128.067 263.635 130.503C263.635 134.091 262.973 136.824 262.389 138.536C261.931 139.82 261.525 140.544 261.46 140.675C261.155 141.169 261.181 141.795 261.46 142.289L261.473 142.321L261.677 142.552L261.996 142.815C262.733 143.243 263.674 143.012 264.106 142.255C264.158 142.189 264.346 141.86 264.6 141.268C266.038 138.107 269.522 127.672 262.249 112.627C270.233 116.643 287.522 128.758 284.714 157.629C284.665 158.189 284.892 158.715 285.324 159.045L296.639 167.736C297.048 168.065 297.581 168.131 298.065 167.967C298.545 167.802 298.915 167.406 299.055 166.913C299.448 165.431 309.036 131.457 345.728 136.988C339.546 144.56 319.867 170.303 323.835 187.027C323.923 187.389 324.14 187.718 324.445 187.949L340.566 199.405C340.894 199.636 341.316 199.734 341.722 199.668C342.128 199.603 342.485 199.372 342.715 199.01C342.865 198.78 358.414 176.196 385.304 154.37C409.068 135.112 446.611 112.693 492.492 112.99C482.602 118.454 460.442 131.622 439.783 150.617C403.116 184.262 387.72 220.803 395.246 256.258C404.908 301.754 390.759 313.342 386.638 315.712C380.599 305.441 339.968 239.798 287.016 237.79C286.545 237.757 286.061 237.758 285.59 237.758C284.766 237.758 284.042 238.416 284.029 239.305C284.016 240.16 284.688 240.852 285.542 240.885C286.074 240.885 286.597 240.918 287.129 240.918C341.504 243.222 384.236 317.721 384.668 318.478C384.96 318.972 385.47 319.268 386.015 319.268L386.463 319.202H386.512L386.882 319.071C387.986 318.643 390.973 317.194 393.989 313.342L394.012 313.31C399.645 306.1 405.288 290.529 398.704 257.707V257.674C398.551 256.983 398.411 256.291 398.259 255.6C392.145 226.762 402.418 200.985 417.318 180.213C424.805 169.777 433.464 160.625 441.805 152.954C469.011 127.968 498.836 113.121 499.128 112.99C499.765 112.66 500.109 111.969 499.969 111.277" fill="#171717"/>
<path d="M235.232 181.102C216.878 178.831 202.121 195.324 201.501 196.015C200.871 196.739 200.936 197.826 201.637 198.484C202.345 199.11 203.423 199.044 204.053 198.32C204.192 198.188 218.277 182.485 234.836 184.526C245.778 185.908 255.512 194.6 263.775 210.467C264.08 211.06 264.671 211.389 265.285 211.389L266.083 211.191C266.918 210.73 267.236 209.677 266.798 208.821C257.976 191.933 247.356 182.583 235.232 181.102" fill="#171717"/>
<path d="M55.068 133.828C55.068 133.828 87.0396 79.5426 163.382 127.54C163.382 127.54 99.7185 115.524 86.4616 144C86.4616 144 79.3381 120.067 55.068 133.828Z" fill="#856854"/>
<path d="M59.4129 413.124C59.4129 413.124 48.1885 426.128 51.8704 452.793C51.8704 452.793 65.6338 425.7 90.1702 430.507C114.707 435.346 117.83 436.662 119.765 448.579C121.7 460.496 136.798 475.64 136.798 475.64C136.798 475.64 128.502 386.228 202.176 368.912C202.176 368.912 146.334 374.245 128.155 411.84C109.979 449.402 72.4879 404.335 59.4129 413.124" fill="#856854"/>
<path d="M316.51 289.64C316.51 289.64 320.267 393.865 211.069 399.297C211.069 399.297 228.345 418.918 233.615 439.328C233.615 439.328 328.062 371.776 316.51 289.64" fill="#856854"/>
<path d="M445.26 125.862C445.26 125.862 359.829 186.008 362.621 267.485L323.211 231.504C323.211 231.504 371.524 158.947 445.26 125.862Z" fill="#A08368"/>
</svg>
