<svg width="24" height="24" viewBox="0 0 24 24" xmlns="http://www.w3.org/2000/svg">
<path d="M10.227 10.178C9.6686 10.178 9.22778 10.6678 9.22778 11.2653C9.22778 11.8629 9.6784 12.3527 10.227 12.3527C10.7853 12.3527 11.2262 11.8629 11.2262 11.2653C11.2359 10.6678 10.7853 10.178 10.227 10.178ZM13.8025 10.178C13.2441 10.178 12.8033 10.6678 12.8033 11.2653C12.8033 11.8629 13.2539 12.3527 13.8025 12.3527C14.3608 12.3527 14.8017 11.8629 14.8017 11.2653C14.8017 10.6678 14.3608 10.178 13.8025 10.178Z" fill="black"/>
<path d="M18.5633 1.95923H5.43675C4.32981 1.95923 3.42859 2.86045 3.42859 3.97719V17.2213C3.42859 18.338 4.32981 19.2392 5.43675 19.2392H16.5453L16.0261 17.427L17.28 18.5927L18.4653 19.6898L20.5714 21.5511V3.97719C20.5714 2.86045 19.6702 1.95923 18.5633 1.95923ZM14.7821 14.7527C14.7821 14.7527 14.4294 14.3315 14.1355 13.9592C15.4188 13.5968 15.9086 12.7935 15.9086 12.7935C15.507 13.058 15.1249 13.2441 14.7821 13.3715C14.2923 13.5772 13.8221 13.7143 13.3616 13.7927C12.4212 13.969 11.5592 13.92 10.8245 13.7829C10.2661 13.6751 9.78614 13.5184 9.38451 13.3617C9.1592 13.2735 8.9143 13.1658 8.66941 13.0286C8.64002 13.009 8.61063 12.9992 8.58124 12.9796C8.56165 12.9698 8.55185 12.96 8.54206 12.9502C8.36573 12.8523 8.26777 12.7837 8.26777 12.7837C8.26777 12.7837 8.73798 13.5674 9.98206 13.9396C9.68818 14.3119 9.32573 14.7527 9.32573 14.7527C7.16083 14.6841 6.33798 13.2637 6.33798 13.2637C6.33798 10.1094 7.74859 7.5527 7.74859 7.5527C9.1592 6.49474 10.5012 6.52413 10.5012 6.52413L10.5992 6.64168C8.83594 7.15107 8.02287 7.92494 8.02287 7.92494C8.02287 7.92494 8.23839 7.80739 8.60083 7.64086C9.649 7.18045 10.4817 7.05311 10.8245 7.02372C10.8833 7.01392 10.9323 7.00413 10.991 7.00413C12.6897 6.77426 14.4173 7.09711 15.9184 7.92494C15.9184 7.92494 15.1445 7.19025 13.4792 6.68086L13.6163 6.52413C13.6163 6.52413 14.9584 6.49474 16.369 7.5527C16.369 7.5527 17.7796 10.1094 17.7796 13.2637C17.7796 13.2637 16.947 14.6841 14.7821 14.7527V14.7527Z" fill="black"/>
</svg>
