<svg xmlns="http://www.w3.org/2000/svg" viewBox="0 0 24 24"><path d="M10.82 23.015a368.78 368.78 0 0 1-2.395-1.322c-1.028-.571-2.367-1.312-2.975-1.648a224.93 224.93 0 0 1-1.864-1.037 69.728 69.728 0 0 0-1.303-.719L1.737 18l-.022-.415c-.029-.554-.012-10.145.017-10.204.021-.042.05-.034.274.075.227.11 1.038.554 1.874 1.025.178.1 1.256.696 2.396 1.325 1.14.628 2.766 1.53 3.612 2.005l1.538.863-.02 5.077c-.01 2.791-.027 5.183-.038 5.313l-.02.237-.527-.285Zm1.822-.548a511.37 511.37 0 0 1-.018-5.342v-4.51l1.1-.603c2.242-1.229 5.987-3.302 7.306-4.045 1.12-.63 1.205-.675 1.236-.644.077.074.087.603.1 5.53l.015 5.074-.15.083-1.215.675a472.4 472.4 0 0 1-1.863 1.03c-.44.24-1.193.658-1.675.928s-1.283.712-1.78.983a82.24 82.24 0 0 0-1.45.808c-.489.283-1.55.865-1.577.865-.006 0-.019-.374-.029-.832Zm-.957-10.951-1.247-.711a91.322 91.322 0 0 0-1.29-.726 58.99 58.99 0 0 1-.854-.475 261.79 261.79 0 0 0-1.64-.912c-.593-.327-1.81-1.003-2.704-1.501-.894-.498-1.647-.918-1.675-.932-.04-.022.086-.104.7-.456.414-.235 1.83-1.046 3.147-1.8 1.318-.756 3.001-1.718 3.741-2.14.74-.42 1.44-.823 1.557-.893.284-.172.488-.27.563-.27.115 0 1.076.53 3.415 1.88.701.406 2.158 1.24 3.236 1.855 2.892 1.647 3.054 1.741 3.064 1.79.012.065-.556.39-3.68 2.108-1.425.783-3.264 1.8-5.225 2.887-.438.243-.81.441-.826.44-.017 0-.144-.065-.282-.144Z"/></svg>
