<svg xmlns="http://www.w3.org/2000/svg" viewBox="0 0 24 24"><path d="M10.227 10.178c-.558 0-1 .49-1 1.087 0 .598.451 1.088 1 1.088.558 0 1-.49 1-1.088.009-.597-.442-1.087-1-1.087Zm3.575 0c-.558 0-.999.49-.999 1.087 0 .598.45 1.088 1 1.088.558 0 .999-.49.999-1.088 0-.597-.441-1.087-1-1.087Z"/><path d="M18.563 1.96H5.437a2.013 2.013 0 0 0-2.008 2.017v13.244c0 1.117.9 2.018 2.008 2.018h11.108l-.519-1.812 1.254 1.166 1.185 1.097 2.106 1.861V3.977a2.013 2.013 0 0 0-2.008-2.018Zm-3.78 12.793s-.354-.421-.647-.794c1.283-.362 1.773-1.165 1.773-1.165-.402.264-.784.45-1.127.577a6.45 6.45 0 0 1-1.42.422 6.864 6.864 0 0 1-2.537-.01 8.229 8.229 0 0 1-1.44-.421 5.737 5.737 0 0 1-.716-.333c-.029-.02-.058-.03-.088-.05a.135.135 0 0 1-.039-.029 3.422 3.422 0 0 1-.274-.166s.47.783 1.714 1.156c-.294.372-.656.813-.656.813-2.165-.069-2.988-1.49-2.988-1.49 0-3.154 1.41-5.71 1.41-5.71 1.411-1.058 2.753-1.029 2.753-1.029l.098.118c-1.763.51-2.576 1.283-2.576 1.283s.215-.118.578-.284c1.048-.46 1.88-.588 2.223-.617.06-.01.108-.02.167-.02a7.986 7.986 0 0 1 4.927.92s-.773-.734-2.439-1.243l.137-.157s1.342-.03 2.753 1.029c0 0 1.41 2.556 1.41 5.71 0 0-.832 1.421-2.997 1.49Z"/></svg>
