<svg xmlns="http://www.w3.org/2000/svg" viewBox="0 0 24 24"><g clip-path="url(#a)"><path d="M21.103.62a2.898 2.898 0 0 0-2.863 2.483h-1.688V4.76a.414.414 0 1 1-.828 0V3.103h-.827v2.483a.414.414 0 1 1-.828 0V3.103H5.76A2.899 2.899 0 0 0 2.897.621 2.9 2.9 0 0 0 0 3.517v16.966a2.9 2.9 0 0 0 2.897 2.896h4.137v-2.483a.414.414 0 1 1 .828 0v2.483h.828v-1.241a.414.414 0 1 1 .827 0v1.241h11.586A2.9 2.9 0 0 0 24 20.483V3.517A2.9 2.9 0 0 0 21.103.621ZM4.966 18.458a2.888 2.888 0 0 0-4.138 0V3.517c0-1.14.928-2.069 2.069-2.069 1.14 0 2.069.928 2.069 2.07v14.94ZM7.74 10.43l-.585-.585.949-.949-.95-.948.586-.585.949.948.948-.948.586.585-.95.948.95.95-.586.584-.948-.948-.95.948Zm1.105 1.968a.414.414 0 0 1-.395-.29 3.806 3.806 0 0 1-.175-1.143.414.414 0 1 1 .827 0c0 .304.046.605.138.895a.414.414 0 0 1-.395.538Zm2.043 1.881a.414.414 0 0 1-.568.142 4.404 4.404 0 0 1-1.142-.979.414.414 0 1 1 .64-.526c.256.312.568.58.928.795.196.118.26.372.142.568Zm3.352.691a.414.414 0 0 1-.52.27 2.98 2.98 0 0 0-.893-.137c-.379 0-.756-.042-1.121-.126a.414.414 0 0 1 .185-.806c.304.07.619.105.936.105.388 0 .772.059 1.142.175.218.069.34.301.27.52Zm1.333 1.777a3.577 3.577 0 0 0-.795-.929.414.414 0 0 1 .525-.639c.386.317.715.701.98 1.142a.414.414 0 1 1-.71.425Zm.978 2.494a.414.414 0 0 1-.414-.413c0-.318-.035-.633-.105-.936a.414.414 0 0 1 .806-.186c.084.364.127.742.127 1.122a.414.414 0 0 1-.414.413Zm6.62-.784a2.888 2.888 0 0 0-4.137 0V3.517c0-1.14.928-2.069 2.068-2.069 1.141 0 2.07.928 2.07 2.07v14.94Z"/></g><defs><clipPath id="a"><path fill="#fff" d="M0 0h24v24H0z"/></clipPath></defs></svg>
